<svg xmlns="http://www.w3.org/2000/svg" xmlns:xlink="http://www.w3.org/1999/xlink" width="150" zoomAndPan="magnify" viewBox="0 0 375 374.999991" height="" preserveAspectRatio="xMidYMid meet" version="1.0"><defs><g/><clipPath id="37ad1fc445"><path d="M 53.636719 114.234375 L 145.886719 114.234375 L 145.886719 246.984375 L 53.636719 246.984375 Z M 53.636719 114.234375 " clip-rule="nonzero"/></clipPath><clipPath id="e55ce4411c"><path d="M 129.6875 107.554688 L 146 107.554688 L 146 124 L 129.6875 124 Z M 129.6875 107.554688 " clip-rule="nonzero"/></clipPath><clipPath id="2a48911d89"><path d="M 113.144531 95.039062 L 125.894531 95.039062 L 125.894531 107.789062 L 113.144531 107.789062 Z M 113.144531 95.039062 " clip-rule="nonzero"/></clipPath></defs><g clip-path="url(#37ad1fc445)"><path fill="#b8844f" d="M 56.992188 153.515625 C 56.328125 152.886719 55.753906 152.390625 55.238281 151.835938 C 54.097656 150.617188 53.65625 149.15625 53.878906 147.507812 C 54.085938 145.953125 54.914062 144.890625 56.457031 144.449219 C 57.949219 144.023438 59.453125 144.054688 60.769531 144.375 C 61.855469 143.125 62.859375 141.96875 63.84375 140.839844 C 63.65625 139.796875 63.300781 138.648438 63.277344 137.496094 C 63.226562 135.089844 64.671875 133.75 67.085938 133.746094 C 67.320312 133.746094 67.550781 133.746094 67.882812 133.746094 C 67.910156 133.328125 67.914062 132.96875 67.957031 132.609375 C 68.074219 131.722656 68.101562 130.804688 68.359375 129.957031 C 68.855469 128.308594 70.109375 127.519531 71.824219 127.648438 C 73.367188 127.761719 74.652344 128.402344 75.59375 129.65625 C 75.878906 130.03125 76.132812 130.433594 76.453125 130.902344 C 76.882812 130.828125 77.332031 130.746094 77.761719 130.671875 C 77.941406 126.183594 79.527344 124.734375 83.113281 125.730469 C 83.648438 124.820312 84.046875 123.761719 84.769531 123.019531 C 85.453125 122.3125 86.480469 121.933594 87.496094 121.324219 C 88.613281 116.695312 91.878906 115.753906 95.828125 117.476562 C 96.21875 117.046875 96.632812 116.539062 97.097656 116.085938 C 98.347656 114.875 99.816406 114.234375 101.59375 114.332031 C 103.890625 114.453125 105.820312 116.246094 105.503906 118.46875 C 105.484375 118.605469 105.523438 118.746094 105.546875 119.03125 C 106.882812 119.316406 108.328125 119.5625 108.996094 121.1875 C 111.679688 120.234375 113.464844 121.625 115.027344 123.617188 C 115.589844 123.148438 116.046875 122.75 116.519531 122.378906 C 117.757812 121.40625 119.085938 120.964844 120.617188 121.664062 C 122.089844 122.332031 122.675781 123.542969 122.742188 125.082031 C 122.753906 125.265625 122.792969 125.449219 122.808594 125.550781 C 123.617188 125.996094 124.355469 126.402344 125.230469 126.882812 C 125.304688 126.863281 125.527344 126.804688 125.742188 126.730469 C 129.007812 125.582031 131.824219 127.300781 132.1875 130.769531 C 132.308594 131.933594 132.121094 133.128906 132.019531 134.304688 C 131.953125 135.050781 131.78125 135.789062 131.640625 136.636719 C 132.023438 136.664062 132.285156 136.707031 132.542969 136.695312 C 132.824219 136.683594 133.105469 136.625 133.386719 136.578125 C 137.074219 135.960938 139.105469 138.46875 138.285156 142.121094 C 138.195312 142.523438 138.074219 142.925781 137.953125 143.375 C 138.199219 143.464844 138.363281 143.566406 138.539062 143.589844 C 140.480469 143.839844 141.347656 145.136719 141.8125 146.871094 C 142.25 148.484375 141.960938 150.070312 141.660156 151.714844 C 142.265625 152.109375 142.871094 152.46875 143.4375 152.878906 C 145.246094 154.1875 145.894531 155.992188 145.269531 158.125 C 144.726562 159.964844 143.78125 161.519531 141.875 162.242188 C 141.257812 162.476562 141.050781 162.894531 140.957031 163.523438 C 139.554688 172.996094 138.125 182.464844 136.703125 191.933594 C 135.417969 200.464844 134.128906 208.996094 132.851562 217.527344 C 131.757812 224.792969 130.640625 232.058594 129.617188 239.332031 C 129.433594 240.628906 129.007812 241.617188 127.820312 242.152344 C 126.230469 242.871094 124.644531 243.644531 122.984375 244.167969 C 119.351562 245.308594 115.582031 245.796875 111.804688 246.167969 C 105.65625 246.769531 99.492188 246.828125 93.328125 246.433594 C 88.355469 246.109375 83.398438 245.582031 78.597656 244.167969 C 76.796875 243.636719 75.078125 242.792969 73.347656 242.035156 C 72.410156 241.621094 72.023438 240.828125 71.871094 239.789062 C 69.382812 222.957031 66.859375 206.125 64.339844 189.292969 C 63.03125 180.574219 61.707031 171.859375 60.40625 163.136719 C 60.246094 162.074219 59.960938 161.277344 58.839844 160.71875 C 56.414062 159.519531 55.59375 156.976562 56.589844 154.457031 C 56.710938 154.152344 56.847656 153.855469 56.992188 153.515625 Z M 118.859375 242.988281 C 118.9375 242.085938 119.011719 241.289062 119.070312 240.488281 C 119.285156 237.652344 119.492188 234.816406 119.710938 231.980469 C 120.164062 226.027344 120.625 220.074219 121.082031 214.117188 C 121.480469 208.917969 121.875 203.71875 122.273438 198.523438 C 122.730469 192.566406 123.1875 186.613281 123.644531 180.65625 C 124.039062 175.457031 124.371094 170.253906 124.875 165.066406 C 125 163.785156 124.710938 162.980469 123.667969 162.359375 C 123.339844 162.164062 123.042969 161.929688 122.714844 161.738281 C 118.691406 159.402344 113.316406 160.042969 110.363281 163.183594 C 109.714844 163.871094 109.390625 164.613281 109.363281 165.589844 C 109.199219 171.277344 108.984375 176.960938 108.765625 182.644531 C 108.34375 193.683594 107.902344 204.722656 107.472656 215.761719 C 107.117188 225 106.769531 234.238281 106.425781 243.476562 C 106.414062 243.746094 106.472656 244.015625 106.507812 244.394531 C 110.65625 244.207031 114.6875 243.832031 118.859375 242.988281 Z M 94.898438 244.359375 C 94.796875 242.167969 94.699219 240.1875 94.621094 238.203125 C 94.140625 225.746094 93.664062 213.285156 93.195312 200.824219 C 92.757812 189.214844 92.296875 177.609375 91.945312 166 C 91.890625 164.242188 91.199219 163.128906 89.796875 162.332031 C 89.101562 161.933594 88.363281 161.570312 87.601562 161.34375 C 84.035156 160.285156 80.683594 160.972656 77.441406 162.644531 C 76.542969 163.109375 76.289062 163.691406 76.367188 164.675781 C 76.996094 172.425781 77.566406 180.175781 78.164062 187.925781 C 78.871094 197.097656 79.601562 206.261719 80.304688 215.429688 C 80.933594 223.605469 81.535156 231.785156 82.152344 239.960938 C 82.226562 240.9375 82.347656 241.910156 82.449219 242.914062 C 86.566406 243.738281 90.597656 244.167969 94.898438 244.359375 Z M 104.21875 244.4375 C 104.300781 242.707031 104.390625 241.148438 104.449219 239.585938 C 104.695312 232.953125 104.917969 226.320312 105.175781 219.6875 C 105.582031 209.078125 106.015625 198.46875 106.429688 187.859375 C 106.714844 180.5625 106.964844 173.265625 107.289062 165.972656 C 107.335938 164.867188 106.996094 164.066406 106.230469 163.335938 C 103.089844 160.328125 98.03125 160.5 94.976562 163.722656 C 94.289062 164.441406 93.949219 165.195312 93.992188 166.25 C 94.328125 173.921875 94.59375 181.597656 94.894531 189.269531 C 95.242188 198.222656 95.613281 207.175781 95.953125 216.128906 C 96.296875 225.128906 96.617188 234.132812 96.949219 243.132812 C 96.964844 243.550781 97.027344 243.964844 97.070312 244.4375 C 99.472656 244.4375 101.777344 244.4375 104.21875 244.4375 Z M 121.066406 242.472656 C 123.085938 242.023438 124.820312 241.4375 126.441406 240.515625 C 127.070312 240.15625 127.417969 239.671875 127.503906 238.949219 C 127.648438 237.773438 127.835938 236.605469 128.011719 235.433594 C 129.300781 226.855469 130.59375 218.28125 131.878906 209.703125 C 132.964844 202.484375 134.042969 195.265625 135.125 188.050781 C 136.382812 179.707031 137.636719 171.363281 138.914062 163.027344 C 139.023438 162.316406 138.851562 161.804688 138.261719 161.457031 C 137.609375 161.078125 136.960938 160.652344 136.253906 160.425781 C 133.605469 159.582031 131.105469 160.035156 128.757812 161.460938 C 127.640625 162.140625 126.867188 163.019531 127.015625 164.449219 C 127.054688 164.824219 126.984375 165.207031 126.953125 165.585938 C 126.324219 173.714844 125.683594 181.84375 125.0625 189.972656 C 124.453125 197.917969 123.875 205.859375 123.265625 213.800781 C 122.644531 221.929688 122 230.058594 121.371094 238.1875 C 121.265625 239.550781 121.175781 240.917969 121.066406 242.472656 Z M 80.089844 242.320312 C 80.089844 241.78125 80.117188 241.367188 80.085938 240.953125 C 79.644531 235.042969 79.199219 229.132812 78.746094 223.226562 C 78.339844 217.882812 77.925781 212.539062 77.515625 207.199219 C 77.070312 201.382812 76.625 195.566406 76.183594 189.753906 C 75.765625 184.316406 75.355469 178.878906 74.9375 173.441406 C 74.699219 170.273438 74.421875 167.109375 74.222656 163.9375 C 74.144531 162.710938 73.5625 161.886719 72.542969 161.332031 C 71.960938 161.015625 71.359375 160.726562 70.734375 160.519531 C 68.445312 159.761719 66.15625 159.890625 63.875 160.574219 C 62.460938 160.996094 62.277344 161.332031 62.507812 162.855469 C 63.335938 168.339844 64.148438 173.824219 64.972656 179.308594 C 66.253906 187.84375 67.535156 196.375 68.816406 204.902344 C 70.097656 213.433594 71.378906 221.964844 72.660156 230.5 C 73.074219 233.261719 73.476562 236.03125 73.90625 238.796875 C 73.996094 239.382812 74 240.019531 74.664062 240.382812 C 76.339844 241.292969 78.097656 241.929688 80.089844 242.320312 Z M 134.402344 145.378906 C 135.6875 144.027344 136.410156 142.425781 136.425781 140.550781 C 136.433594 139.191406 135.710938 138.550781 134.367188 138.609375 C 133.898438 138.628906 133.429688 138.742188 132.960938 138.8125 C 130.339844 139.203125 129.285156 138.179688 129.636719 135.574219 C 129.675781 135.289062 129.757812 135.015625 129.796875 134.734375 C 129.929688 133.796875 130.078125 132.859375 130.164062 131.917969 C 130.242188 131.039062 130 130.226562 129.492188 129.5 C 128.765625 128.460938 127.976562 128.203125 126.785156 128.613281 C 125.414062 129.089844 124.710938 130.167969 124.148438 131.421875 C 123.191406 133.578125 122.808594 133.636719 121.082031 132.003906 C 120.292969 131.257812 119.632812 131.082031 118.914062 131.433594 C 118.125 131.8125 117.625 132.734375 117.75 133.6875 C 117.8125 134.152344 118.054688 134.59375 118.105469 135.058594 C 118.160156 135.558594 118.210938 136.121094 118.03125 136.5625 C 117.773438 137.191406 117.160156 137.265625 116.476562 137.269531 C 115.175781 137.277344 114.21875 138.300781 114.324219 139.398438 C 114.421875 140.433594 114.523438 141.464844 114.609375 142.5 C 114.707031 143.714844 115.320312 144.082031 116.394531 143.546875 C 117.371094 143.058594 118.316406 142.511719 119.316406 142.082031 C 122.421875 140.757812 124.9375 142.222656 125.402344 145.589844 C 125.464844 146.050781 125.507812 146.515625 125.5625 146.984375 C 125.753906 147.019531 125.890625 147.070312 126.023438 147.0625 C 126.304688 147.050781 126.582031 147.011719 126.835938 146.984375 C 128.625 143.824219 131.253906 143.253906 134.402344 145.378906 Z M 67.925781 157.847656 C 67.777344 156.996094 67.605469 156.304688 67.550781 155.605469 C 67.492188 154.851562 67.480469 154.085938 67.558594 153.335938 C 67.785156 151.160156 69.144531 150.039062 71.332031 150.210938 C 71.988281 150.261719 72.644531 150.410156 73.28125 150.585938 C 73.902344 150.753906 74.332031 150.570312 74.53125 150 C 74.695312 149.523438 74.878906 148.984375 74.808594 148.511719 C 74.613281 147.148438 73.90625 146.019531 72.839844 145.15625 C 72.171875 144.617188 71.402344 144.476562 70.5625 144.746094 C 68.878906 145.289062 68.878906 145.28125 68.050781 143.59375 C 67.59375 142.667969 67.167969 142.4375 66.113281 142.558594 C 64.746094 142.71875 63.589844 143.777344 63.15625 145.273438 C 62.679688 146.925781 62.4375 147.0625 60.878906 146.503906 C 59.921875 146.160156 58.96875 145.992188 57.949219 146.191406 C 56.105469 146.550781 55.464844 147.632812 56.167969 149.378906 C 56.335938 149.804688 56.617188 150.234375 56.957031 150.535156 C 57.625 151.128906 58.351562 151.660156 59.089844 152.167969 C 59.84375 152.683594 59.964844 153.207031 59.40625 153.921875 C 59.292969 154.070312 59.128906 154.183594 59.003906 154.324219 C 57.613281 155.875 57.917969 157.84375 59.730469 158.875 C 60.246094 159.167969 60.769531 159.613281 61.441406 159.269531 C 63.421875 158.253906 65.558594 157.917969 67.925781 157.847656 Z M 80.09375 144.980469 C 80.105469 143.070312 80.765625 141.546875 82.363281 140.445312 C 82.675781 140.234375 82.828125 139.488281 82.738281 139.058594 C 82.539062 138.128906 82.15625 137.292969 80.972656 137.105469 C 80.070312 136.964844 79.832031 136.539062 79.765625 135.613281 C 79.738281 135.234375 79.789062 134.851562 79.742188 134.476562 C 79.605469 133.339844 78.78125 132.714844 77.648438 132.898438 C 77.332031 132.949219 77.03125 133.121094 76.722656 133.234375 C 75.820312 133.5625 75.289062 133.398438 74.804688 132.589844 C 74.585938 132.226562 74.453125 131.8125 74.242188 131.441406 C 73.828125 130.726562 73.277344 130.175781 72.449219 129.917969 C 71.117188 129.507812 70.425781 129.835938 70.199219 131.207031 C 70.058594 132.085938 70.121094 133 70.113281 133.898438 C 70.097656 135.582031 69.507812 136.128906 67.851562 135.957031 C 67.664062 135.9375 67.480469 135.890625 67.292969 135.867188 C 65.875 135.691406 65.253906 136.207031 65.25 137.660156 C 65.246094 138.214844 65.304688 138.828125 65.542969 139.308594 C 65.75 139.71875 66.234375 140.21875 66.632812 140.253906 C 68.222656 140.394531 69.222656 141.289062 70 142.621094 C 73.109375 141.917969 74.8125 143.757812 76.179688 146.0625 C 77.988281 145.027344 77.988281 145.027344 80.09375 144.980469 Z M 104.765625 142.164062 C 105.109375 141.457031 105.402344 140.929688 105.621094 140.375 C 106.175781 138.972656 106.929688 137.75 108.328125 137.027344 C 108.5625 136.910156 108.835938 136.671875 108.894531 136.4375 C 109.15625 135.386719 109.488281 134.328125 109.53125 133.257812 C 109.582031 132.03125 108.753906 131.28125 107.515625 131.101562 C 107.28125 131.066406 107.042969 131.074219 106.808594 131.03125 C 105.84375 130.863281 105.496094 130.519531 105.359375 129.5625 C 105.292969 129.09375 105.359375 128.601562 105.246094 128.148438 C 105.035156 127.332031 104.851562 126.472656 104.4375 125.757812 C 103.847656 124.730469 102.902344 124.605469 101.863281 125.191406 C 101.066406 125.640625 100.640625 126.359375 100.355469 127.1875 C 100.125 127.859375 99.953125 128.558594 99.640625 129.191406 C 99.148438 130.195312 98.367188 130.40625 97.40625 129.847656 C 96.917969 129.5625 96.472656 129.195312 96 128.878906 C 95.390625 128.46875 94.75 128.488281 94.117188 128.816406 C 92.441406 129.6875 92.007812 132.117188 93.238281 133.550781 C 93.605469 133.980469 93.917969 134.464844 94.199219 134.953125 C 94.523438 135.519531 94.785156 136.117188 95.09375 136.738281 C 95.605469 136.59375 96.003906 136.457031 96.414062 136.367188 C 99.332031 135.710938 101.351562 137.03125 101.90625 139.929688 C 101.953125 140.1875 102.046875 140.523438 102.234375 140.648438 C 103.007812 141.164062 103.828125 141.613281 104.765625 142.164062 Z M 75.621094 161.222656 C 76.066406 160.988281 76.359375 160.835938 76.648438 160.679688 C 79.433594 159.195312 82.390625 158.523438 85.550781 158.777344 C 86.910156 158.886719 87.316406 158.625 87.777344 157.363281 C 87.953125 156.878906 88.054688 156.359375 88.128906 155.847656 C 88.394531 153.972656 87.074219 152.402344 85.167969 152.3125 C 84.695312 152.292969 84.21875 152.355469 83.746094 152.328125 C 82.660156 152.269531 82.109375 151.839844 81.796875 150.792969 C 81.636719 150.25 81.570312 149.679688 81.421875 149.128906 C 81.105469 147.9375 80.222656 147.179688 79.132812 147.128906 C 78.238281 147.085938 77.726562 147.578125 77.226562 148.914062 C 76.929688 149.710938 76.664062 150.535156 76.25 151.269531 C 75.460938 152.675781 74.484375 153.050781 72.910156 152.691406 C 72.355469 152.566406 71.808594 152.386719 71.25 152.308594 C 70.214844 152.167969 69.726562 152.523438 69.574219 153.558594 C 69.390625 154.792969 69.472656 156.019531 69.90625 157.203125 C 70.109375 157.757812 70.425781 158.203125 71.042969 158.375 C 72.808594 158.875 74.351562 159.753906 75.621094 161.222656 Z M 103.84375 150.222656 C 104.007812 149.386719 104.085938 148.628906 104.304688 147.914062 C 105.015625 145.59375 107.519531 144.980469 109.253906 146.683594 C 110.25 147.65625 110.691406 148.875 110.859375 150.234375 C 111.074219 151.992188 111.203125 152.097656 113.078125 152.394531 C 113.007812 151.554688 113.382812 150.921875 114.054688 150.476562 C 115 149.847656 115.933594 149.195312 116.917969 148.628906 C 118.328125 147.820312 119.78125 148.015625 120.972656 149.128906 C 121.378906 149.507812 121.714844 149.964844 122.128906 150.4375 C 123 149.074219 123.695312 147.699219 123.472656 146.046875 C 123.175781 143.859375 121.972656 143.175781 119.992188 144.09375 C 118.917969 144.589844 117.898438 145.203125 116.828125 145.707031 C 115.4375 146.359375 113.953125 145.898438 113.089844 144.628906 C 112.617188 143.925781 112.558594 143.144531 112.511719 142.328125 C 112.46875 141.488281 112.410156 140.609375 112.121094 139.835938 C 111.691406 138.6875 110.714844 138.390625 109.5625 138.828125 C 108.804688 139.117188 108.292969 139.644531 107.960938 140.359375 C 107.664062 141.003906 107.417969 141.671875 107.113281 142.3125 C 106.234375 144.148438 104.828125 144.605469 103.023438 143.636719 C 102.355469 143.277344 101.746094 142.8125 101.0625 142.492188 C 100.710938 142.328125 100.191406 142.21875 99.863281 142.359375 C 98.304688 143.019531 97.863281 147.164062 99.171875 148.214844 C 99.960938 148.84375 100.6875 149.558594 101.539062 150.324219 C 102.132812 150.296875 102.929688 150.261719 103.84375 150.222656 Z M 99.644531 140.007812 C 99.496094 138.949219 99.15625 138.46875 98.238281 138.417969 C 97.550781 138.378906 96.824219 138.507812 96.164062 138.71875 C 94.488281 139.25 93.914062 139.058594 93.078125 137.484375 C 92.746094 136.859375 92.484375 136.1875 92.117188 135.585938 C 91.269531 134.199219 89.578125 134.242188 88.835938 135.691406 C 88.5625 136.222656 88.441406 136.851562 88.335938 137.449219 C 88.191406 138.242188 88.148438 139.050781 88.03125 139.847656 C 87.777344 141.621094 87.039062 142.207031 85.261719 142.074219 C 82.761719 141.894531 81.441406 143.617188 82.320312 145.988281 C 82.835938 147.386719 83.460938 148.746094 84.039062 150.125 C 85.078125 150.222656 86.148438 150.320312 87.28125 150.425781 C 87.4375 149.917969 87.585938 149.375 87.773438 148.847656 C 89.050781 145.289062 93.351562 144.984375 95.0625 147.359375 C 95.171875 147.511719 95.285156 147.714844 95.445312 147.773438 C 95.785156 147.898438 96.160156 147.949219 96.652344 148.0625 C 96.15625 144.660156 96.445312 141.757812 99.644531 140.007812 Z M 131.136719 153.285156 C 129.683594 153.449219 129.109375 152.539062 128.746094 151.351562 C 128.609375 150.902344 128.390625 150.46875 128.144531 150.070312 C 127.632812 149.25 126.859375 148.992188 125.941406 149.257812 C 125.191406 149.472656 124.738281 149.996094 124.457031 150.679688 C 124.164062 151.378906 123.921875 152.097656 123.640625 152.796875 C 123.398438 153.394531 123.042969 153.917969 122.328125 153.933594 C 121.625 153.949219 121.222656 153.46875 120.929688 152.894531 C 120.757812 152.554688 120.640625 152.191406 120.464844 151.859375 C 120.265625 151.480469 120.074219 151.089844 119.804688 150.765625 C 119.097656 149.914062 118.390625 149.914062 117.542969 150.644531 C 117.046875 151.074219 116.445312 151.386719 115.953125 151.816406 C 115.660156 152.070312 115.269531 152.464844 115.285156 152.777344 C 115.363281 154.203125 114.660156 155.046875 113.53125 155.773438 C 112.238281 156.605469 112.199219 157.371094 113.234375 158.808594 C 117.746094 157.523438 121.972656 158.230469 125.625 161.144531 C 126.644531 160.429688 127.46875 159.667969 128.4375 159.21875 C 130.5 158.265625 131.707031 155.523438 131.136719 153.285156 Z M 140.742188 160.671875 C 142.496094 159.738281 143.449219 158.328125 143.453125 156.796875 C 143.460938 155.25 142.34375 154.605469 141.199219 153.972656 C 139.464844 153.011719 139.347656 152.605469 139.640625 150.652344 C 139.804688 149.550781 139.769531 148.398438 139.683594 147.28125 C 139.628906 146.558594 139.246094 145.90625 138.429688 145.730469 C 137.609375 145.550781 136.945312 145.851562 136.414062 146.488281 C 136.023438 146.960938 135.660156 147.46875 135.203125 147.871094 C 134.597656 148.40625 134 148.355469 133.425781 147.808594 C 133.222656 147.617188 133.082031 147.355469 132.898438 147.140625 C 132.191406 146.292969 130.765625 146.019531 129.804688 146.542969 C 129.082031 146.933594 128.949219 147.492188 129.367188 148.15625 C 129.941406 149.070312 130.484375 150.007812 131.085938 151.007812 C 132.914062 151.578125 133.492188 152.335938 133.417969 154.378906 C 133.390625 155.171875 133.1875 155.964844 133.050781 156.753906 C 132.992188 157.109375 132.898438 157.453125 132.796875 157.910156 C 135.898438 157.699219 138.507812 158.640625 140.742188 160.671875 Z M 122.34375 130.167969 C 122.730469 129.476562 123.039062 128.917969 123.4375 128.207031 C 122.914062 128.039062 122.53125 127.898438 122.136719 127.800781 C 120.886719 127.484375 120.578125 127.105469 120.566406 125.839844 C 120.566406 125.601562 120.597656 125.363281 120.582031 125.128906 C 120.476562 123.550781 119.339844 122.992188 118.027344 123.921875 C 117.417969 124.355469 116.910156 124.9375 116.355469 125.449219 C 115.410156 126.320312 114.683594 126.316406 113.78125 125.394531 C 113.285156 124.890625 112.871094 124.300781 112.367188 123.808594 C 111.367188 122.828125 110.566406 122.644531 109.421875 123.246094 C 108.226562 123.871094 107.113281 124.667969 107.15625 126.222656 C 107.179688 127.101562 107.386719 127.976562 107.492188 128.722656 C 108.3125 129.0625 109.066406 129.25 109.6875 129.652344 C 111.5625 130.867188 111.914062 132.710938 111.589844 134.769531 C 111.503906 135.320312 111.375 135.867188 111.257812 136.453125 C 111.828125 136.726562 112.328125 136.964844 112.691406 137.136719 C 113.761719 136.398438 114.722656 135.734375 115.773438 135.007812 C 115.355469 133.0625 115.589844 131.160156 117.453125 129.828125 C 119.070312 128.671875 120.667969 129.027344 122.34375 130.167969 Z M 93.242188 162.230469 C 94.53125 161.347656 95.84375 160.449219 97.175781 159.539062 C 97.128906 159.425781 97.089844 159.292969 97.027344 159.175781 C 95.789062 156.933594 96.183594 155.796875 98.550781 154.734375 C 98.800781 154.621094 99.070312 154.46875 99.230469 154.261719 C 99.875 153.410156 99.785156 151.949219 99.007812 150.804688 C 98.40625 149.917969 97.53125 149.875 96.605469 150.175781 C 95.578125 150.507812 94.746094 150.230469 94.0625 149.429688 C 93.816406 149.140625 93.582031 148.84375 93.3125 148.574219 C 92.410156 147.664062 91.039062 147.695312 90.171875 148.632812 C 89.21875 149.660156 89.066406 151.566406 89.683594 152.859375 C 90.015625 153.5625 90.230469 154.367188 90.285156 155.144531 C 90.398438 156.683594 89.882812 158.109375 89.195312 159.402344 C 90.601562 160.382812 91.945312 161.324219 93.242188 162.230469 Z M 90.503906 132.304688 C 90.496094 130.410156 91.039062 128.761719 92.457031 127.453125 C 92.917969 127.023438 92.726562 126.308594 92.117188 126.105469 C 91.734375 125.976562 91.28125 125.988281 90.871094 126.035156 C 89.316406 126.21875 89.257812 126.203125 88.597656 124.8125 C 88.050781 123.660156 87.144531 123.496094 86.289062 124.449219 C 85.980469 124.789062 85.753906 125.238281 85.597656 125.675781 C 85.394531 126.25 85.300781 126.863281 85.144531 127.457031 C 84.859375 128.546875 84.09375 128.871094 83.105469 128.316406 C 82.773438 128.132812 82.476562 127.890625 82.140625 127.71875 C 81.058594 127.167969 79.996094 127.675781 79.8125 128.875 C 79.671875 129.789062 79.78125 130.695312 80.441406 131.410156 C 81.375 132.425781 81.96875 133.566406 81.898438 135.015625 C 83.496094 135.589844 84.316406 136.820312 84.78125 138.328125 C 84.90625 138.730469 84.894531 139.175781 85.019531 139.574219 C 85.074219 139.742188 85.3125 139.90625 85.496094 139.953125 C 85.597656 139.980469 85.84375 139.785156 85.886719 139.648438 C 85.980469 139.335938 85.984375 138.996094 86.039062 138.671875 C 86.222656 137.601562 86.320312 136.503906 86.625 135.46875 C 87.082031 133.910156 88.136719 132.878906 89.777344 132.527344 C 90.003906 132.480469 90.21875 132.394531 90.503906 132.304688 Z M 105.828125 123.777344 C 106.109375 123.453125 106.410156 123.148438 106.664062 122.8125 C 107.199219 122.109375 107.027344 121.601562 106.148438 121.371094 C 105.695312 121.253906 105.210938 121.261719 104.738281 121.203125 C 103.527344 121.0625 103.066406 120.484375 103.226562 119.296875 C 103.257812 119.0625 103.332031 118.835938 103.359375 118.597656 C 103.492188 117.441406 103.054688 116.804688 101.921875 116.535156 C 100.644531 116.226562 99.582031 116.6875 98.664062 117.53125 C 98.175781 117.976562 97.765625 118.507812 97.3125 118.988281 C 96.65625 119.6875 95.894531 119.875 94.992188 119.492188 C 94.382812 119.234375 93.761719 118.988281 93.125 118.8125 C 91.933594 118.480469 90.933594 118.902344 90.246094 119.863281 C 89.261719 121.238281 89.164062 122.113281 90.648438 123.753906 C 93.230469 123.859375 93.675781 124.132812 94.910156 126.234375 C 96.015625 126.671875 96.960938 127.046875 97.972656 127.445312 C 98.234375 126.800781 98.457031 126.128906 98.769531 125.5 C 100.125 122.789062 102.859375 122.019531 105.40625 123.609375 C 105.523438 123.679688 105.660156 123.710938 105.828125 123.777344 Z M 111.765625 154.519531 C 109.210938 153.179688 109.214844 153.125 108.730469 150.46875 C 108.589844 149.707031 108.25 148.921875 107.796875 148.296875 C 107.292969 147.597656 106.566406 147.792969 106.328125 148.625 C 106.15625 149.210938 106.136719 149.839844 106.007812 150.441406 C 105.695312 151.875 104.8125 152.546875 103.375 152.484375 C 102.191406 152.429688 102.167969 152.421875 101.769531 153.527344 C 101.246094 154.976562 100.746094 156.382812 98.945312 156.765625 C 98.285156 156.90625 98.207031 157.359375 98.582031 157.972656 C 99.066406 158.761719 99.75 159.105469 100.71875 159.078125 C 103.347656 159.007812 105.648438 159.875 107.578125 161.691406 C 107.777344 161.878906 107.996094 162.046875 108.203125 162.226562 C 109.234375 161.355469 110.203125 160.539062 111.273438 159.636719 C 110.285156 157.921875 110.125 156.179688 111.765625 154.519531 Z M 111.765625 154.519531 " fill-opacity="1" fill-rule="evenodd"/></g><g fill="#b8844f" fill-opacity="1"><g transform="translate(156.672225, 169.673591)"><g><path d="M 34.171875 -0.96875 C 34.085938 -0.832031 33.878906 -0.800781 33.546875 -0.875 C 33.210938 -0.945312 32.828125 -0.984375 32.390625 -0.984375 C 31.953125 -0.984375 31.328125 -0.894531 30.515625 -0.71875 C 29.710938 -0.539062 28.445312 -0.265625 26.71875 0.109375 C 25 0.492188 23.425781 0.6875 22 0.6875 C 18.78125 0.6875 15.660156 -0.0664062 12.640625 -1.578125 C 9.617188 -3.097656 7.203125 -5.25 5.390625 -8.03125 C 3.578125 -10.820312 2.671875 -14.054688 2.671875 -17.734375 C 2.671875 -21.410156 3.578125 -24.738281 5.390625 -27.71875 C 8.023438 -32.082031 12.003906 -34.925781 17.328125 -36.25 C 19.023438 -36.675781 20.71875 -36.890625 22.40625 -36.890625 C 24.726562 -36.890625 27.484375 -36.5 30.671875 -35.71875 C 31.628906 -35.476562 32.441406 -35.234375 33.109375 -34.984375 C 33.785156 -34.734375 34.195312 -34.609375 34.34375 -34.609375 L 35.109375 -34.8125 L 35.90625 -34.8125 C 36.101562 -34.8125 36.203125 -34.664062 36.203125 -34.375 L 36.203125 -26.46875 C 36.203125 -26.300781 36.046875 -26.21875 35.734375 -26.21875 C 35.429688 -26.21875 35.253906 -26.253906 35.203125 -26.328125 C 35.160156 -26.410156 35.113281 -26.503906 35.0625 -26.609375 C 35.007812 -26.722656 34.953125 -26.835938 34.890625 -26.953125 C 34.835938 -27.078125 34.78125 -27.1875 34.71875 -27.28125 C 34.65625 -27.382812 34.617188 -27.460938 34.609375 -27.515625 C 32.066406 -32.609375 28.210938 -35.15625 23.046875 -35.15625 C 18.390625 -35.15625 14.75 -33.671875 12.125 -30.703125 C 9.5 -27.742188 8.1875 -23.820312 8.1875 -18.9375 C 8.1875 -14.050781 9.628906 -9.851562 12.515625 -6.34375 C 15.398438 -2.84375 19.320312 -1.09375 24.28125 -1.09375 C 27 -1.09375 29.46875 -1.894531 31.6875 -3.5 C 33.914062 -5.113281 35.664062 -7.085938 36.9375 -9.421875 C 36.96875 -9.523438 37.070312 -9.578125 37.25 -9.578125 L 37.578125 -9.578125 C 37.742188 -9.578125 37.828125 -9.472656 37.828125 -9.265625 C 37.828125 -9.066406 37.773438 -8.875 37.671875 -8.6875 Z M 34.171875 -0.96875 "/></g></g></g><g fill="#b8844f" fill-opacity="1"><g transform="translate(196.76964, 169.673591)"><g><path d="M 6.40625 -31.75 C 6.40625 -33.789062 5.234375 -34.8125 2.890625 -34.8125 C 2.523438 -34.8125 2.34375 -34.878906 2.34375 -35.015625 L 2.34375 -35.625 C 2.34375 -35.757812 2.410156 -35.828125 2.546875 -35.828125 L 15.265625 -35.828125 C 15.398438 -35.828125 15.46875 -35.757812 15.46875 -35.625 L 15.46875 -35.015625 C 15.46875 -34.878906 15.09375 -34.8125 14.34375 -34.8125 C 13.601562 -34.8125 12.921875 -34.570312 12.296875 -34.09375 C 11.671875 -33.625 11.359375 -32.648438 11.359375 -31.171875 L 11.359375 -4.0625 C 11.359375 -2.03125 12.535156 -1.015625 14.890625 -1.015625 C 15.242188 -1.015625 15.421875 -0.945312 15.421875 -0.8125 L 15.421875 -0.203125 C 15.421875 -0.0664062 15.351562 0 15.21875 0 L 2.484375 0 C 2.347656 0 2.28125 -0.0664062 2.28125 -0.203125 L 2.28125 -0.8125 C 2.28125 -0.945312 2.648438 -1.015625 3.390625 -1.015625 C 4.140625 -1.015625 4.828125 -1.25 5.453125 -1.71875 C 6.085938 -2.195312 6.40625 -3.175781 6.40625 -4.65625 Z M 6.40625 -31.75 "/></g></g></g><g fill="#b8844f" fill-opacity="1"><g transform="translate(214.840393, 169.673591)"><g><path d="M 1.734375 0 C 1.597656 0 1.53125 -0.0664062 1.53125 -0.203125 L 1.53125 -0.8125 C 1.53125 -0.945312 1.613281 -1.015625 1.78125 -1.015625 L 2.359375 -1.015625 C 3.296875 -1.015625 3.929688 -1.097656 4.265625 -1.265625 C 5.515625 -1.878906 6.140625 -3.554688 6.140625 -6.296875 L 6.140625 -32.703125 C 6.140625 -33.835938 5.039062 -34.515625 2.84375 -34.734375 C 2.351562 -34.785156 2.007812 -34.8125 1.8125 -34.8125 C 1.625 -34.8125 1.53125 -34.878906 1.53125 -35.015625 L 1.53125 -35.625 C 1.53125 -35.757812 1.597656 -35.828125 1.734375 -35.828125 L 11.03125 -35.828125 L 35.140625 -9.171875 C 35.222656 -9.085938 35.28125 -9.023438 35.3125 -8.984375 C 35.34375 -8.941406 35.394531 -8.921875 35.46875 -8.921875 C 35.550781 -8.921875 35.59375 -8.992188 35.59375 -9.140625 L 35.59375 -26.65625 C 35.59375 -30.019531 35.3125 -32.21875 34.75 -33.25 C 34.195312 -34.289062 33.070312 -34.8125 31.375 -34.8125 L 30.078125 -34.8125 C 29.941406 -34.8125 29.875 -34.878906 29.875 -35.015625 L 29.875 -35.625 C 29.875 -35.757812 29.941406 -35.828125 30.078125 -35.828125 L 43.296875 -35.828125 C 43.429688 -35.828125 43.5 -35.757812 43.5 -35.625 L 43.5 -35.015625 C 43.5 -34.878906 43.25 -34.8125 42.75 -34.8125 C 42.25 -34.8125 41.425781 -34.519531 40.28125 -33.9375 C 39.132812 -33.363281 38.5625 -32.65625 38.5625 -31.8125 L 38.5625 -0.734375 C 38.5625 -0.359375 38.507812 -0.09375 38.40625 0.0625 C 38.3125 0.226562 38.070312 0.3125 37.6875 0.3125 C 37.3125 0.3125 37.03125 0.234375 36.84375 0.078125 C 36.65625 -0.078125 36.429688 -0.296875 36.171875 -0.578125 L 9.984375 -29.625 C 9.816406 -29.789062 9.664062 -29.875 9.53125 -29.875 C 9.445312 -29.875 9.40625 -29.789062 9.40625 -29.625 L 9.40625 -4.265625 C 9.40625 -2.722656 10.625 -1.707031 13.0625 -1.21875 C 13.738281 -1.082031 14.253906 -1.015625 14.609375 -1.015625 C 14.960938 -1.015625 15.140625 -0.945312 15.140625 -0.8125 L 15.140625 -0.203125 C 15.140625 -0.0664062 15.070312 0 14.9375 0 Z M 1.734375 0 "/></g></g></g><g fill="#b8844f" fill-opacity="1"><g transform="translate(259.536229, 169.673591)"><g><path d="M 0.171875 -0.203125 L 0.171875 -0.921875 C 0.171875 -1.054688 0.238281 -1.125 0.375 -1.125 L 0.9375 -1.125 C 1.644531 -1.164062 2.375 -1.191406 3.125 -1.203125 C 3.875 -1.210938 4.550781 -1.300781 5.15625 -1.46875 C 6.539062 -1.875 7.234375 -2.890625 7.234375 -4.515625 L 7.234375 -31.296875 C 7.234375 -32.972656 6.242188 -34.039062 4.265625 -34.5 C 3.710938 -34.613281 3.144531 -34.71875 2.5625 -34.8125 L 2.03125 -34.8125 C 1.894531 -34.8125 1.828125 -34.878906 1.828125 -35.015625 L 1.828125 -35.625 C 1.828125 -35.757812 1.894531 -35.828125 2.03125 -35.828125 L 26.1875 -35.828125 C 26.5 -35.828125 26.722656 -35.769531 26.859375 -35.65625 C 26.992188 -35.539062 27.078125 -35.300781 27.109375 -34.9375 L 27.5625 -27.5625 C 27.5625 -27.394531 27.429688 -27.3125 27.171875 -27.3125 C 26.921875 -27.3125 26.738281 -27.390625 26.625 -27.546875 C 26.519531 -27.710938 26.382812 -28.328125 26.21875 -29.390625 C 26.0625 -30.460938 25.769531 -31.351562 25.34375 -32.0625 C 24.925781 -32.769531 24.1875 -33.21875 23.125 -33.40625 L 12.53125 -33.40625 C 12.300781 -33.40625 12.1875 -33.296875 12.1875 -33.078125 L 12.1875 -19.9375 C 12.1875 -19.769531 12.273438 -19.6875 12.453125 -19.6875 L 21.234375 -19.6875 C 23.503906 -19.6875 24.640625 -21.007812 24.640625 -23.65625 C 24.640625 -23.789062 24.707031 -23.859375 24.84375 -23.859375 L 25.453125 -23.859375 C 25.585938 -23.859375 25.65625 -23.789062 25.65625 -23.65625 L 25.65625 -12.78125 C 25.65625 -12.644531 25.585938 -12.578125 25.453125 -12.578125 L 24.84375 -12.578125 C 24.707031 -12.578125 24.640625 -12.644531 24.640625 -12.78125 C 24.640625 -15.289062 23.910156 -16.738281 22.453125 -17.125 C 22.046875 -17.226562 21.613281 -17.28125 21.15625 -17.28125 L 12.453125 -17.28125 C 12.273438 -17.28125 12.1875 -17.191406 12.1875 -17.015625 L 12.1875 -4.65625 C 12.1875 -3.382812 12.773438 -2.660156 13.953125 -2.484375 C 14.285156 -2.429688 14.640625 -2.40625 15.015625 -2.40625 L 23.46875 -2.40625 C 25.21875 -2.40625 26.578125 -3.175781 27.546875 -4.71875 C 28.234375 -5.820312 28.65625 -7.085938 28.8125 -8.515625 C 28.863281 -8.984375 29.117188 -9.21875 29.578125 -9.21875 C 29.773438 -9.21875 29.875 -9.109375 29.875 -8.890625 L 29.03125 -0.359375 C 28.9375 -0.117188 28.820312 0 28.6875 0 L 0.375 0 C 0.238281 0 0.171875 -0.0664062 0.171875 -0.203125 Z M 0.171875 -0.203125 "/></g></g></g><g fill="#b8844f" fill-opacity="1"><g transform="translate(156.672225, 214.787425)"><g><path d="M 21.4375 -35.515625 C 21.613281 -35.515625 21.703125 -35.328125 21.703125 -34.953125 L 22.359375 -29.546875 C 22.421875 -29.203125 22.453125 -28.984375 22.453125 -28.890625 C 22.453125 -28.804688 22.320312 -28.765625 22.0625 -28.765625 C 21.800781 -28.765625 21.632812 -28.796875 21.5625 -28.859375 C 21.5 -28.929688 21.429688 -29.046875 21.359375 -29.203125 C 21.296875 -29.367188 21.21875 -29.550781 21.125 -29.75 C 21.03125 -29.957031 20.929688 -30.160156 20.828125 -30.359375 C 20.472656 -31.140625 19.914062 -31.910156 19.15625 -32.671875 C 17.289062 -34.460938 15.191406 -35.359375 12.859375 -35.359375 C 11.453125 -35.359375 10.117188 -34.898438 8.859375 -33.984375 C 7.609375 -33.078125 6.984375 -32 6.984375 -30.75 C 6.984375 -29.507812 7.21875 -28.429688 7.6875 -27.515625 C 8.15625 -26.597656 8.769531 -25.75 9.53125 -24.96875 C 10.289062 -24.195312 11.160156 -23.453125 12.140625 -22.734375 C 13.128906 -22.023438 14.128906 -21.304688 15.140625 -20.578125 C 17.835938 -18.703125 19.753906 -17.09375 20.890625 -15.75 C 22.660156 -13.6875 23.625 -11.367188 23.78125 -8.796875 C 23.78125 -5.910156 22.675781 -3.609375 20.46875 -1.890625 C 18.257812 -0.171875 15.6875 0.6875 12.75 0.6875 C 10.875 0.6875 9.378906 0.492188 8.265625 0.109375 C 7.160156 -0.265625 6.394531 -0.535156 5.96875 -0.703125 C 5.539062 -0.878906 5.226562 -0.96875 5.03125 -0.96875 C 4.84375 -0.96875 4.722656 -0.957031 4.671875 -0.9375 L 3.4375 -0.6875 C 3.207031 -0.6875 3.066406 -0.863281 3.015625 -1.21875 C 2.523438 -5.414062 2.28125 -7.644531 2.28125 -7.90625 C 2.28125 -8.175781 2.300781 -8.359375 2.34375 -8.453125 C 2.382812 -8.546875 2.5 -8.59375 2.6875 -8.59375 C 3.164062 -8.59375 3.597656 -7.914062 3.984375 -6.5625 C 5.765625 -2.75 8.722656 -0.84375 12.859375 -0.84375 C 14.753906 -0.84375 16.375 -1.414062 17.71875 -2.5625 C 19.0625 -3.71875 19.734375 -5.21875 19.734375 -7.0625 C 19.734375 -10.007812 17.972656 -12.753906 14.453125 -15.296875 C 13.453125 -16.003906 12.007812 -16.992188 10.125 -18.265625 C 8.25 -19.535156 6.753906 -20.804688 5.640625 -22.078125 C 3.890625 -24.046875 3.015625 -26.234375 3.015625 -28.640625 C 3.015625 -31.054688 3.976562 -33.035156 5.90625 -34.578125 C 7.832031 -36.117188 10.039062 -36.890625 12.53125 -36.890625 C 13.8125 -36.890625 15.226562 -36.664062 16.78125 -36.21875 C 18.332031 -35.78125 19.410156 -35.488281 20.015625 -35.34375 Z M 21.4375 -35.515625 "/></g></g></g><g fill="#b8844f" fill-opacity="1"><g transform="translate(182.738386, 214.787425)"><g><path d="M 0.171875 -0.203125 L 0.171875 -0.921875 C 0.171875 -1.054688 0.238281 -1.125 0.375 -1.125 L 0.9375 -1.125 C 1.644531 -1.164062 2.375 -1.191406 3.125 -1.203125 C 3.875 -1.210938 4.550781 -1.300781 5.15625 -1.46875 C 6.539062 -1.875 7.234375 -2.890625 7.234375 -4.515625 L 7.234375 -31.296875 C 7.234375 -32.972656 6.242188 -34.039062 4.265625 -34.5 C 3.710938 -34.613281 3.144531 -34.71875 2.5625 -34.8125 L 2.03125 -34.8125 C 1.894531 -34.8125 1.828125 -34.878906 1.828125 -35.015625 L 1.828125 -35.625 C 1.828125 -35.757812 1.894531 -35.828125 2.03125 -35.828125 L 26.1875 -35.828125 C 26.5 -35.828125 26.722656 -35.769531 26.859375 -35.65625 C 26.992188 -35.539062 27.078125 -35.300781 27.109375 -34.9375 L 27.5625 -27.5625 C 27.5625 -27.394531 27.429688 -27.3125 27.171875 -27.3125 C 26.921875 -27.3125 26.738281 -27.390625 26.625 -27.546875 C 26.519531 -27.710938 26.382812 -28.328125 26.21875 -29.390625 C 26.0625 -30.460938 25.769531 -31.351562 25.34375 -32.0625 C 24.925781 -32.769531 24.1875 -33.21875 23.125 -33.40625 L 12.53125 -33.40625 C 12.300781 -33.40625 12.1875 -33.296875 12.1875 -33.078125 L 12.1875 -19.9375 C 12.1875 -19.769531 12.273438 -19.6875 12.453125 -19.6875 L 21.234375 -19.6875 C 23.503906 -19.6875 24.640625 -21.007812 24.640625 -23.65625 C 24.640625 -23.789062 24.707031 -23.859375 24.84375 -23.859375 L 25.453125 -23.859375 C 25.585938 -23.859375 25.65625 -23.789062 25.65625 -23.65625 L 25.65625 -12.78125 C 25.65625 -12.644531 25.585938 -12.578125 25.453125 -12.578125 L 24.84375 -12.578125 C 24.707031 -12.578125 24.640625 -12.644531 24.640625 -12.78125 C 24.640625 -15.289062 23.910156 -16.738281 22.453125 -17.125 C 22.046875 -17.226562 21.613281 -17.28125 21.15625 -17.28125 L 12.453125 -17.28125 C 12.273438 -17.28125 12.1875 -17.191406 12.1875 -17.015625 L 12.1875 -4.65625 C 12.1875 -3.382812 12.773438 -2.660156 13.953125 -2.484375 C 14.285156 -2.429688 14.640625 -2.40625 15.015625 -2.40625 L 23.46875 -2.40625 C 25.21875 -2.40625 26.578125 -3.175781 27.546875 -4.71875 C 28.234375 -5.820312 28.65625 -7.085938 28.8125 -8.515625 C 28.863281 -8.984375 29.117188 -9.21875 29.578125 -9.21875 C 29.773438 -9.21875 29.875 -9.109375 29.875 -8.890625 L 29.03125 -0.359375 C 28.9375 -0.117188 28.820312 0 28.6875 0 L 0.375 0 C 0.238281 0 0.171875 -0.0664062 0.171875 -0.203125 Z M 0.171875 -0.203125 "/></g></g></g><g fill="#b8844f" fill-opacity="1"><g transform="translate(214.851084, 214.787425)"><g><path d="M 1.734375 0 C 1.597656 0 1.53125 -0.0664062 1.53125 -0.203125 L 1.53125 -0.8125 C 1.53125 -0.945312 1.613281 -1.015625 1.78125 -1.015625 L 2.359375 -1.015625 C 3.296875 -1.015625 3.929688 -1.097656 4.265625 -1.265625 C 5.515625 -1.878906 6.140625 -3.554688 6.140625 -6.296875 L 6.140625 -32.703125 C 6.140625 -33.835938 5.039062 -34.515625 2.84375 -34.734375 C 2.351562 -34.785156 2.007812 -34.8125 1.8125 -34.8125 C 1.625 -34.8125 1.53125 -34.878906 1.53125 -35.015625 L 1.53125 -35.625 C 1.53125 -35.757812 1.597656 -35.828125 1.734375 -35.828125 L 11.03125 -35.828125 L 35.140625 -9.171875 C 35.222656 -9.085938 35.28125 -9.023438 35.3125 -8.984375 C 35.34375 -8.941406 35.394531 -8.921875 35.46875 -8.921875 C 35.550781 -8.921875 35.59375 -8.992188 35.59375 -9.140625 L 35.59375 -26.65625 C 35.59375 -30.019531 35.3125 -32.21875 34.75 -33.25 C 34.195312 -34.289062 33.070312 -34.8125 31.375 -34.8125 L 30.078125 -34.8125 C 29.941406 -34.8125 29.875 -34.878906 29.875 -35.015625 L 29.875 -35.625 C 29.875 -35.757812 29.941406 -35.828125 30.078125 -35.828125 L 43.296875 -35.828125 C 43.429688 -35.828125 43.5 -35.757812 43.5 -35.625 L 43.5 -35.015625 C 43.5 -34.878906 43.25 -34.8125 42.75 -34.8125 C 42.25 -34.8125 41.425781 -34.519531 40.28125 -33.9375 C 39.132812 -33.363281 38.5625 -32.65625 38.5625 -31.8125 L 38.5625 -0.734375 C 38.5625 -0.359375 38.507812 -0.09375 38.40625 0.0625 C 38.3125 0.226562 38.070312 0.3125 37.6875 0.3125 C 37.3125 0.3125 37.03125 0.234375 36.84375 0.078125 C 36.65625 -0.078125 36.429688 -0.296875 36.171875 -0.578125 L 9.984375 -29.625 C 9.816406 -29.789062 9.664062 -29.875 9.53125 -29.875 C 9.445312 -29.875 9.40625 -29.789062 9.40625 -29.625 L 9.40625 -4.265625 C 9.40625 -2.722656 10.625 -1.707031 13.0625 -1.21875 C 13.738281 -1.082031 14.253906 -1.015625 14.609375 -1.015625 C 14.960938 -1.015625 15.140625 -0.945312 15.140625 -0.8125 L 15.140625 -0.203125 C 15.140625 -0.0664062 15.070312 0 14.9375 0 Z M 1.734375 0 "/></g></g></g><g fill="#b8844f" fill-opacity="1"><g transform="translate(259.234702, 214.787425)"><g><path d="M 13.515625 -0.203125 C 13.515625 -0.0664062 13.445312 0 13.3125 0 L 0.328125 0 C 0.191406 0 0.125 -0.0664062 0.125 -0.203125 L 0.125 -0.8125 C 0.125 -0.945312 0.234375 -1.015625 0.453125 -1.015625 C 2.773438 -1.117188 4.34375 -2.351562 5.15625 -4.71875 L 15.515625 -34.734375 C 15.535156 -34.765625 15.546875 -34.804688 15.546875 -34.859375 L 15.265625 -35.6875 C 15.265625 -35.78125 15.300781 -35.828125 15.375 -35.828125 L 20.453125 -35.828125 C 20.484375 -35.804688 20.53125 -35.785156 20.59375 -35.765625 C 20.65625 -35.753906 20.703125 -35.707031 20.734375 -35.625 L 31.484375 -5.46875 C 31.710938 -5.007812 31.898438 -4.59375 32.046875 -4.21875 C 32.191406 -3.84375 32.359375 -3.503906 32.546875 -3.203125 C 32.953125 -2.503906 33.617188 -1.96875 34.546875 -1.59375 C 35.328125 -1.207031 36.039062 -1.015625 36.6875 -1.015625 C 36.820312 -1.015625 36.890625 -0.9375 36.890625 -0.78125 L 36.890625 -0.203125 C 36.890625 -0.0664062 36.820312 0 36.6875 0 L 21.140625 0 C 21.003906 0 20.9375 -0.0664062 20.9375 -0.203125 L 20.9375 -0.8125 C 20.9375 -0.945312 21.25 -1.03125 21.875 -1.0625 C 22.5 -1.101562 23.015625 -1.140625 23.421875 -1.171875 C 25.773438 -1.421875 26.953125 -2.21875 26.953125 -3.5625 C 26.953125 -3.65625 26.9375 -3.769531 26.90625 -3.90625 L 23.0625 -14.734375 C 23.050781 -14.765625 23.019531 -14.84375 22.96875 -14.96875 C 22.757812 -15.539062 22.40625 -15.828125 21.90625 -15.828125 L 12.875 -15.828125 C 12.375 -15.828125 11.976562 -15.546875 11.6875 -14.984375 C 11.632812 -14.867188 11.609375 -14.800781 11.609375 -14.78125 L 7.796875 -3.640625 L 7.796875 -3.40625 C 7.796875 -2.96875 8.023438 -2.566406 8.484375 -2.203125 C 9.515625 -1.410156 10.90625 -1.015625 12.65625 -1.015625 L 13.3125 -1.015625 C 13.445312 -1.015625 13.515625 -0.945312 13.515625 -0.8125 Z M 21.03125 -18.640625 C 21.34375 -18.640625 21.5 -18.769531 21.5 -19.03125 C 21.5 -19.164062 21.460938 -19.316406 21.390625 -19.484375 L 17.609375 -29.90625 C 17.441406 -30.363281 17.3125 -30.59375 17.21875 -30.59375 C 17.132812 -30.59375 17 -30.351562 16.8125 -29.875 L 13.265625 -19.484375 C 13.191406 -19.316406 13.15625 -19.132812 13.15625 -18.9375 C 13.15625 -18.738281 13.285156 -18.640625 13.546875 -18.640625 Z M 21.03125 -18.640625 "/></g></g></g><g fill="#b8844f" fill-opacity="1"><g transform="translate(296.250692, 214.787425)"><g><path d="M 6.40625 -31.75 C 6.40625 -33.789062 5.234375 -34.8125 2.890625 -34.8125 C 2.523438 -34.8125 2.34375 -34.878906 2.34375 -35.015625 L 2.34375 -35.625 C 2.34375 -35.757812 2.410156 -35.828125 2.546875 -35.828125 L 15.265625 -35.828125 C 15.398438 -35.828125 15.46875 -35.757812 15.46875 -35.625 L 15.46875 -35.015625 C 15.46875 -34.878906 15.09375 -34.8125 14.34375 -34.8125 C 13.601562 -34.8125 12.921875 -34.570312 12.296875 -34.09375 C 11.671875 -33.625 11.359375 -32.648438 11.359375 -31.171875 L 11.359375 -4.0625 C 11.359375 -2.03125 12.535156 -1.015625 14.890625 -1.015625 C 15.242188 -1.015625 15.421875 -0.945312 15.421875 -0.8125 L 15.421875 -0.203125 C 15.421875 -0.0664062 15.351562 0 15.21875 0 L 2.484375 0 C 2.347656 0 2.28125 -0.0664062 2.28125 -0.203125 L 2.28125 -0.8125 C 2.28125 -0.945312 2.648438 -1.015625 3.390625 -1.015625 C 4.140625 -1.015625 4.828125 -1.25 5.453125 -1.71875 C 6.085938 -2.195312 6.40625 -3.175781 6.40625 -4.65625 Z M 6.40625 -31.75 "/></g></g></g><g fill="#b8844f" fill-opacity="1"><g transform="translate(145.912334, 241.463518)"><g><path d="M 0.96875 0.046875 C 0.875 0.046875 0.800781 0.015625 0.75 -0.046875 C 0.707031 -0.117188 0.6875 -0.203125 0.6875 -0.296875 C 0.695312 -0.453125 0.726562 -0.546875 0.78125 -0.578125 C 0.832031 -0.617188 0.929688 -0.640625 1.078125 -0.640625 C 1.378906 -0.640625 1.601562 -0.691406 1.75 -0.796875 C 1.90625 -0.910156 2 -1.046875 2.03125 -1.203125 C 2.070312 -1.367188 2.097656 -1.585938 2.109375 -1.859375 L 2.109375 -8.125 C 2.097656 -8.394531 2.070312 -8.609375 2.03125 -8.765625 C 2 -8.921875 1.90625 -9.054688 1.75 -9.171875 C 1.601562 -9.296875 1.378906 -9.359375 1.078125 -9.359375 L 0.984375 -9.359375 C 0.878906 -9.359375 0.804688 -9.375 0.765625 -9.40625 C 0.722656 -9.445312 0.695312 -9.539062 0.6875 -9.6875 C 0.6875 -9.78125 0.707031 -9.859375 0.75 -9.921875 C 0.800781 -9.992188 0.875 -10.03125 0.96875 -10.03125 C 1.65625 -10 2.28125 -9.984375 2.84375 -9.984375 L 5.578125 -9.984375 C 6.390625 -9.972656 7.066406 -9.84375 7.609375 -9.59375 C 8.148438 -9.351562 8.546875 -9.039062 8.796875 -8.65625 C 9.054688 -8.269531 9.1875 -7.851562 9.1875 -7.40625 C 9.1875 -6.820312 8.953125 -6.285156 8.484375 -5.796875 C 8.023438 -5.316406 7.398438 -4.972656 6.609375 -4.765625 L 6.890625 -4.34375 C 7.328125 -3.625 7.722656 -3.003906 8.078125 -2.484375 C 8.441406 -1.972656 8.835938 -1.5 9.265625 -1.0625 C 9.554688 -0.820312 9.867188 -0.679688 10.203125 -0.640625 C 10.222656 -0.640625 10.269531 -0.632812 10.34375 -0.625 C 10.425781 -0.625 10.488281 -0.59375 10.53125 -0.53125 C 10.582031 -0.476562 10.609375 -0.398438 10.609375 -0.296875 C 10.609375 -0.203125 10.582031 -0.117188 10.53125 -0.046875 C 10.488281 0.015625 10.414062 0.046875 10.3125 0.046875 L 9.90625 0.03125 C 9.445312 0.0078125 9.109375 0 8.890625 0 C 8.472656 -0.0820312 8.113281 -0.234375 7.8125 -0.453125 C 7.507812 -0.671875 7.210938 -0.976562 6.921875 -1.375 C 6.609375 -1.78125 6.179688 -2.4375 5.640625 -3.34375 L 5.34375 -3.796875 C 5.1875 -4.035156 5.035156 -4.203125 4.890625 -4.296875 C 4.742188 -4.390625 4.488281 -4.4375 4.125 -4.4375 L 3.671875 -4.4375 L 3.671875 -1.859375 C 3.679688 -1.585938 3.703125 -1.367188 3.734375 -1.203125 C 3.773438 -1.046875 3.867188 -0.910156 4.015625 -0.796875 C 4.160156 -0.691406 4.390625 -0.640625 4.703125 -0.640625 L 4.796875 -0.640625 C 4.890625 -0.640625 4.957031 -0.617188 5 -0.578125 C 5.050781 -0.535156 5.082031 -0.441406 5.09375 -0.296875 C 5.09375 -0.203125 5.066406 -0.117188 5.015625 -0.046875 C 4.972656 0.015625 4.90625 0.046875 4.8125 0.046875 C 4.132812 0.015625 3.472656 0 2.828125 0 C 2.273438 0 1.65625 0.015625 0.96875 0.046875 Z M 5.0625 -5.046875 C 6.632812 -5.046875 7.421875 -5.785156 7.421875 -7.265625 C 7.421875 -7.867188 7.210938 -8.375 6.796875 -8.78125 C 6.390625 -9.195312 5.71875 -9.40625 4.78125 -9.40625 C 4.476562 -9.40625 4.242188 -9.367188 4.078125 -9.296875 C 3.921875 -9.222656 3.8125 -9.09375 3.75 -8.90625 C 3.695312 -8.726562 3.671875 -8.457031 3.671875 -8.09375 L 3.671875 -5.046875 Z M 5.0625 -5.046875 "/></g></g></g><g fill="#b8844f" fill-opacity="1"><g transform="translate(159.9688, 241.463518)"><g><path d="M 4.359375 0.1875 C 3.566406 0.1875 2.890625 0.0195312 2.328125 -0.3125 C 1.773438 -0.65625 1.359375 -1.113281 1.078125 -1.6875 C 0.796875 -2.269531 0.65625 -2.914062 0.65625 -3.625 C 0.65625 -4.25 0.796875 -4.847656 1.078125 -5.421875 C 1.367188 -5.992188 1.785156 -6.457031 2.328125 -6.8125 C 2.867188 -7.175781 3.484375 -7.359375 4.171875 -7.359375 C 5.117188 -7.359375 5.84375 -7.117188 6.34375 -6.640625 C 6.851562 -6.160156 7.144531 -5.515625 7.21875 -4.703125 C 7.21875 -4.347656 7.117188 -4.109375 6.921875 -3.984375 C 6.734375 -3.859375 6.460938 -3.796875 6.109375 -3.796875 L 2.265625 -3.796875 C 2.265625 -2.816406 2.46875 -2.035156 2.875 -1.453125 C 3.28125 -0.878906 3.910156 -0.59375 4.765625 -0.59375 C 5.210938 -0.59375 5.59375 -0.691406 5.90625 -0.890625 C 6.226562 -1.085938 6.535156 -1.421875 6.828125 -1.890625 C 6.878906 -1.941406 6.929688 -1.96875 6.984375 -1.96875 C 7.054688 -1.96875 7.117188 -1.945312 7.171875 -1.90625 C 7.273438 -1.832031 7.328125 -1.734375 7.328125 -1.609375 C 7.328125 -1.546875 7.316406 -1.5 7.296875 -1.46875 C 6.972656 -0.945312 6.554688 -0.539062 6.046875 -0.25 C 5.546875 0.0390625 4.984375 0.1875 4.359375 0.1875 Z M 4.84375 -4.40625 C 5.382812 -4.40625 5.671875 -4.625 5.703125 -5.0625 C 5.703125 -5.550781 5.566406 -5.960938 5.296875 -6.296875 C 5.035156 -6.640625 4.660156 -6.8125 4.171875 -6.8125 C 3.640625 -6.8125 3.195312 -6.597656 2.84375 -6.171875 C 2.5 -5.742188 2.304688 -5.15625 2.265625 -4.40625 Z M 4.84375 -4.40625 "/></g></g></g><g fill="#b8844f" fill-opacity="1"><g transform="translate(171.350696, 241.463518)"><g><path d="M 4.09375 0.1875 C 3.019531 0.1875 2.175781 -0.15625 1.5625 -0.84375 C 0.957031 -1.53125 0.65625 -2.445312 0.65625 -3.59375 C 0.675781 -4.3125 0.847656 -4.953125 1.171875 -5.515625 C 1.503906 -6.078125 1.953125 -6.519531 2.515625 -6.84375 C 3.078125 -7.164062 3.695312 -7.335938 4.375 -7.359375 C 5.039062 -7.359375 5.617188 -7.226562 6.109375 -6.96875 C 6.609375 -6.71875 6.859375 -6.300781 6.859375 -5.71875 C 6.859375 -5.382812 6.757812 -5.09375 6.5625 -4.84375 C 6.363281 -4.601562 6.101562 -4.484375 5.78125 -4.484375 C 5.570312 -4.484375 5.394531 -4.535156 5.25 -4.640625 C 5.113281 -4.742188 5.046875 -4.832031 5.046875 -4.90625 C 5.046875 -4.914062 5.09375 -4.960938 5.1875 -5.046875 C 5.28125 -5.128906 5.367188 -5.234375 5.453125 -5.359375 C 5.535156 -5.484375 5.578125 -5.625 5.578125 -5.78125 C 5.578125 -6.101562 5.457031 -6.347656 5.21875 -6.515625 C 4.976562 -6.691406 4.691406 -6.78125 4.359375 -6.78125 C 3.546875 -6.78125 2.992188 -6.476562 2.703125 -5.875 C 2.410156 -5.28125 2.265625 -4.535156 2.265625 -3.640625 C 2.265625 -2.753906 2.460938 -2.023438 2.859375 -1.453125 C 3.265625 -0.878906 3.800781 -0.59375 4.46875 -0.59375 C 4.914062 -0.59375 5.300781 -0.691406 5.625 -0.890625 C 5.945312 -1.085938 6.238281 -1.382812 6.5 -1.78125 C 6.53125 -1.84375 6.582031 -1.875 6.65625 -1.875 C 6.71875 -1.875 6.78125 -1.851562 6.84375 -1.8125 C 6.894531 -1.789062 6.9375 -1.753906 6.96875 -1.703125 C 7 -1.648438 7.015625 -1.597656 7.015625 -1.546875 C 7.015625 -1.515625 7 -1.472656 6.96875 -1.421875 C 6.613281 -0.929688 6.175781 -0.539062 5.65625 -0.25 C 5.144531 0.0390625 4.625 0.1875 4.09375 0.1875 Z M 4.09375 0.1875 "/></g></g></g><g fill="#b8844f" fill-opacity="1"><g transform="translate(182.305301, 241.463518)"><g><path d="M 3.796875 0.1875 C 3.078125 0.1875 2.503906 -0.0234375 2.078125 -0.453125 C 1.660156 -0.890625 1.453125 -1.460938 1.453125 -2.171875 L 1.453125 -5.09375 C 1.453125 -5.375 1.441406 -5.578125 1.421875 -5.703125 C 1.410156 -5.828125 1.347656 -5.9375 1.234375 -6.03125 C 1.117188 -6.125 0.925781 -6.171875 0.65625 -6.171875 C 0.519531 -6.171875 0.421875 -6.1875 0.359375 -6.21875 C 0.296875 -6.257812 0.265625 -6.347656 0.265625 -6.484375 C 0.265625 -6.546875 0.285156 -6.609375 0.328125 -6.671875 C 0.367188 -6.734375 0.429688 -6.769531 0.515625 -6.78125 C 1.179688 -6.875 1.753906 -7.007812 2.234375 -7.1875 C 2.378906 -7.238281 2.5 -7.269531 2.59375 -7.28125 L 2.640625 -7.28125 C 2.804688 -7.28125 2.890625 -7.179688 2.890625 -6.984375 L 2.890625 -2.1875 C 2.890625 -1.695312 3.039062 -1.320312 3.34375 -1.0625 C 3.65625 -0.8125 4.015625 -0.6875 4.421875 -0.6875 C 4.910156 -0.6875 5.328125 -0.804688 5.671875 -1.046875 C 6.023438 -1.285156 6.257812 -1.523438 6.375 -1.765625 L 6.375 -5.09375 C 6.375 -5.375 6.363281 -5.578125 6.34375 -5.703125 C 6.332031 -5.828125 6.269531 -5.9375 6.15625 -6.03125 C 6.039062 -6.125 5.847656 -6.171875 5.578125 -6.171875 C 5.441406 -6.171875 5.34375 -6.1875 5.28125 -6.21875 C 5.21875 -6.257812 5.1875 -6.347656 5.1875 -6.484375 C 5.1875 -6.546875 5.207031 -6.609375 5.25 -6.671875 C 5.289062 -6.734375 5.351562 -6.769531 5.4375 -6.78125 C 6.101562 -6.875 6.675781 -7.007812 7.15625 -7.1875 C 7.300781 -7.238281 7.421875 -7.269531 7.515625 -7.28125 L 7.5625 -7.28125 C 7.726562 -7.28125 7.8125 -7.179688 7.8125 -6.984375 L 7.8125 -1.5 C 7.8125 -0.875 8.226562 -0.5625 9.0625 -0.5625 C 9.25 -0.5625 9.34375 -0.460938 9.34375 -0.265625 C 9.34375 -0.117188 9.25 -0.03125 9.0625 0 L 6.515625 0.171875 C 6.441406 0.171875 6.398438 0.144531 6.390625 0.09375 C 6.378906 0.0507812 6.375 -0.0234375 6.375 -0.140625 L 6.375 -1.03125 L 6.34375 -1.03125 C 6.039062 -0.738281 5.789062 -0.515625 5.59375 -0.359375 C 5.40625 -0.210938 5.160156 -0.0859375 4.859375 0.015625 C 4.566406 0.128906 4.210938 0.1875 3.796875 0.1875 Z M 3.796875 0.1875 "/></g></g></g><g fill="#b8844f" fill-opacity="1"><g transform="translate(195.174836, 241.463518)"><g><path d="M 3.453125 0.1875 C 2.609375 0.1875 1.921875 0.0390625 1.390625 -0.25 C 0.859375 -0.550781 0.59375 -0.96875 0.59375 -1.5 C 0.59375 -1.8125 0.6875 -2.0625 0.875 -2.25 C 1.0625 -2.4375 1.300781 -2.53125 1.59375 -2.53125 C 1.769531 -2.53125 1.921875 -2.484375 2.046875 -2.390625 C 2.179688 -2.296875 2.25 -2.222656 2.25 -2.171875 C 2.25 -2.160156 2.1875 -2.085938 2.0625 -1.953125 C 1.945312 -1.828125 1.890625 -1.648438 1.890625 -1.421875 C 1.890625 -1.109375 2.03125 -0.859375 2.3125 -0.671875 C 2.601562 -0.484375 3.023438 -0.390625 3.578125 -0.390625 C 4.078125 -0.390625 4.460938 -0.5 4.734375 -0.71875 C 5.015625 -0.9375 5.15625 -1.238281 5.15625 -1.625 C 5.15625 -1.894531 5.078125 -2.113281 4.921875 -2.28125 C 4.765625 -2.445312 4.566406 -2.578125 4.328125 -2.671875 C 4.085938 -2.765625 3.757812 -2.875 3.34375 -3 C 2.820312 -3.15625 2.394531 -3.304688 2.0625 -3.453125 C 1.738281 -3.597656 1.460938 -3.816406 1.234375 -4.109375 C 1.003906 -4.410156 0.890625 -4.796875 0.890625 -5.265625 C 0.890625 -5.710938 1.023438 -6.09375 1.296875 -6.40625 C 1.566406 -6.726562 1.921875 -6.96875 2.359375 -7.125 C 2.796875 -7.28125 3.257812 -7.359375 3.75 -7.359375 C 4.375 -7.359375 4.914062 -7.222656 5.375 -6.953125 C 5.832031 -6.691406 6.0625 -6.328125 6.0625 -5.859375 C 6.0625 -5.566406 5.972656 -5.320312 5.796875 -5.125 C 5.628906 -4.925781 5.398438 -4.828125 5.109375 -4.828125 C 4.941406 -4.828125 4.789062 -4.875 4.65625 -4.96875 C 4.53125 -5.0625 4.46875 -5.132812 4.46875 -5.1875 C 4.46875 -5.195312 4.507812 -5.238281 4.59375 -5.3125 C 4.675781 -5.382812 4.75 -5.472656 4.8125 -5.578125 C 4.882812 -5.679688 4.921875 -5.800781 4.921875 -5.9375 C 4.898438 -6.21875 4.753906 -6.4375 4.484375 -6.59375 C 4.222656 -6.757812 3.914062 -6.84375 3.5625 -6.84375 C 3.15625 -6.84375 2.800781 -6.75 2.5 -6.5625 C 2.207031 -6.375 2.0625 -6.117188 2.0625 -5.796875 C 2.0625 -5.492188 2.125 -5.253906 2.25 -5.078125 C 2.375 -4.910156 2.5625 -4.773438 2.8125 -4.671875 C 3.070312 -4.566406 3.472656 -4.421875 4.015625 -4.234375 C 4.578125 -4.054688 5.015625 -3.890625 5.328125 -3.734375 C 5.648438 -3.585938 5.898438 -3.382812 6.078125 -3.125 C 6.265625 -2.863281 6.359375 -2.523438 6.359375 -2.109375 C 6.359375 -1.671875 6.234375 -1.273438 5.984375 -0.921875 C 5.734375 -0.566406 5.382812 -0.289062 4.9375 -0.09375 C 4.5 0.09375 4.003906 0.1875 3.453125 0.1875 Z M 3.453125 0.1875 "/></g></g></g><g fill="#b8844f" fill-opacity="1"><g transform="translate(205.623011, 241.463518)"><g><path d="M 4.359375 0.1875 C 3.566406 0.1875 2.890625 0.0195312 2.328125 -0.3125 C 1.773438 -0.65625 1.359375 -1.113281 1.078125 -1.6875 C 0.796875 -2.269531 0.65625 -2.914062 0.65625 -3.625 C 0.65625 -4.25 0.796875 -4.847656 1.078125 -5.421875 C 1.367188 -5.992188 1.785156 -6.457031 2.328125 -6.8125 C 2.867188 -7.175781 3.484375 -7.359375 4.171875 -7.359375 C 5.117188 -7.359375 5.84375 -7.117188 6.34375 -6.640625 C 6.851562 -6.160156 7.144531 -5.515625 7.21875 -4.703125 C 7.21875 -4.347656 7.117188 -4.109375 6.921875 -3.984375 C 6.734375 -3.859375 6.460938 -3.796875 6.109375 -3.796875 L 2.265625 -3.796875 C 2.265625 -2.816406 2.46875 -2.035156 2.875 -1.453125 C 3.28125 -0.878906 3.910156 -0.59375 4.765625 -0.59375 C 5.210938 -0.59375 5.59375 -0.691406 5.90625 -0.890625 C 6.226562 -1.085938 6.535156 -1.421875 6.828125 -1.890625 C 6.878906 -1.941406 6.929688 -1.96875 6.984375 -1.96875 C 7.054688 -1.96875 7.117188 -1.945312 7.171875 -1.90625 C 7.273438 -1.832031 7.328125 -1.734375 7.328125 -1.609375 C 7.328125 -1.546875 7.316406 -1.5 7.296875 -1.46875 C 6.972656 -0.945312 6.554688 -0.539062 6.046875 -0.25 C 5.546875 0.0390625 4.984375 0.1875 4.359375 0.1875 Z M 4.84375 -4.40625 C 5.382812 -4.40625 5.671875 -4.625 5.703125 -5.0625 C 5.703125 -5.550781 5.566406 -5.960938 5.296875 -6.296875 C 5.035156 -6.640625 4.660156 -6.8125 4.171875 -6.8125 C 3.640625 -6.8125 3.195312 -6.597656 2.84375 -6.171875 C 2.5 -5.742188 2.304688 -5.15625 2.265625 -4.40625 Z M 4.84375 -4.40625 "/></g></g></g><g fill="#b8844f" fill-opacity="1"><g transform="translate(217.004909, 241.463518)"><g/></g></g><g fill="#b8844f" fill-opacity="1"><g transform="translate(223.971404, 241.463518)"><g><path d="M 0.78125 0.046875 C 0.707031 0.046875 0.644531 0.015625 0.59375 -0.046875 C 0.539062 -0.109375 0.515625 -0.179688 0.515625 -0.265625 C 0.523438 -0.398438 0.554688 -0.476562 0.609375 -0.5 C 0.671875 -0.53125 0.769531 -0.546875 0.90625 -0.546875 C 1.175781 -0.546875 1.367188 -0.59375 1.484375 -0.6875 C 1.597656 -0.789062 1.660156 -0.90625 1.671875 -1.03125 C 1.691406 -1.15625 1.703125 -1.351562 1.703125 -1.625 L 1.703125 -5.25 C 1.703125 -5.53125 1.691406 -5.734375 1.671875 -5.859375 C 1.660156 -5.984375 1.597656 -6.09375 1.484375 -6.1875 C 1.367188 -6.28125 1.175781 -6.328125 0.90625 -6.328125 C 0.78125 -6.328125 0.679688 -6.34375 0.609375 -6.375 C 0.546875 -6.414062 0.515625 -6.503906 0.515625 -6.640625 C 0.515625 -6.710938 0.535156 -6.773438 0.578125 -6.828125 C 0.628906 -6.890625 0.695312 -6.925781 0.78125 -6.9375 C 1.4375 -7.03125 2.003906 -7.164062 2.484375 -7.34375 C 2.628906 -7.394531 2.75 -7.425781 2.84375 -7.4375 L 2.890625 -7.4375 C 3.066406 -7.4375 3.15625 -7.335938 3.15625 -7.140625 L 3.15625 -1.625 C 3.15625 -1.351562 3.164062 -1.15625 3.1875 -1.03125 C 3.207031 -0.90625 3.273438 -0.789062 3.390625 -0.6875 C 3.503906 -0.59375 3.695312 -0.546875 3.96875 -0.546875 L 4.0625 -0.546875 C 4.144531 -0.546875 4.207031 -0.53125 4.25 -0.5 C 4.300781 -0.46875 4.332031 -0.390625 4.34375 -0.265625 C 4.34375 -0.179688 4.316406 -0.109375 4.265625 -0.046875 C 4.222656 0.015625 4.160156 0.046875 4.078125 0.046875 C 3.472656 0.015625 2.921875 0 2.421875 0 C 1.941406 0 1.394531 0.015625 0.78125 0.046875 Z M 2.328125 -9.203125 C 2.035156 -9.203125 1.789062 -9.289062 1.59375 -9.46875 C 1.394531 -9.65625 1.296875 -9.882812 1.296875 -10.15625 C 1.296875 -10.40625 1.414062 -10.625 1.65625 -10.8125 C 1.894531 -11 2.171875 -11.09375 2.484375 -11.09375 C 2.742188 -11.09375 2.957031 -11 3.125 -10.8125 C 3.289062 -10.632812 3.375 -10.398438 3.375 -10.109375 C 3.375 -9.859375 3.273438 -9.644531 3.078125 -9.46875 C 2.878906 -9.289062 2.628906 -9.203125 2.328125 -9.203125 Z M 2.328125 -9.203125 "/></g></g></g><g fill="#b8844f" fill-opacity="1"><g transform="translate(232.093181, 241.463518)"><g><path d="M 0.796875 0.046875 C 0.722656 0.046875 0.660156 0.015625 0.609375 -0.046875 C 0.554688 -0.109375 0.53125 -0.179688 0.53125 -0.265625 C 0.539062 -0.398438 0.570312 -0.476562 0.625 -0.5 C 0.675781 -0.53125 0.769531 -0.546875 0.90625 -0.546875 C 1.175781 -0.546875 1.367188 -0.59375 1.484375 -0.6875 C 1.597656 -0.789062 1.664062 -0.90625 1.6875 -1.03125 C 1.707031 -1.15625 1.71875 -1.351562 1.71875 -1.625 L 1.71875 -5.25 C 1.71875 -5.53125 1.707031 -5.734375 1.6875 -5.859375 C 1.675781 -5.984375 1.613281 -6.09375 1.5 -6.1875 C 1.382812 -6.28125 1.191406 -6.328125 0.921875 -6.328125 C 0.796875 -6.328125 0.695312 -6.34375 0.625 -6.375 C 0.5625 -6.414062 0.53125 -6.503906 0.53125 -6.640625 C 0.53125 -6.710938 0.550781 -6.773438 0.59375 -6.828125 C 0.644531 -6.890625 0.710938 -6.925781 0.796875 -6.9375 C 1.472656 -7.039062 2.035156 -7.175781 2.484375 -7.34375 C 2.660156 -7.394531 2.78125 -7.425781 2.84375 -7.4375 L 2.890625 -7.4375 C 3.066406 -7.4375 3.15625 -7.335938 3.15625 -7.140625 L 3.15625 -6.140625 L 3.203125 -6.140625 C 3.265625 -6.203125 3.421875 -6.359375 3.671875 -6.609375 C 3.921875 -6.859375 4.207031 -7.046875 4.53125 -7.171875 C 4.851562 -7.296875 5.222656 -7.359375 5.640625 -7.359375 C 6.140625 -7.359375 6.570312 -7.25 6.9375 -7.03125 C 7.3125 -6.820312 7.585938 -6.523438 7.765625 -6.140625 L 7.796875 -6.140625 C 8.210938 -6.535156 8.609375 -6.835938 8.984375 -7.046875 C 9.359375 -7.253906 9.84375 -7.359375 10.4375 -7.359375 C 11.144531 -7.359375 11.707031 -7.140625 12.125 -6.703125 C 12.550781 -6.273438 12.765625 -5.707031 12.765625 -5 L 12.765625 -1.625 C 12.765625 -1.351562 12.773438 -1.15625 12.796875 -1.03125 C 12.828125 -0.90625 12.898438 -0.789062 13.015625 -0.6875 C 13.128906 -0.59375 13.320312 -0.546875 13.59375 -0.546875 L 13.6875 -0.546875 C 13.769531 -0.546875 13.832031 -0.53125 13.875 -0.5 C 13.914062 -0.46875 13.941406 -0.390625 13.953125 -0.265625 C 13.953125 -0.179688 13.925781 -0.109375 13.875 -0.046875 C 13.832031 0.015625 13.773438 0.046875 13.703125 0.046875 C 13.097656 0.015625 12.546875 0 12.046875 0 C 11.566406 0 11.019531 0.015625 10.40625 0.046875 C 10.3125 0.046875 10.242188 0.015625 10.203125 -0.046875 C 10.160156 -0.109375 10.140625 -0.179688 10.140625 -0.265625 C 10.148438 -0.398438 10.175781 -0.476562 10.21875 -0.5 C 10.269531 -0.53125 10.367188 -0.546875 10.515625 -0.546875 C 10.785156 -0.546875 10.976562 -0.59375 11.09375 -0.6875 C 11.207031 -0.789062 11.273438 -0.90625 11.296875 -1.03125 C 11.316406 -1.15625 11.328125 -1.351562 11.328125 -1.625 L 11.328125 -4.984375 C 11.328125 -5.472656 11.175781 -5.84375 10.875 -6.09375 C 10.570312 -6.351562 10.21875 -6.484375 9.8125 -6.484375 C 9.320312 -6.484375 8.925781 -6.367188 8.625 -6.140625 C 8.320312 -5.910156 8.109375 -5.660156 7.984375 -5.390625 L 7.984375 -1.625 C 7.984375 -1.5625 7.976562 -1.421875 7.96875 -1.203125 C 7.96875 -0.984375 8.023438 -0.816406 8.140625 -0.703125 C 8.265625 -0.597656 8.460938 -0.546875 8.734375 -0.546875 L 8.828125 -0.546875 C 8.921875 -0.546875 8.984375 -0.53125 9.015625 -0.5 C 9.054688 -0.46875 9.082031 -0.390625 9.09375 -0.265625 C 9.09375 -0.179688 9.070312 -0.109375 9.03125 -0.046875 C 8.988281 0.015625 8.925781 0.046875 8.84375 0.046875 C 8.226562 0.015625 7.691406 0 7.234375 0 C 6.796875 0 6.269531 0.015625 5.65625 0.046875 C 5.570312 0.046875 5.503906 0.015625 5.453125 -0.046875 C 5.410156 -0.109375 5.390625 -0.179688 5.390625 -0.265625 C 5.398438 -0.398438 5.429688 -0.476562 5.484375 -0.5 C 5.535156 -0.53125 5.628906 -0.546875 5.765625 -0.546875 C 6.109375 -0.546875 6.320312 -0.617188 6.40625 -0.765625 C 6.488281 -0.910156 6.523438 -1.070312 6.515625 -1.25 C 6.515625 -1.4375 6.515625 -1.5625 6.515625 -1.625 L 6.515625 -4.984375 C 6.515625 -5.472656 6.363281 -5.84375 6.0625 -6.09375 C 5.769531 -6.351562 5.421875 -6.484375 5.015625 -6.484375 C 4.535156 -6.484375 4.140625 -6.367188 3.828125 -6.140625 C 3.523438 -5.910156 3.304688 -5.660156 3.171875 -5.390625 L 3.171875 -1.625 C 3.171875 -1.351562 3.179688 -1.15625 3.203125 -1.03125 C 3.222656 -0.90625 3.289062 -0.789062 3.40625 -0.6875 C 3.519531 -0.59375 3.710938 -0.546875 3.984375 -0.546875 L 4.078125 -0.546875 C 4.160156 -0.546875 4.222656 -0.53125 4.265625 -0.5 C 4.316406 -0.46875 4.347656 -0.390625 4.359375 -0.265625 C 4.359375 -0.179688 4.332031 -0.109375 4.28125 -0.046875 C 4.238281 0.015625 4.175781 0.046875 4.09375 0.046875 C 3.488281 0.015625 2.9375 0 2.4375 0 C 1.957031 0 1.410156 0.015625 0.796875 0.046875 Z M 0.796875 0.046875 "/></g></g></g><g fill="#b8844f" fill-opacity="1"><g transform="translate(249.71046, 241.463518)"><g><path d="M 0.78125 0.046875 C 0.707031 0.046875 0.644531 0.015625 0.59375 -0.046875 C 0.539062 -0.109375 0.515625 -0.179688 0.515625 -0.265625 C 0.523438 -0.398438 0.554688 -0.476562 0.609375 -0.5 C 0.671875 -0.53125 0.769531 -0.546875 0.90625 -0.546875 C 1.175781 -0.546875 1.367188 -0.59375 1.484375 -0.6875 C 1.597656 -0.789062 1.660156 -0.90625 1.671875 -1.03125 C 1.691406 -1.15625 1.703125 -1.351562 1.703125 -1.625 L 1.703125 -5.25 C 1.703125 -5.53125 1.691406 -5.734375 1.671875 -5.859375 C 1.660156 -5.984375 1.597656 -6.09375 1.484375 -6.1875 C 1.367188 -6.28125 1.175781 -6.328125 0.90625 -6.328125 C 0.78125 -6.328125 0.679688 -6.34375 0.609375 -6.375 C 0.546875 -6.414062 0.515625 -6.503906 0.515625 -6.640625 C 0.515625 -6.710938 0.535156 -6.773438 0.578125 -6.828125 C 0.628906 -6.890625 0.695312 -6.925781 0.78125 -6.9375 C 1.4375 -7.03125 2.003906 -7.164062 2.484375 -7.34375 C 2.628906 -7.394531 2.75 -7.425781 2.84375 -7.4375 L 2.890625 -7.4375 C 3.066406 -7.4375 3.15625 -7.335938 3.15625 -7.140625 L 3.15625 -1.625 C 3.15625 -1.351562 3.164062 -1.15625 3.1875 -1.03125 C 3.207031 -0.90625 3.273438 -0.789062 3.390625 -0.6875 C 3.503906 -0.59375 3.695312 -0.546875 3.96875 -0.546875 L 4.0625 -0.546875 C 4.144531 -0.546875 4.207031 -0.53125 4.25 -0.5 C 4.300781 -0.46875 4.332031 -0.390625 4.34375 -0.265625 C 4.34375 -0.179688 4.316406 -0.109375 4.265625 -0.046875 C 4.222656 0.015625 4.160156 0.046875 4.078125 0.046875 C 3.472656 0.015625 2.921875 0 2.421875 0 C 1.941406 0 1.394531 0.015625 0.78125 0.046875 Z M 2.328125 -9.203125 C 2.035156 -9.203125 1.789062 -9.289062 1.59375 -9.46875 C 1.394531 -9.65625 1.296875 -9.882812 1.296875 -10.15625 C 1.296875 -10.40625 1.414062 -10.625 1.65625 -10.8125 C 1.894531 -11 2.171875 -11.09375 2.484375 -11.09375 C 2.742188 -11.09375 2.957031 -11 3.125 -10.8125 C 3.289062 -10.632812 3.375 -10.398438 3.375 -10.109375 C 3.375 -9.859375 3.273438 -9.644531 3.078125 -9.46875 C 2.878906 -9.289062 2.628906 -9.203125 2.328125 -9.203125 Z M 2.328125 -9.203125 "/></g></g></g><g fill="#b8844f" fill-opacity="1"><g transform="translate(257.832238, 241.463518)"><g><path d="M 3.421875 0.265625 C 2.898438 0.265625 2.453125 0.078125 2.078125 -0.296875 C 1.710938 -0.679688 1.53125 -1.226562 1.53125 -1.9375 L 1.53125 -6.578125 L 0.625 -6.546875 C 0.550781 -6.546875 0.492188 -6.578125 0.453125 -6.640625 C 0.410156 -6.703125 0.390625 -6.769531 0.390625 -6.84375 C 0.390625 -6.9375 0.40625 -7.015625 0.4375 -7.078125 C 0.476562 -7.148438 0.539062 -7.191406 0.625 -7.203125 C 0.988281 -7.273438 1.269531 -7.390625 1.46875 -7.546875 C 1.675781 -7.710938 1.828125 -7.894531 1.921875 -8.09375 C 2.023438 -8.289062 2.144531 -8.585938 2.28125 -8.984375 C 2.332031 -9.128906 2.445312 -9.203125 2.625 -9.203125 C 2.695312 -9.203125 2.769531 -9.179688 2.84375 -9.140625 C 2.914062 -9.097656 2.953125 -9.039062 2.953125 -8.96875 L 2.84375 -7.171875 L 4.703125 -7.28125 L 4.734375 -7.28125 C 4.867188 -7.28125 4.9375 -7.179688 4.9375 -6.984375 C 4.9375 -6.867188 4.914062 -6.757812 4.875 -6.65625 C 4.84375 -6.550781 4.800781 -6.5 4.75 -6.5 L 2.96875 -6.546875 L 2.96875 -1.734375 C 2.96875 -1.390625 3.039062 -1.097656 3.1875 -0.859375 C 3.332031 -0.628906 3.566406 -0.515625 3.890625 -0.515625 C 4.222656 -0.515625 4.515625 -0.578125 4.765625 -0.703125 C 4.898438 -0.753906 4.984375 -0.78125 5.015625 -0.78125 C 5.085938 -0.78125 5.144531 -0.75 5.1875 -0.6875 C 5.226562 -0.625 5.269531 -0.546875 5.3125 -0.453125 C 5.320312 -0.429688 5.328125 -0.40625 5.328125 -0.375 C 5.328125 -0.332031 5.296875 -0.285156 5.234375 -0.234375 C 4.929688 -0.0351562 4.644531 0.09375 4.375 0.15625 C 4.101562 0.226562 3.785156 0.265625 3.421875 0.265625 Z M 3.421875 0.265625 "/></g></g></g><g fill="#b8844f" fill-opacity="1"><g transform="translate(267.267553, 241.463518)"><g><path d="M 2.65625 0.1875 C 2.019531 0.1875 1.503906 0.0078125 1.109375 -0.34375 C 0.722656 -0.707031 0.53125 -1.15625 0.53125 -1.6875 C 0.53125 -2.351562 0.753906 -2.851562 1.203125 -3.1875 C 1.648438 -3.519531 2.175781 -3.734375 2.78125 -3.828125 C 3.394531 -3.929688 4.1875 -4.007812 5.15625 -4.0625 L 5.15625 -5.3125 C 5.15625 -5.832031 5.023438 -6.226562 4.765625 -6.5 C 4.515625 -6.769531 4.101562 -6.90625 3.53125 -6.90625 C 3.195312 -6.90625 2.910156 -6.800781 2.671875 -6.59375 C 2.429688 -6.394531 2.3125 -6.128906 2.3125 -5.796875 C 2.3125 -5.628906 2.347656 -5.488281 2.421875 -5.375 C 2.503906 -5.257812 2.585938 -5.164062 2.671875 -5.09375 C 2.765625 -5.019531 2.8125 -4.976562 2.8125 -4.96875 C 2.8125 -4.90625 2.742188 -4.820312 2.609375 -4.71875 C 2.484375 -4.625 2.328125 -4.578125 2.140625 -4.578125 C 1.816406 -4.578125 1.5625 -4.691406 1.375 -4.921875 C 1.195312 -5.148438 1.109375 -5.425781 1.109375 -5.75 C 1.109375 -6.289062 1.351562 -6.691406 1.84375 -6.953125 C 2.332031 -7.222656 2.925781 -7.359375 3.625 -7.359375 C 4.488281 -7.359375 5.191406 -7.191406 5.734375 -6.859375 C 6.273438 -6.535156 6.546875 -5.929688 6.546875 -5.046875 L 6.546875 -1.359375 C 6.554688 -1.140625 6.625 -0.925781 6.75 -0.71875 C 6.882812 -0.519531 7.09375 -0.421875 7.375 -0.421875 C 7.457031 -0.421875 7.515625 -0.40625 7.546875 -0.375 C 7.585938 -0.34375 7.609375 -0.273438 7.609375 -0.171875 C 7.609375 -0.046875 7.507812 0.0390625 7.3125 0.09375 C 7.125 0.15625 6.9375 0.1875 6.75 0.1875 C 6.34375 0.1875 5.984375 0.0703125 5.671875 -0.15625 C 5.367188 -0.382812 5.195312 -0.695312 5.15625 -1.09375 C 4.9375 -0.675781 4.597656 -0.359375 4.140625 -0.140625 C 3.679688 0.078125 3.1875 0.1875 2.65625 0.1875 Z M 3.171875 -0.671875 C 3.523438 -0.671875 3.851562 -0.757812 4.15625 -0.9375 C 4.46875 -1.113281 4.710938 -1.359375 4.890625 -1.671875 C 5.066406 -1.984375 5.15625 -2.328125 5.15625 -2.703125 L 5.15625 -3.609375 C 4.050781 -3.523438 3.269531 -3.34375 2.8125 -3.0625 C 2.363281 -2.789062 2.140625 -2.347656 2.140625 -1.734375 C 2.140625 -1.023438 2.484375 -0.671875 3.171875 -0.671875 Z M 3.171875 -0.671875 "/></g></g></g><g fill="#b8844f" fill-opacity="1"><g transform="translate(278.633633, 241.463518)"><g><path d="M 2.453125 3.296875 C 2.359375 3.296875 2.28125 3.257812 2.21875 3.1875 C 2.164062 3.113281 2.140625 3.019531 2.140625 2.90625 C 2.140625 2.769531 2.164062 2.675781 2.21875 2.625 C 2.269531 2.582031 2.347656 2.5625 2.453125 2.5625 C 3.035156 2.5625 3.472656 2.53125 3.765625 2.46875 C 4.054688 2.40625 4.203125 2.25 4.203125 2 C 4.203125 1.832031 4.128906 1.71875 3.984375 1.65625 C 3.835938 1.59375 3.613281 1.546875 3.3125 1.515625 C 3.226562 1.503906 3.164062 1.476562 3.125 1.4375 C 3.082031 1.394531 3.0625 1.300781 3.0625 1.15625 L 3.0625 0.046875 C 2.300781 -0.148438 1.707031 -0.566406 1.28125 -1.203125 C 0.863281 -1.847656 0.65625 -2.644531 0.65625 -3.59375 C 0.675781 -4.3125 0.847656 -4.953125 1.171875 -5.515625 C 1.503906 -6.078125 1.953125 -6.519531 2.515625 -6.84375 C 3.078125 -7.164062 3.695312 -7.335938 4.375 -7.359375 C 4.882812 -7.359375 5.382812 -7.273438 5.875 -7.109375 C 6.363281 -6.941406 6.679688 -6.585938 6.828125 -6.046875 C 6.847656 -5.972656 6.859375 -5.863281 6.859375 -5.71875 C 6.859375 -5.382812 6.757812 -5.09375 6.5625 -4.84375 C 6.363281 -4.601562 6.101562 -4.484375 5.78125 -4.484375 C 5.570312 -4.484375 5.394531 -4.535156 5.25 -4.640625 C 5.113281 -4.742188 5.046875 -4.832031 5.046875 -4.90625 C 5.046875 -4.914062 5.09375 -4.960938 5.1875 -5.046875 C 5.28125 -5.128906 5.367188 -5.234375 5.453125 -5.359375 C 5.535156 -5.484375 5.578125 -5.625 5.578125 -5.78125 C 5.578125 -6.101562 5.457031 -6.347656 5.21875 -6.515625 C 4.976562 -6.691406 4.691406 -6.78125 4.359375 -6.78125 C 3.546875 -6.78125 2.992188 -6.476562 2.703125 -5.875 C 2.410156 -5.28125 2.265625 -4.535156 2.265625 -3.640625 C 2.265625 -2.753906 2.460938 -2.023438 2.859375 -1.453125 C 3.265625 -0.878906 3.800781 -0.59375 4.46875 -0.59375 C 4.914062 -0.59375 5.300781 -0.691406 5.625 -0.890625 C 5.945312 -1.085938 6.238281 -1.382812 6.5 -1.78125 C 6.53125 -1.84375 6.582031 -1.875 6.65625 -1.875 C 6.71875 -1.875 6.78125 -1.851562 6.84375 -1.8125 C 6.894531 -1.789062 6.9375 -1.753906 6.96875 -1.703125 C 7 -1.648438 7.015625 -1.597656 7.015625 -1.546875 C 7.015625 -1.515625 7 -1.472656 6.96875 -1.421875 C 6.613281 -0.929688 6.175781 -0.539062 5.65625 -0.25 C 5.144531 0.0390625 4.625 0.1875 4.09375 0.1875 C 3.96875 0.1875 3.878906 0.179688 3.828125 0.171875 L 3.828125 0.65625 C 4.265625 0.664062 4.628906 0.753906 4.921875 0.921875 C 5.210938 1.097656 5.359375 1.375 5.359375 1.75 C 5.359375 2.28125 5.097656 2.671875 4.578125 2.921875 C 4.066406 3.171875 3.359375 3.296875 2.453125 3.296875 Z M 2.453125 3.296875 "/></g></g></g><g fill="#b8844f" fill-opacity="1"><g transform="translate(289.588241, 241.463518)"><g><path d="M 4.34375 0.1875 C 3.625 0.1875 2.984375 0.015625 2.421875 -0.328125 C 1.859375 -0.671875 1.421875 -1.125 1.109375 -1.6875 C 0.804688 -2.25 0.65625 -2.847656 0.65625 -3.484375 C 0.65625 -4.273438 0.835938 -4.960938 1.203125 -5.546875 C 1.566406 -6.128906 2.035156 -6.578125 2.609375 -6.890625 C 3.179688 -7.203125 3.757812 -7.359375 4.34375 -7.359375 C 5.050781 -7.359375 5.6875 -7.1875 6.25 -6.84375 C 6.8125 -6.5 7.25 -6.046875 7.5625 -5.484375 C 7.875 -4.921875 8.03125 -4.320312 8.03125 -3.6875 C 8.03125 -2.894531 7.84375 -2.207031 7.46875 -1.625 C 7.09375 -1.039062 6.617188 -0.59375 6.046875 -0.28125 C 5.472656 0.03125 4.90625 0.1875 4.34375 0.1875 Z M 4.34375 -0.390625 C 5.050781 -0.390625 5.570312 -0.695312 5.90625 -1.3125 C 6.238281 -1.925781 6.40625 -2.71875 6.40625 -3.6875 C 6.40625 -4.59375 6.234375 -5.332031 5.890625 -5.90625 C 5.546875 -6.488281 5.03125 -6.78125 4.34375 -6.78125 C 3.613281 -6.78125 3.082031 -6.476562 2.75 -5.875 C 2.425781 -5.269531 2.265625 -4.484375 2.265625 -3.515625 C 2.265625 -2.609375 2.429688 -1.859375 2.765625 -1.265625 C 3.109375 -0.679688 3.632812 -0.390625 4.34375 -0.390625 Z M 5.046875 -8.875 C 4.828125 -8.882812 4.632812 -8.929688 4.46875 -9.015625 C 4.3125 -9.097656 4.125 -9.234375 3.90625 -9.421875 C 3.632812 -9.671875 3.40625 -9.796875 3.21875 -9.796875 C 3.082031 -9.796875 2.921875 -9.738281 2.734375 -9.625 C 2.554688 -9.519531 2.367188 -9.351562 2.171875 -9.125 C 2.109375 -9.039062 2.019531 -9 1.90625 -9 C 1.832031 -9 1.769531 -9.023438 1.71875 -9.078125 C 1.664062 -9.128906 1.640625 -9.203125 1.640625 -9.296875 C 1.640625 -9.347656 1.644531 -9.390625 1.65625 -9.421875 C 1.800781 -9.816406 2.023438 -10.15625 2.328125 -10.4375 C 2.640625 -10.71875 2.992188 -10.859375 3.390625 -10.859375 C 3.617188 -10.847656 3.8125 -10.800781 3.96875 -10.71875 C 4.125 -10.632812 4.3125 -10.5 4.53125 -10.3125 C 4.8125 -10.0625 5.039062 -9.9375 5.21875 -9.9375 C 5.351562 -9.9375 5.515625 -9.992188 5.703125 -10.109375 C 5.898438 -10.222656 6.085938 -10.390625 6.265625 -10.609375 C 6.347656 -10.691406 6.429688 -10.734375 6.515625 -10.734375 C 6.585938 -10.734375 6.648438 -10.703125 6.703125 -10.640625 C 6.765625 -10.585938 6.796875 -10.515625 6.796875 -10.421875 C 6.796875 -10.367188 6.78125 -10.3125 6.75 -10.25 C 6.59375 -9.863281 6.363281 -9.535156 6.0625 -9.265625 C 5.769531 -9.003906 5.429688 -8.875 5.046875 -8.875 Z M 5.046875 -8.875 "/></g></g></g><g fill="#b8844f" fill-opacity="1"><g transform="translate(301.698133, 241.463518)"><g><path d="M 4.359375 0.1875 C 3.566406 0.1875 2.890625 0.0195312 2.328125 -0.3125 C 1.773438 -0.65625 1.359375 -1.113281 1.078125 -1.6875 C 0.796875 -2.269531 0.65625 -2.914062 0.65625 -3.625 C 0.65625 -4.25 0.796875 -4.847656 1.078125 -5.421875 C 1.367188 -5.992188 1.785156 -6.457031 2.328125 -6.8125 C 2.867188 -7.175781 3.484375 -7.359375 4.171875 -7.359375 C 5.117188 -7.359375 5.84375 -7.117188 6.34375 -6.640625 C 6.851562 -6.160156 7.144531 -5.515625 7.21875 -4.703125 C 7.21875 -4.347656 7.117188 -4.109375 6.921875 -3.984375 C 6.734375 -3.859375 6.460938 -3.796875 6.109375 -3.796875 L 2.265625 -3.796875 C 2.265625 -2.816406 2.46875 -2.035156 2.875 -1.453125 C 3.28125 -0.878906 3.910156 -0.59375 4.765625 -0.59375 C 5.210938 -0.59375 5.59375 -0.691406 5.90625 -0.890625 C 6.226562 -1.085938 6.535156 -1.421875 6.828125 -1.890625 C 6.878906 -1.941406 6.929688 -1.96875 6.984375 -1.96875 C 7.054688 -1.96875 7.117188 -1.945312 7.171875 -1.90625 C 7.273438 -1.832031 7.328125 -1.734375 7.328125 -1.609375 C 7.328125 -1.546875 7.316406 -1.5 7.296875 -1.46875 C 6.972656 -0.945312 6.554688 -0.539062 6.046875 -0.25 C 5.546875 0.0390625 4.984375 0.1875 4.359375 0.1875 Z M 4.84375 -4.40625 C 5.382812 -4.40625 5.671875 -4.625 5.703125 -5.0625 C 5.703125 -5.550781 5.566406 -5.960938 5.296875 -6.296875 C 5.035156 -6.640625 4.660156 -6.8125 4.171875 -6.8125 C 3.640625 -6.8125 3.195312 -6.597656 2.84375 -6.171875 C 2.5 -5.742188 2.304688 -5.15625 2.265625 -4.40625 Z M 4.84375 -4.40625 "/></g></g></g><g fill="#b8844f" fill-opacity="1"><g transform="translate(313.080031, 241.463518)"><g><path d="M 3.453125 0.1875 C 2.609375 0.1875 1.921875 0.0390625 1.390625 -0.25 C 0.859375 -0.550781 0.59375 -0.96875 0.59375 -1.5 C 0.59375 -1.8125 0.6875 -2.0625 0.875 -2.25 C 1.0625 -2.4375 1.300781 -2.53125 1.59375 -2.53125 C 1.769531 -2.53125 1.921875 -2.484375 2.046875 -2.390625 C 2.179688 -2.296875 2.25 -2.222656 2.25 -2.171875 C 2.25 -2.160156 2.1875 -2.085938 2.0625 -1.953125 C 1.945312 -1.828125 1.890625 -1.648438 1.890625 -1.421875 C 1.890625 -1.109375 2.03125 -0.859375 2.3125 -0.671875 C 2.601562 -0.484375 3.023438 -0.390625 3.578125 -0.390625 C 4.078125 -0.390625 4.460938 -0.5 4.734375 -0.71875 C 5.015625 -0.9375 5.15625 -1.238281 5.15625 -1.625 C 5.15625 -1.894531 5.078125 -2.113281 4.921875 -2.28125 C 4.765625 -2.445312 4.566406 -2.578125 4.328125 -2.671875 C 4.085938 -2.765625 3.757812 -2.875 3.34375 -3 C 2.820312 -3.15625 2.394531 -3.304688 2.0625 -3.453125 C 1.738281 -3.597656 1.460938 -3.816406 1.234375 -4.109375 C 1.003906 -4.410156 0.890625 -4.796875 0.890625 -5.265625 C 0.890625 -5.710938 1.023438 -6.09375 1.296875 -6.40625 C 1.566406 -6.726562 1.921875 -6.96875 2.359375 -7.125 C 2.796875 -7.28125 3.257812 -7.359375 3.75 -7.359375 C 4.375 -7.359375 4.914062 -7.222656 5.375 -6.953125 C 5.832031 -6.691406 6.0625 -6.328125 6.0625 -5.859375 C 6.0625 -5.566406 5.972656 -5.320312 5.796875 -5.125 C 5.628906 -4.925781 5.398438 -4.828125 5.109375 -4.828125 C 4.941406 -4.828125 4.789062 -4.875 4.65625 -4.96875 C 4.53125 -5.0625 4.46875 -5.132812 4.46875 -5.1875 C 4.46875 -5.195312 4.507812 -5.238281 4.59375 -5.3125 C 4.675781 -5.382812 4.75 -5.472656 4.8125 -5.578125 C 4.882812 -5.679688 4.921875 -5.800781 4.921875 -5.9375 C 4.898438 -6.21875 4.753906 -6.4375 4.484375 -6.59375 C 4.222656 -6.757812 3.914062 -6.84375 3.5625 -6.84375 C 3.15625 -6.84375 2.800781 -6.75 2.5 -6.5625 C 2.207031 -6.375 2.0625 -6.117188 2.0625 -5.796875 C 2.0625 -5.492188 2.125 -5.253906 2.25 -5.078125 C 2.375 -4.910156 2.5625 -4.773438 2.8125 -4.671875 C 3.070312 -4.566406 3.472656 -4.421875 4.015625 -4.234375 C 4.578125 -4.054688 5.015625 -3.890625 5.328125 -3.734375 C 5.648438 -3.585938 5.898438 -3.382812 6.078125 -3.125 C 6.265625 -2.863281 6.359375 -2.523438 6.359375 -2.109375 C 6.359375 -1.671875 6.234375 -1.273438 5.984375 -0.921875 C 5.734375 -0.566406 5.382812 -0.289062 4.9375 -0.09375 C 4.5 0.09375 4.003906 0.1875 3.453125 0.1875 Z M 3.453125 0.1875 "/></g></g></g><g fill="#b8844f" fill-opacity="1"><g transform="translate(323.528206, 241.463518)"><g><path d="M 2.078125 -3.28125 C 1.992188 -3.28125 1.90625 -3.300781 1.8125 -3.34375 C 1.726562 -3.382812 1.6875 -3.4375 1.6875 -3.5 C 1.6875 -3.945312 1.617188 -4.742188 1.484375 -5.890625 C 1.421875 -6.421875 1.359375 -6.972656 1.296875 -7.546875 C 1.242188 -8.128906 1.21875 -8.617188 1.21875 -9.015625 C 1.21875 -10.253906 1.503906 -10.875 2.078125 -10.875 C 2.640625 -10.875 2.921875 -10.253906 2.921875 -9.015625 C 2.921875 -8.617188 2.890625 -8.128906 2.828125 -7.546875 C 2.773438 -6.972656 2.71875 -6.421875 2.65625 -5.890625 C 2.519531 -4.742188 2.453125 -3.945312 2.453125 -3.5 C 2.453125 -3.425781 2.414062 -3.367188 2.34375 -3.328125 C 2.269531 -3.296875 2.179688 -3.28125 2.078125 -3.28125 Z M 2.0625 0.1875 C 1.769531 0.1875 1.53125 0.09375 1.34375 -0.09375 C 1.15625 -0.28125 1.0625 -0.523438 1.0625 -0.828125 C 1.0625 -1.109375 1.15625 -1.34375 1.34375 -1.53125 C 1.539062 -1.71875 1.785156 -1.8125 2.078125 -1.8125 C 2.367188 -1.8125 2.609375 -1.71875 2.796875 -1.53125 C 2.992188 -1.34375 3.09375 -1.109375 3.09375 -0.828125 C 3.09375 -0.523438 2.992188 -0.28125 2.796875 -0.09375 C 2.609375 0.09375 2.363281 0.1875 2.0625 0.1875 Z M 2.0625 0.1875 "/></g></g></g><g clip-path="url(#e55ce4411c)"><path fill="#b8844f" d="M 145.902344 115.660156 C 139.820312 116.78125 138.914062 117.6875 137.792969 123.769531 C 136.675781 117.6875 135.769531 116.78125 129.6875 115.660156 C 135.769531 114.542969 136.675781 113.632812 137.792969 107.554688 C 138.914062 113.632812 139.820312 114.542969 145.902344 115.660156 Z M 145.902344 115.660156 " fill-opacity="1" fill-rule="nonzero"/></g><g clip-path="url(#2a48911d89)"><path fill="#b8844f" d="M 125.644531 101.292969 C 120.957031 102.15625 120.257812 102.855469 119.394531 107.542969 C 118.53125 102.855469 117.832031 102.15625 113.144531 101.292969 C 117.832031 100.429688 118.53125 99.730469 119.394531 95.039062 C 120.257812 99.730469 120.957031 100.429688 125.644531 101.292969 Z M 125.644531 101.292969 " fill-opacity="1" fill-rule="nonzero"/></g></svg>