<svg xmlns="http://www.w3.org/2000/svg" xmlns:xlink="http://www.w3.org/1999/xlink" width="150" zoomAndPan="magnify" viewBox="0 0 60 37.5" height="80" preserveAspectRatio="xMidYMid meet" version="1.0"><defs><g/><clipPath id="b2d105f9a1"><path d="M 2.171875 5.417969 L 19.195312 5.417969 L 19.195312 29.84375 L 2.171875 29.84375 Z M 2.171875 5.417969 " clip-rule="nonzero"/></clipPath><clipPath id="845c960937"><path d="M 15.796875 4.015625 L 19.496094 4.015625 L 19.496094 7.714844 L 15.796875 7.714844 Z M 15.796875 4.015625 " clip-rule="nonzero"/></clipPath><clipPath id="f2834c8460"><path d="M 12.316406 1.382812 L 15 1.382812 L 15 4.34375 L 12.316406 4.34375 Z M 12.316406 1.382812 " clip-rule="nonzero"/></clipPath></defs><g clip-path="url(#b2d105f9a1)"><path fill="#b8844f" d="M 2.789062 12.671875 C 2.667969 12.554688 2.558594 12.464844 2.464844 12.363281 C 2.253906 12.136719 2.171875 11.867188 2.214844 11.5625 C 2.253906 11.277344 2.40625 11.078125 2.691406 11 C 2.964844 10.917969 3.242188 10.925781 3.488281 10.984375 C 3.6875 10.753906 3.871094 10.539062 4.054688 10.332031 C 4.019531 10.140625 3.953125 9.925781 3.949219 9.714844 C 3.941406 9.269531 4.207031 9.023438 4.652344 9.023438 C 4.695312 9.023438 4.738281 9.023438 4.800781 9.023438 C 4.804688 8.945312 4.804688 8.878906 4.8125 8.8125 C 4.835938 8.648438 4.839844 8.480469 4.886719 8.324219 C 4.980469 8.019531 5.210938 7.871094 5.527344 7.894531 C 5.8125 7.917969 6.050781 8.035156 6.222656 8.265625 C 6.277344 8.335938 6.324219 8.410156 6.382812 8.496094 C 6.460938 8.484375 6.542969 8.46875 6.625 8.453125 C 6.65625 7.625 6.949219 7.359375 7.613281 7.542969 C 7.710938 7.375 7.785156 7.179688 7.917969 7.042969 C 8.042969 6.910156 8.234375 6.839844 8.421875 6.730469 C 8.628906 5.875 9.230469 5.699219 9.960938 6.019531 C 10.03125 5.9375 10.109375 5.84375 10.195312 5.761719 C 10.425781 5.539062 10.695312 5.417969 11.023438 5.4375 C 11.449219 5.460938 11.804688 5.792969 11.746094 6.203125 C 11.742188 6.226562 11.75 6.253906 11.753906 6.304688 C 12 6.359375 12.269531 6.402344 12.390625 6.703125 C 12.886719 6.527344 13.214844 6.785156 13.503906 7.152344 C 13.609375 7.066406 13.691406 6.992188 13.78125 6.921875 C 14.007812 6.742188 14.253906 6.664062 14.535156 6.792969 C 14.808594 6.914062 14.917969 7.136719 14.929688 7.421875 C 14.929688 7.457031 14.9375 7.488281 14.941406 7.507812 C 15.089844 7.589844 15.226562 7.667969 15.386719 7.753906 C 15.402344 7.75 15.441406 7.742188 15.484375 7.726562 C 16.085938 7.515625 16.605469 7.832031 16.671875 8.472656 C 16.695312 8.6875 16.660156 8.910156 16.640625 9.125 C 16.628906 9.261719 16.597656 9.398438 16.570312 9.554688 C 16.640625 9.5625 16.691406 9.570312 16.738281 9.566406 C 16.789062 9.5625 16.84375 9.554688 16.894531 9.546875 C 17.574219 9.429688 17.949219 9.894531 17.800781 10.566406 C 17.78125 10.644531 17.757812 10.714844 17.738281 10.800781 C 17.78125 10.816406 17.8125 10.835938 17.84375 10.839844 C 18.203125 10.886719 18.363281 11.125 18.449219 11.445312 C 18.53125 11.742188 18.476562 12.035156 18.421875 12.339844 C 18.535156 12.414062 18.644531 12.480469 18.75 12.554688 C 19.085938 12.796875 19.203125 13.128906 19.089844 13.523438 C 18.988281 13.863281 18.8125 14.148438 18.460938 14.285156 C 18.347656 14.328125 18.308594 14.402344 18.292969 14.519531 C 18.03125 16.269531 17.769531 18.015625 17.507812 19.765625 C 17.269531 21.339844 17.03125 22.914062 16.796875 24.492188 C 16.59375 25.832031 16.386719 27.171875 16.199219 28.515625 C 16.164062 28.757812 16.085938 28.9375 15.867188 29.039062 C 15.574219 29.171875 15.28125 29.3125 14.972656 29.410156 C 14.304688 29.621094 13.605469 29.710938 12.910156 29.777344 C 11.773438 29.890625 10.636719 29.902344 9.5 29.828125 C 8.578125 29.769531 7.664062 29.671875 6.777344 29.410156 C 6.445312 29.3125 6.128906 29.15625 5.808594 29.015625 C 5.636719 28.941406 5.566406 28.792969 5.535156 28.601562 C 5.078125 25.492188 4.609375 22.386719 4.144531 19.277344 C 3.90625 17.667969 3.660156 16.058594 3.417969 14.449219 C 3.390625 14.253906 3.335938 14.105469 3.128906 14.003906 C 2.683594 13.78125 2.53125 13.3125 2.714844 12.847656 C 2.738281 12.789062 2.761719 12.734375 2.789062 12.671875 Z M 14.210938 29.191406 C 14.226562 29.023438 14.238281 28.878906 14.25 28.730469 C 14.289062 28.207031 14.328125 27.683594 14.367188 27.160156 C 14.453125 26.058594 14.539062 24.960938 14.621094 23.863281 C 14.695312 22.902344 14.769531 21.941406 14.84375 20.980469 C 14.925781 19.882812 15.011719 18.78125 15.09375 17.683594 C 15.167969 16.722656 15.230469 15.761719 15.324219 14.804688 C 15.347656 14.566406 15.292969 14.417969 15.097656 14.304688 C 15.039062 14.269531 14.984375 14.226562 14.921875 14.191406 C 14.179688 13.757812 13.1875 13.878906 12.644531 14.457031 C 12.523438 14.585938 12.464844 14.722656 12.457031 14.902344 C 12.429688 15.953125 12.386719 17 12.347656 18.050781 C 12.269531 20.089844 12.1875 22.125 12.109375 24.164062 C 12.042969 25.871094 11.980469 27.578125 11.917969 29.28125 C 11.914062 29.332031 11.925781 29.382812 11.933594 29.453125 C 12.695312 29.417969 13.441406 29.347656 14.210938 29.191406 Z M 9.789062 29.445312 C 9.769531 29.039062 9.75 28.675781 9.738281 28.308594 C 9.648438 26.007812 9.558594 23.707031 9.472656 21.40625 C 9.394531 19.265625 9.308594 17.121094 9.242188 14.976562 C 9.234375 14.652344 9.105469 14.449219 8.847656 14.300781 C 8.71875 14.226562 8.582031 14.160156 8.441406 14.117188 C 7.78125 13.921875 7.164062 14.050781 6.566406 14.359375 C 6.398438 14.441406 6.351562 14.550781 6.367188 14.734375 C 6.480469 16.164062 6.585938 17.59375 6.699219 19.027344 C 6.828125 20.71875 6.964844 22.410156 7.09375 24.105469 C 7.210938 25.613281 7.320312 27.125 7.433594 28.632812 C 7.449219 28.8125 7.46875 28.992188 7.488281 29.179688 C 8.25 29.332031 8.992188 29.410156 9.789062 29.445312 Z M 11.507812 29.460938 C 11.523438 29.140625 11.539062 28.851562 11.550781 28.5625 C 11.597656 27.339844 11.636719 26.113281 11.683594 24.890625 C 11.761719 22.929688 11.839844 20.972656 11.917969 19.011719 C 11.96875 17.667969 12.015625 16.320312 12.074219 14.972656 C 12.085938 14.769531 12.023438 14.621094 11.878906 14.484375 C 11.300781 13.929688 10.367188 13.960938 9.800781 14.554688 C 9.675781 14.691406 9.613281 14.828125 9.621094 15.023438 C 9.683594 16.441406 9.730469 17.855469 9.789062 19.273438 C 9.851562 20.925781 9.921875 22.578125 9.984375 24.234375 C 10.046875 25.894531 10.105469 27.558594 10.167969 29.21875 C 10.167969 29.296875 10.179688 29.371094 10.1875 29.460938 C 10.632812 29.460938 11.058594 29.460938 11.507812 29.460938 Z M 14.621094 29.097656 C 14.992188 29.015625 15.3125 28.90625 15.613281 28.734375 C 15.726562 28.667969 15.792969 28.578125 15.808594 28.445312 C 15.835938 28.230469 15.871094 28.011719 15.902344 27.796875 C 16.140625 26.214844 16.378906 24.628906 16.617188 23.046875 C 16.816406 21.714844 17.015625 20.382812 17.214844 19.046875 C 17.445312 17.507812 17.679688 15.96875 17.914062 14.429688 C 17.933594 14.296875 17.902344 14.203125 17.792969 14.140625 C 17.675781 14.070312 17.554688 13.988281 17.421875 13.949219 C 16.933594 13.792969 16.472656 13.875 16.039062 14.140625 C 15.832031 14.265625 15.691406 14.425781 15.71875 14.691406 C 15.726562 14.761719 15.710938 14.832031 15.707031 14.902344 C 15.589844 16.402344 15.472656 17.902344 15.355469 19.402344 C 15.246094 20.871094 15.136719 22.335938 15.027344 23.804688 C 14.910156 25.304688 14.792969 26.804688 14.675781 28.304688 C 14.65625 28.558594 14.640625 28.808594 14.621094 29.097656 Z M 7.054688 29.070312 C 7.054688 28.96875 7.058594 28.890625 7.054688 28.816406 C 6.972656 27.726562 6.890625 26.632812 6.804688 25.542969 C 6.730469 24.558594 6.652344 23.570312 6.578125 22.582031 C 6.496094 21.511719 6.414062 20.4375 6.332031 19.363281 C 6.253906 18.359375 6.179688 17.355469 6.101562 16.351562 C 6.058594 15.765625 6.007812 15.183594 5.96875 14.597656 C 5.957031 14.371094 5.847656 14.21875 5.660156 14.113281 C 5.554688 14.058594 5.441406 14.003906 5.324219 13.964844 C 4.902344 13.824219 4.480469 13.847656 4.058594 13.976562 C 3.800781 14.054688 3.765625 14.117188 3.808594 14.398438 C 3.960938 15.410156 4.109375 16.421875 4.261719 17.433594 C 4.5 19.011719 4.734375 20.585938 4.972656 22.160156 C 5.207031 23.734375 5.445312 25.3125 5.683594 26.886719 C 5.757812 27.394531 5.832031 27.90625 5.910156 28.417969 C 5.929688 28.527344 5.929688 28.644531 6.050781 28.710938 C 6.359375 28.878906 6.6875 28.996094 7.054688 29.070312 Z M 17.082031 11.171875 C 17.320312 10.921875 17.453125 10.625 17.457031 10.277344 C 17.457031 10.027344 17.324219 9.910156 17.074219 9.921875 C 16.988281 9.925781 16.902344 9.945312 16.816406 9.957031 C 16.332031 10.03125 16.136719 9.839844 16.203125 9.359375 C 16.207031 9.308594 16.222656 9.257812 16.230469 9.203125 C 16.253906 9.03125 16.285156 8.859375 16.300781 8.683594 C 16.3125 8.523438 16.269531 8.371094 16.175781 8.238281 C 16.042969 8.046875 15.894531 8 15.675781 8.074219 C 15.421875 8.164062 15.292969 8.359375 15.1875 8.59375 C 15.011719 8.992188 14.941406 9.003906 14.621094 8.699219 C 14.476562 8.5625 14.355469 8.53125 14.222656 8.59375 C 14.078125 8.664062 13.984375 8.835938 14.007812 9.011719 C 14.019531 9.097656 14.0625 9.179688 14.074219 9.265625 C 14.082031 9.355469 14.09375 9.460938 14.058594 9.542969 C 14.011719 9.660156 13.898438 9.671875 13.773438 9.671875 C 13.53125 9.675781 13.355469 9.863281 13.375 10.066406 C 13.394531 10.257812 13.410156 10.445312 13.425781 10.636719 C 13.445312 10.863281 13.558594 10.929688 13.757812 10.832031 C 13.9375 10.742188 14.113281 10.640625 14.296875 10.5625 C 14.871094 10.316406 15.335938 10.585938 15.417969 11.207031 C 15.429688 11.292969 15.441406 11.378906 15.449219 11.464844 C 15.484375 11.472656 15.511719 11.480469 15.535156 11.480469 C 15.585938 11.480469 15.636719 11.472656 15.683594 11.464844 C 16.015625 10.882812 16.5 10.777344 17.082031 11.171875 Z M 4.808594 13.472656 C 4.78125 13.316406 4.75 13.1875 4.738281 13.058594 C 4.726562 12.917969 4.726562 12.777344 4.738281 12.640625 C 4.78125 12.238281 5.03125 12.03125 5.4375 12.0625 C 5.558594 12.070312 5.679688 12.097656 5.796875 12.132812 C 5.910156 12.164062 5.992188 12.128906 6.027344 12.023438 C 6.058594 11.933594 6.089844 11.835938 6.078125 11.746094 C 6.042969 11.496094 5.910156 11.289062 5.714844 11.128906 C 5.59375 11.03125 5.449219 11.003906 5.292969 11.054688 C 4.984375 11.152344 4.984375 11.152344 4.832031 10.839844 C 4.746094 10.667969 4.667969 10.625 4.472656 10.648438 C 4.21875 10.679688 4.007812 10.875 3.925781 11.152344 C 3.839844 11.457031 3.792969 11.480469 3.507812 11.378906 C 3.332031 11.3125 3.152344 11.285156 2.964844 11.320312 C 2.625 11.386719 2.507812 11.585938 2.636719 11.90625 C 2.667969 11.988281 2.71875 12.066406 2.78125 12.121094 C 2.90625 12.230469 3.039062 12.328125 3.175781 12.421875 C 3.316406 12.519531 3.339844 12.617188 3.234375 12.746094 C 3.214844 12.773438 3.183594 12.796875 3.160156 12.820312 C 2.902344 13.109375 2.960938 13.472656 3.292969 13.660156 C 3.390625 13.714844 3.488281 13.796875 3.609375 13.734375 C 3.976562 13.546875 4.371094 13.484375 4.808594 13.472656 Z M 7.054688 11.097656 C 7.058594 10.742188 7.179688 10.460938 7.472656 10.257812 C 7.53125 10.21875 7.558594 10.082031 7.542969 10.003906 C 7.503906 9.832031 7.433594 9.675781 7.21875 9.644531 C 7.050781 9.617188 7.007812 9.539062 6.992188 9.367188 C 6.988281 9.296875 7 9.226562 6.988281 9.15625 C 6.964844 8.945312 6.8125 8.832031 6.601562 8.867188 C 6.542969 8.875 6.488281 8.90625 6.433594 8.925781 C 6.265625 8.988281 6.167969 8.957031 6.078125 8.808594 C 6.039062 8.742188 6.011719 8.664062 5.972656 8.597656 C 5.898438 8.464844 5.796875 8.363281 5.644531 8.316406 C 5.398438 8.238281 5.269531 8.300781 5.226562 8.554688 C 5.203125 8.714844 5.214844 8.882812 5.210938 9.050781 C 5.207031 9.359375 5.101562 9.460938 4.792969 9.429688 C 4.757812 9.425781 4.726562 9.417969 4.691406 9.414062 C 4.429688 9.382812 4.316406 9.476562 4.3125 9.746094 C 4.3125 9.847656 4.324219 9.960938 4.367188 10.050781 C 4.40625 10.125 4.496094 10.21875 4.570312 10.222656 C 4.863281 10.25 5.046875 10.414062 5.191406 10.660156 C 5.765625 10.53125 6.078125 10.871094 6.332031 11.296875 C 6.664062 11.105469 6.664062 11.105469 7.054688 11.097656 Z M 11.609375 10.578125 C 11.671875 10.445312 11.726562 10.347656 11.769531 10.246094 C 11.871094 9.988281 12.007812 9.761719 12.269531 9.628906 C 12.3125 9.605469 12.359375 9.5625 12.371094 9.519531 C 12.421875 9.324219 12.480469 9.128906 12.488281 8.933594 C 12.5 8.707031 12.347656 8.566406 12.117188 8.535156 C 12.074219 8.527344 12.03125 8.527344 11.988281 8.519531 C 11.808594 8.488281 11.746094 8.425781 11.71875 8.25 C 11.707031 8.164062 11.71875 8.070312 11.699219 7.988281 C 11.660156 7.839844 11.625 7.679688 11.550781 7.546875 C 11.441406 7.359375 11.265625 7.335938 11.074219 7.441406 C 10.925781 7.527344 10.847656 7.65625 10.796875 7.8125 C 10.753906 7.933594 10.722656 8.0625 10.664062 8.179688 C 10.574219 8.367188 10.429688 8.40625 10.25 8.300781 C 10.160156 8.25 10.078125 8.183594 9.992188 8.125 C 9.878906 8.046875 9.761719 8.050781 9.644531 8.113281 C 9.335938 8.273438 9.253906 8.722656 9.480469 8.984375 C 9.550781 9.066406 9.605469 9.15625 9.660156 9.246094 C 9.71875 9.347656 9.765625 9.460938 9.824219 9.574219 C 9.917969 9.546875 9.992188 9.523438 10.066406 9.507812 C 10.605469 9.386719 10.980469 9.628906 11.082031 10.164062 C 11.089844 10.210938 11.109375 10.273438 11.144531 10.296875 C 11.285156 10.390625 11.4375 10.476562 11.609375 10.578125 Z M 6.230469 14.09375 C 6.3125 14.050781 6.363281 14.023438 6.417969 13.996094 C 6.933594 13.722656 7.476562 13.597656 8.0625 13.644531 C 8.3125 13.664062 8.386719 13.617188 8.472656 13.382812 C 8.503906 13.292969 8.523438 13.195312 8.539062 13.101562 C 8.585938 12.757812 8.34375 12.46875 7.992188 12.449219 C 7.902344 12.445312 7.816406 12.457031 7.730469 12.453125 C 7.527344 12.441406 7.425781 12.363281 7.367188 12.167969 C 7.339844 12.070312 7.328125 11.964844 7.300781 11.863281 C 7.242188 11.640625 7.078125 11.503906 6.875 11.492188 C 6.710938 11.484375 6.617188 11.578125 6.523438 11.824219 C 6.46875 11.96875 6.421875 12.121094 6.34375 12.257812 C 6.199219 12.515625 6.019531 12.585938 5.726562 12.519531 C 5.625 12.496094 5.523438 12.464844 5.421875 12.449219 C 5.230469 12.421875 5.140625 12.488281 5.113281 12.679688 C 5.078125 12.90625 5.09375 13.132812 5.171875 13.351562 C 5.210938 13.457031 5.269531 13.539062 5.382812 13.570312 C 5.710938 13.660156 5.996094 13.824219 6.230469 14.09375 Z M 11.441406 12.0625 C 11.46875 11.910156 11.484375 11.769531 11.523438 11.636719 C 11.65625 11.210938 12.117188 11.097656 12.4375 11.410156 C 12.621094 11.589844 12.703125 11.816406 12.734375 12.066406 C 12.773438 12.390625 12.796875 12.410156 13.144531 12.464844 C 13.132812 12.308594 13.199219 12.195312 13.324219 12.109375 C 13.5 11.996094 13.671875 11.875 13.855469 11.769531 C 14.113281 11.621094 14.382812 11.65625 14.601562 11.863281 C 14.675781 11.933594 14.738281 12.015625 14.816406 12.105469 C 14.976562 11.851562 15.105469 11.597656 15.0625 11.292969 C 15.007812 10.890625 14.785156 10.761719 14.421875 10.933594 C 14.222656 11.023438 14.035156 11.136719 13.835938 11.230469 C 13.578125 11.351562 13.304688 11.265625 13.148438 11.03125 C 13.058594 10.902344 13.046875 10.757812 13.039062 10.605469 C 13.03125 10.453125 13.019531 10.289062 12.96875 10.144531 C 12.886719 9.933594 12.707031 9.878906 12.496094 9.960938 C 12.355469 10.015625 12.261719 10.113281 12.199219 10.242188 C 12.144531 10.363281 12.101562 10.484375 12.042969 10.605469 C 11.882812 10.941406 11.621094 11.027344 11.289062 10.847656 C 11.164062 10.78125 11.050781 10.695312 10.925781 10.636719 C 10.859375 10.605469 10.765625 10.585938 10.703125 10.613281 C 10.417969 10.734375 10.335938 11.5 10.578125 11.691406 C 10.722656 11.808594 10.855469 11.941406 11.015625 12.082031 C 11.125 12.078125 11.269531 12.070312 11.441406 12.0625 Z M 10.664062 10.179688 C 10.636719 9.984375 10.574219 9.894531 10.40625 9.882812 C 10.277344 9.878906 10.144531 9.902344 10.019531 9.941406 C 9.710938 10.039062 9.605469 10.003906 9.453125 9.710938 C 9.390625 9.597656 9.34375 9.472656 9.273438 9.363281 C 9.117188 9.105469 8.804688 9.113281 8.667969 9.382812 C 8.617188 9.480469 8.597656 9.59375 8.574219 9.707031 C 8.550781 9.851562 8.542969 10 8.519531 10.148438 C 8.472656 10.476562 8.335938 10.585938 8.007812 10.558594 C 7.546875 10.527344 7.304688 10.84375 7.464844 11.28125 C 7.5625 11.539062 7.675781 11.792969 7.78125 12.046875 C 7.976562 12.0625 8.171875 12.082031 8.382812 12.101562 C 8.410156 12.007812 8.4375 11.90625 8.472656 11.808594 C 8.707031 11.152344 9.503906 11.097656 9.816406 11.535156 C 9.839844 11.5625 9.859375 11.601562 9.886719 11.613281 C 9.953125 11.636719 10.019531 11.644531 10.113281 11.664062 C 10.019531 11.039062 10.074219 10.5 10.664062 10.179688 Z M 16.480469 12.628906 C 16.210938 12.660156 16.105469 12.492188 16.039062 12.273438 C 16.011719 12.191406 15.972656 12.109375 15.925781 12.035156 C 15.832031 11.882812 15.6875 11.835938 15.519531 11.886719 C 15.382812 11.925781 15.296875 12.023438 15.246094 12.148438 C 15.191406 12.277344 15.148438 12.410156 15.09375 12.539062 C 15.050781 12.648438 14.984375 12.746094 14.851562 12.75 C 14.722656 12.753906 14.648438 12.664062 14.59375 12.558594 C 14.5625 12.496094 14.539062 12.429688 14.507812 12.367188 C 14.472656 12.296875 14.4375 12.222656 14.386719 12.164062 C 14.257812 12.007812 14.125 12.007812 13.96875 12.140625 C 13.878906 12.222656 13.765625 12.277344 13.675781 12.359375 C 13.621094 12.40625 13.550781 12.476562 13.550781 12.535156 C 13.566406 12.800781 13.4375 12.953125 13.226562 13.089844 C 12.988281 13.242188 12.980469 13.382812 13.171875 13.648438 C 14.007812 13.414062 14.785156 13.542969 15.460938 14.082031 C 15.648438 13.949219 15.800781 13.808594 15.980469 13.726562 C 16.359375 13.550781 16.582031 13.042969 16.480469 12.628906 Z M 18.253906 13.992188 C 18.574219 13.820312 18.75 13.5625 18.753906 13.277344 C 18.753906 12.992188 18.546875 12.875 18.335938 12.757812 C 18.015625 12.578125 17.996094 12.503906 18.046875 12.144531 C 18.078125 11.941406 18.074219 11.726562 18.058594 11.519531 C 18.046875 11.386719 17.976562 11.265625 17.824219 11.234375 C 17.671875 11.203125 17.550781 11.257812 17.453125 11.375 C 17.378906 11.460938 17.3125 11.554688 17.230469 11.628906 C 17.117188 11.730469 17.007812 11.71875 16.902344 11.617188 C 16.863281 11.582031 16.839844 11.535156 16.804688 11.496094 C 16.671875 11.339844 16.410156 11.289062 16.234375 11.382812 C 16.097656 11.457031 16.074219 11.558594 16.152344 11.683594 C 16.257812 11.851562 16.359375 12.023438 16.46875 12.210938 C 16.808594 12.3125 16.914062 12.453125 16.898438 12.832031 C 16.894531 12.976562 16.859375 13.125 16.832031 13.269531 C 16.820312 13.335938 16.804688 13.398438 16.785156 13.484375 C 17.359375 13.445312 17.839844 13.617188 18.253906 13.992188 Z M 14.855469 8.363281 C 14.925781 8.234375 14.984375 8.128906 15.058594 8 C 14.960938 7.96875 14.890625 7.941406 14.816406 7.925781 C 14.585938 7.867188 14.527344 7.796875 14.527344 7.5625 C 14.527344 7.519531 14.53125 7.472656 14.53125 7.429688 C 14.511719 7.140625 14.300781 7.035156 14.058594 7.207031 C 13.945312 7.289062 13.851562 7.394531 13.75 7.488281 C 13.574219 7.652344 13.441406 7.648438 13.273438 7.480469 C 13.183594 7.386719 13.105469 7.277344 13.011719 7.1875 C 12.828125 7.007812 12.679688 6.972656 12.46875 7.082031 C 12.25 7.199219 12.042969 7.347656 12.050781 7.632812 C 12.054688 7.796875 12.09375 7.957031 12.113281 8.09375 C 12.265625 8.15625 12.402344 8.191406 12.519531 8.265625 C 12.863281 8.492188 12.929688 8.832031 12.871094 9.210938 C 12.855469 9.3125 12.832031 9.414062 12.808594 9.523438 C 12.914062 9.574219 13.007812 9.617188 13.074219 9.648438 C 13.269531 9.511719 13.449219 9.390625 13.640625 9.253906 C 13.566406 8.894531 13.609375 8.542969 13.953125 8.296875 C 14.25 8.085938 14.546875 8.152344 14.855469 8.363281 Z M 9.480469 14.28125 C 9.71875 14.117188 9.960938 13.953125 10.207031 13.785156 C 10.199219 13.761719 10.191406 13.738281 10.179688 13.71875 C 9.953125 13.304688 10.023438 13.09375 10.460938 12.898438 C 10.507812 12.875 10.558594 12.847656 10.585938 12.808594 C 10.707031 12.652344 10.691406 12.382812 10.546875 12.171875 C 10.4375 12.007812 10.273438 12 10.101562 12.054688 C 9.914062 12.117188 9.761719 12.066406 9.632812 11.917969 C 9.589844 11.863281 9.542969 11.808594 9.496094 11.761719 C 9.328125 11.59375 9.074219 11.597656 8.914062 11.769531 C 8.738281 11.960938 8.710938 12.3125 8.824219 12.550781 C 8.886719 12.679688 8.925781 12.828125 8.9375 12.972656 C 8.957031 13.257812 8.863281 13.519531 8.734375 13.757812 C 8.996094 13.941406 9.242188 14.113281 9.480469 14.28125 Z M 8.976562 8.757812 C 8.976562 8.40625 9.074219 8.101562 9.335938 7.859375 C 9.421875 7.78125 9.386719 7.648438 9.273438 7.609375 C 9.203125 7.585938 9.121094 7.589844 9.042969 7.597656 C 8.757812 7.632812 8.746094 7.628906 8.625 7.371094 C 8.523438 7.160156 8.355469 7.128906 8.199219 7.304688 C 8.140625 7.367188 8.101562 7.453125 8.070312 7.53125 C 8.03125 7.636719 8.015625 7.75 7.988281 7.859375 C 7.933594 8.0625 7.792969 8.121094 7.609375 8.019531 C 7.550781 7.984375 7.496094 7.941406 7.433594 7.910156 C 7.234375 7.808594 7.035156 7.902344 7.003906 8.121094 C 6.976562 8.292969 6.996094 8.460938 7.117188 8.589844 C 7.292969 8.777344 7.402344 8.988281 7.386719 9.257812 C 7.683594 9.363281 7.832031 9.589844 7.917969 9.867188 C 7.941406 9.941406 7.941406 10.023438 7.964844 10.097656 C 7.972656 10.128906 8.019531 10.160156 8.050781 10.167969 C 8.070312 10.171875 8.117188 10.136719 8.125 10.113281 C 8.140625 10.054688 8.140625 9.992188 8.152344 9.929688 C 8.1875 9.734375 8.203125 9.53125 8.261719 9.339844 C 8.34375 9.050781 8.539062 8.863281 8.84375 8.796875 C 8.882812 8.789062 8.925781 8.773438 8.976562 8.757812 Z M 11.804688 7.179688 C 11.859375 7.121094 11.914062 7.066406 11.960938 7.003906 C 12.058594 6.875 12.027344 6.78125 11.863281 6.738281 C 11.78125 6.714844 11.691406 6.714844 11.605469 6.707031 C 11.382812 6.679688 11.296875 6.574219 11.324219 6.355469 C 11.332031 6.3125 11.34375 6.269531 11.351562 6.226562 C 11.375 6.011719 11.292969 5.894531 11.085938 5.84375 C 10.847656 5.789062 10.652344 5.871094 10.484375 6.027344 C 10.394531 6.109375 10.316406 6.207031 10.234375 6.296875 C 10.113281 6.425781 9.972656 6.460938 9.804688 6.390625 C 9.691406 6.34375 9.578125 6.296875 9.460938 6.265625 C 9.242188 6.203125 9.054688 6.28125 8.929688 6.457031 C 8.746094 6.710938 8.730469 6.875 9.003906 7.175781 C 9.480469 7.195312 9.5625 7.246094 9.789062 7.636719 C 9.992188 7.714844 10.167969 7.785156 10.355469 7.859375 C 10.402344 7.738281 10.445312 7.617188 10.503906 7.5 C 10.753906 7 11.257812 6.855469 11.726562 7.152344 C 11.75 7.164062 11.773438 7.167969 11.804688 7.179688 Z M 12.902344 12.859375 C 12.429688 12.609375 12.429688 12.601562 12.339844 12.109375 C 12.316406 11.96875 12.253906 11.824219 12.167969 11.707031 C 12.078125 11.578125 11.941406 11.617188 11.898438 11.769531 C 11.867188 11.878906 11.863281 11.992188 11.839844 12.105469 C 11.78125 12.367188 11.617188 12.492188 11.351562 12.480469 C 11.136719 12.472656 11.128906 12.46875 11.058594 12.675781 C 10.960938 12.941406 10.867188 13.203125 10.535156 13.273438 C 10.414062 13.296875 10.398438 13.382812 10.46875 13.496094 C 10.558594 13.640625 10.683594 13.703125 10.863281 13.699219 C 11.347656 13.6875 11.773438 13.847656 12.128906 14.183594 C 12.164062 14.214844 12.207031 14.246094 12.246094 14.28125 C 12.433594 14.121094 12.613281 13.96875 12.8125 13.800781 C 12.628906 13.484375 12.597656 13.164062 12.902344 12.859375 Z M 12.902344 12.859375 " fill-opacity="1" fill-rule="evenodd"/></g><g fill="#b8844f" fill-opacity="1"><g transform="translate(21.470143, 17.078011)"><g><path d="M 7.1875 -0.203125 C 7.164062 -0.171875 7.117188 -0.160156 7.046875 -0.171875 C 6.984375 -0.191406 6.90625 -0.203125 6.8125 -0.203125 C 6.71875 -0.203125 6.582031 -0.179688 6.40625 -0.140625 C 6.238281 -0.109375 5.972656 -0.0546875 5.609375 0.015625 C 5.253906 0.0976562 4.925781 0.140625 4.625 0.140625 C 3.945312 0.140625 3.289062 -0.015625 2.65625 -0.328125 C 2.019531 -0.648438 1.507812 -1.101562 1.125 -1.6875 C 0.75 -2.269531 0.5625 -2.945312 0.5625 -3.71875 C 0.5625 -4.5 0.75 -5.203125 1.125 -5.828125 C 1.6875 -6.742188 2.523438 -7.34375 3.640625 -7.625 C 3.992188 -7.707031 4.347656 -7.75 4.703125 -7.75 C 5.191406 -7.75 5.773438 -7.671875 6.453125 -7.515625 C 6.648438 -7.460938 6.816406 -7.410156 6.953125 -7.359375 C 7.097656 -7.304688 7.1875 -7.28125 7.21875 -7.28125 L 7.375 -7.3125 L 7.546875 -7.3125 C 7.585938 -7.3125 7.609375 -7.28125 7.609375 -7.21875 L 7.609375 -5.5625 C 7.609375 -5.53125 7.578125 -5.515625 7.515625 -5.515625 C 7.453125 -5.515625 7.414062 -5.519531 7.40625 -5.53125 C 7.394531 -5.550781 7.382812 -5.570312 7.375 -5.59375 C 7.363281 -5.613281 7.347656 -5.632812 7.328125 -5.65625 C 7.316406 -5.6875 7.304688 -5.710938 7.296875 -5.734375 C 7.285156 -5.753906 7.28125 -5.769531 7.28125 -5.78125 C 6.738281 -6.851562 5.925781 -7.390625 4.84375 -7.390625 C 3.863281 -7.390625 3.097656 -7.078125 2.546875 -6.453125 C 1.992188 -5.828125 1.71875 -5 1.71875 -3.96875 C 1.71875 -2.945312 2.019531 -2.066406 2.625 -1.328125 C 3.238281 -0.597656 4.066406 -0.234375 5.109375 -0.234375 C 5.671875 -0.234375 6.1875 -0.398438 6.65625 -0.734375 C 7.125 -1.078125 7.492188 -1.492188 7.765625 -1.984375 C 7.773438 -2.003906 7.796875 -2.015625 7.828125 -2.015625 L 7.90625 -2.015625 C 7.9375 -2.015625 7.953125 -1.992188 7.953125 -1.953125 C 7.953125 -1.910156 7.941406 -1.867188 7.921875 -1.828125 Z M 7.1875 -0.203125 "/></g></g></g><g fill="#b8844f" fill-opacity="1"><g transform="translate(29.902309, 17.078011)"><g><path d="M 1.34375 -6.671875 C 1.34375 -7.097656 1.097656 -7.3125 0.609375 -7.3125 C 0.523438 -7.3125 0.484375 -7.328125 0.484375 -7.359375 L 0.484375 -7.484375 C 0.484375 -7.515625 0.5 -7.53125 0.53125 -7.53125 L 3.203125 -7.53125 C 3.234375 -7.53125 3.25 -7.515625 3.25 -7.484375 L 3.25 -7.359375 C 3.25 -7.328125 3.171875 -7.3125 3.015625 -7.3125 C 2.859375 -7.3125 2.710938 -7.257812 2.578125 -7.15625 C 2.453125 -7.0625 2.390625 -6.859375 2.390625 -6.546875 L 2.390625 -0.859375 C 2.390625 -0.429688 2.632812 -0.21875 3.125 -0.21875 C 3.195312 -0.21875 3.234375 -0.203125 3.234375 -0.171875 L 3.234375 -0.046875 C 3.234375 -0.015625 3.222656 0 3.203125 0 L 0.515625 0 C 0.492188 0 0.484375 -0.015625 0.484375 -0.046875 L 0.484375 -0.171875 C 0.484375 -0.203125 0.5625 -0.21875 0.71875 -0.21875 C 0.875 -0.21875 1.015625 -0.265625 1.140625 -0.359375 C 1.273438 -0.460938 1.34375 -0.671875 1.34375 -0.984375 Z M 1.34375 -6.671875 "/></g></g></g><g fill="#b8844f" fill-opacity="1"><g transform="translate(33.702443, 17.078011)"><g><path d="M 0.359375 0 C 0.335938 0 0.328125 -0.015625 0.328125 -0.046875 L 0.328125 -0.171875 C 0.328125 -0.203125 0.34375 -0.21875 0.375 -0.21875 L 0.5 -0.21875 C 0.695312 -0.21875 0.828125 -0.234375 0.890625 -0.265625 C 1.160156 -0.390625 1.296875 -0.742188 1.296875 -1.328125 L 1.296875 -6.875 C 1.296875 -7.113281 1.0625 -7.253906 0.59375 -7.296875 C 0.488281 -7.304688 0.414062 -7.3125 0.375 -7.3125 C 0.34375 -7.3125 0.328125 -7.328125 0.328125 -7.359375 L 0.328125 -7.484375 C 0.328125 -7.515625 0.335938 -7.53125 0.359375 -7.53125 L 2.3125 -7.53125 L 7.390625 -1.921875 C 7.398438 -1.910156 7.410156 -1.898438 7.421875 -1.890625 C 7.429688 -1.878906 7.441406 -1.875 7.453125 -1.875 C 7.472656 -1.875 7.484375 -1.890625 7.484375 -1.921875 L 7.484375 -5.609375 C 7.484375 -6.316406 7.421875 -6.773438 7.296875 -6.984375 C 7.179688 -7.203125 6.945312 -7.3125 6.59375 -7.3125 L 6.328125 -7.3125 C 6.296875 -7.3125 6.28125 -7.328125 6.28125 -7.359375 L 6.28125 -7.484375 C 6.28125 -7.515625 6.296875 -7.53125 6.328125 -7.53125 L 9.09375 -7.53125 C 9.125 -7.53125 9.140625 -7.515625 9.140625 -7.484375 L 9.140625 -7.359375 C 9.140625 -7.328125 9.085938 -7.3125 8.984375 -7.3125 C 8.878906 -7.3125 8.707031 -7.25 8.46875 -7.125 C 8.226562 -7.007812 8.109375 -6.863281 8.109375 -6.6875 L 8.109375 -0.15625 C 8.109375 -0.0703125 8.097656 -0.015625 8.078125 0.015625 C 8.054688 0.046875 8.003906 0.0625 7.921875 0.0625 C 7.835938 0.0625 7.773438 0.046875 7.734375 0.015625 C 7.703125 -0.015625 7.660156 -0.0625 7.609375 -0.125 L 2.09375 -6.234375 C 2.0625 -6.265625 2.03125 -6.28125 2 -6.28125 C 1.976562 -6.28125 1.96875 -6.265625 1.96875 -6.234375 L 1.96875 -0.890625 C 1.96875 -0.566406 2.226562 -0.351562 2.75 -0.25 C 2.882812 -0.226562 2.988281 -0.21875 3.0625 -0.21875 C 3.144531 -0.21875 3.1875 -0.203125 3.1875 -0.171875 L 3.1875 -0.046875 C 3.1875 -0.015625 3.171875 0 3.140625 0 Z M 0.359375 0 "/></g></g></g><g fill="#b8844f" fill-opacity="1"><g transform="translate(43.10162, 17.078011)"><g><path d="M 0.03125 -0.046875 L 0.03125 -0.1875 C 0.03125 -0.21875 0.046875 -0.234375 0.078125 -0.234375 L 0.203125 -0.234375 C 0.347656 -0.242188 0.5 -0.25 0.65625 -0.25 C 0.8125 -0.25 0.953125 -0.269531 1.078125 -0.3125 C 1.367188 -0.394531 1.515625 -0.609375 1.515625 -0.953125 L 1.515625 -6.578125 C 1.515625 -6.929688 1.304688 -7.15625 0.890625 -7.25 C 0.773438 -7.28125 0.660156 -7.300781 0.546875 -7.3125 L 0.421875 -7.3125 C 0.398438 -7.3125 0.390625 -7.328125 0.390625 -7.359375 L 0.390625 -7.484375 C 0.390625 -7.515625 0.398438 -7.53125 0.421875 -7.53125 L 5.5 -7.53125 C 5.570312 -7.53125 5.617188 -7.515625 5.640625 -7.484375 C 5.671875 -7.460938 5.691406 -7.414062 5.703125 -7.34375 L 5.796875 -5.796875 C 5.796875 -5.753906 5.769531 -5.734375 5.71875 -5.734375 C 5.664062 -5.734375 5.625 -5.753906 5.59375 -5.796875 C 5.570312 -5.828125 5.546875 -5.953125 5.515625 -6.171875 C 5.484375 -6.398438 5.421875 -6.585938 5.328125 -6.734375 C 5.242188 -6.890625 5.085938 -6.984375 4.859375 -7.015625 L 2.640625 -7.015625 C 2.585938 -7.015625 2.5625 -6.992188 2.5625 -6.953125 L 2.5625 -4.1875 C 2.5625 -4.15625 2.578125 -4.140625 2.609375 -4.140625 L 4.46875 -4.140625 C 4.945312 -4.140625 5.1875 -4.414062 5.1875 -4.96875 C 5.1875 -5 5.195312 -5.015625 5.21875 -5.015625 L 5.34375 -5.015625 C 5.375 -5.015625 5.390625 -5 5.390625 -4.96875 L 5.390625 -2.6875 C 5.390625 -2.65625 5.375 -2.640625 5.34375 -2.640625 L 5.21875 -2.640625 C 5.195312 -2.640625 5.1875 -2.65625 5.1875 -2.6875 C 5.1875 -3.21875 5.03125 -3.519531 4.71875 -3.59375 C 4.632812 -3.613281 4.546875 -3.625 4.453125 -3.625 L 2.609375 -3.625 C 2.578125 -3.625 2.5625 -3.609375 2.5625 -3.578125 L 2.5625 -0.984375 C 2.5625 -0.710938 2.6875 -0.554688 2.9375 -0.515625 C 3 -0.503906 3.070312 -0.5 3.15625 -0.5 L 4.9375 -0.5 C 5.300781 -0.5 5.585938 -0.664062 5.796875 -1 C 5.941406 -1.226562 6.03125 -1.492188 6.0625 -1.796875 C 6.070312 -1.890625 6.125 -1.9375 6.21875 -1.9375 C 6.257812 -1.9375 6.28125 -1.914062 6.28125 -1.875 L 6.109375 -0.078125 C 6.085938 -0.0234375 6.0625 0 6.03125 0 L 0.078125 0 C 0.046875 0 0.03125 -0.015625 0.03125 -0.046875 Z M 0.03125 -0.046875 "/></g></g></g><g fill="#b8844f" fill-opacity="1"><g transform="translate(21.470143, 26.565089)"><g><path d="M 4.5 -7.46875 C 4.539062 -7.46875 4.5625 -7.425781 4.5625 -7.34375 L 4.703125 -6.21875 C 4.710938 -6.144531 4.71875 -6.097656 4.71875 -6.078125 C 4.71875 -6.054688 4.691406 -6.046875 4.640625 -6.046875 C 4.585938 -6.046875 4.550781 -6.050781 4.53125 -6.0625 C 4.519531 -6.082031 4.503906 -6.109375 4.484375 -6.140625 C 4.472656 -6.171875 4.457031 -6.207031 4.4375 -6.25 C 4.414062 -6.289062 4.394531 -6.332031 4.375 -6.375 C 4.300781 -6.539062 4.1875 -6.707031 4.03125 -6.875 C 3.632812 -7.25 3.191406 -7.4375 2.703125 -7.4375 C 2.410156 -7.4375 2.128906 -7.335938 1.859375 -7.140625 C 1.597656 -6.953125 1.46875 -6.726562 1.46875 -6.46875 C 1.46875 -6.207031 1.515625 -5.976562 1.609375 -5.78125 C 1.710938 -5.59375 1.84375 -5.414062 2 -5.25 C 2.164062 -5.082031 2.347656 -4.925781 2.546875 -4.78125 C 2.753906 -4.632812 2.96875 -4.484375 3.1875 -4.328125 C 3.75 -3.929688 4.148438 -3.59375 4.390625 -3.3125 C 4.765625 -2.875 4.96875 -2.382812 5 -1.84375 C 5 -1.238281 4.765625 -0.753906 4.296875 -0.390625 C 3.835938 -0.0351562 3.300781 0.140625 2.6875 0.140625 C 2.289062 0.140625 1.972656 0.0976562 1.734375 0.015625 C 1.503906 -0.0546875 1.34375 -0.109375 1.25 -0.140625 C 1.164062 -0.179688 1.101562 -0.203125 1.0625 -0.203125 C 1.019531 -0.203125 0.992188 -0.203125 0.984375 -0.203125 L 0.71875 -0.140625 C 0.675781 -0.140625 0.648438 -0.175781 0.640625 -0.25 C 0.535156 -1.132812 0.484375 -1.601562 0.484375 -1.65625 C 0.484375 -1.71875 0.484375 -1.757812 0.484375 -1.78125 C 0.492188 -1.800781 0.519531 -1.8125 0.5625 -1.8125 C 0.664062 -1.8125 0.757812 -1.664062 0.84375 -1.375 C 1.21875 -0.570312 1.835938 -0.171875 2.703125 -0.171875 C 3.097656 -0.171875 3.4375 -0.289062 3.71875 -0.53125 C 4.007812 -0.78125 4.15625 -1.097656 4.15625 -1.484375 C 4.15625 -2.097656 3.78125 -2.675781 3.03125 -3.21875 C 2.820312 -3.363281 2.519531 -3.566406 2.125 -3.828125 C 1.726562 -4.097656 1.414062 -4.367188 1.1875 -4.640625 C 0.820312 -5.054688 0.640625 -5.515625 0.640625 -6.015625 C 0.640625 -6.523438 0.835938 -6.941406 1.234375 -7.265625 C 1.640625 -7.585938 2.109375 -7.75 2.640625 -7.75 C 2.898438 -7.75 3.191406 -7.703125 3.515625 -7.609375 C 3.847656 -7.523438 4.078125 -7.460938 4.203125 -7.421875 Z M 4.5 -7.46875 "/></g></g></g><g fill="#b8844f" fill-opacity="1"><g transform="translate(26.951648, 26.565089)"><g><path d="M 0.03125 -0.046875 L 0.03125 -0.1875 C 0.03125 -0.21875 0.046875 -0.234375 0.078125 -0.234375 L 0.203125 -0.234375 C 0.347656 -0.242188 0.5 -0.25 0.65625 -0.25 C 0.8125 -0.25 0.953125 -0.269531 1.078125 -0.3125 C 1.367188 -0.394531 1.515625 -0.609375 1.515625 -0.953125 L 1.515625 -6.578125 C 1.515625 -6.929688 1.304688 -7.15625 0.890625 -7.25 C 0.773438 -7.28125 0.660156 -7.300781 0.546875 -7.3125 L 0.421875 -7.3125 C 0.398438 -7.3125 0.390625 -7.328125 0.390625 -7.359375 L 0.390625 -7.484375 C 0.390625 -7.515625 0.398438 -7.53125 0.421875 -7.53125 L 5.5 -7.53125 C 5.570312 -7.53125 5.617188 -7.515625 5.640625 -7.484375 C 5.671875 -7.460938 5.691406 -7.414062 5.703125 -7.34375 L 5.796875 -5.796875 C 5.796875 -5.753906 5.769531 -5.734375 5.71875 -5.734375 C 5.664062 -5.734375 5.625 -5.753906 5.59375 -5.796875 C 5.570312 -5.828125 5.546875 -5.953125 5.515625 -6.171875 C 5.484375 -6.398438 5.421875 -6.585938 5.328125 -6.734375 C 5.242188 -6.890625 5.085938 -6.984375 4.859375 -7.015625 L 2.640625 -7.015625 C 2.585938 -7.015625 2.5625 -6.992188 2.5625 -6.953125 L 2.5625 -4.1875 C 2.5625 -4.15625 2.578125 -4.140625 2.609375 -4.140625 L 4.46875 -4.140625 C 4.945312 -4.140625 5.1875 -4.414062 5.1875 -4.96875 C 5.1875 -5 5.195312 -5.015625 5.21875 -5.015625 L 5.34375 -5.015625 C 5.375 -5.015625 5.390625 -5 5.390625 -4.96875 L 5.390625 -2.6875 C 5.390625 -2.65625 5.375 -2.640625 5.34375 -2.640625 L 5.21875 -2.640625 C 5.195312 -2.640625 5.1875 -2.65625 5.1875 -2.6875 C 5.1875 -3.21875 5.03125 -3.519531 4.71875 -3.59375 C 4.632812 -3.613281 4.546875 -3.625 4.453125 -3.625 L 2.609375 -3.625 C 2.578125 -3.625 2.5625 -3.609375 2.5625 -3.578125 L 2.5625 -0.984375 C 2.5625 -0.710938 2.6875 -0.554688 2.9375 -0.515625 C 3 -0.503906 3.070312 -0.5 3.15625 -0.5 L 4.9375 -0.5 C 5.300781 -0.5 5.585938 -0.664062 5.796875 -1 C 5.941406 -1.226562 6.03125 -1.492188 6.0625 -1.796875 C 6.070312 -1.890625 6.125 -1.9375 6.21875 -1.9375 C 6.257812 -1.9375 6.28125 -1.914062 6.28125 -1.875 L 6.109375 -0.078125 C 6.085938 -0.0234375 6.0625 0 6.03125 0 L 0.078125 0 C 0.046875 0 0.03125 -0.015625 0.03125 -0.046875 Z M 0.03125 -0.046875 "/></g></g></g><g fill="#b8844f" fill-opacity="1"><g transform="translate(33.704692, 26.565089)"><g><path d="M 0.359375 0 C 0.335938 0 0.328125 -0.015625 0.328125 -0.046875 L 0.328125 -0.171875 C 0.328125 -0.203125 0.34375 -0.21875 0.375 -0.21875 L 0.5 -0.21875 C 0.695312 -0.21875 0.828125 -0.234375 0.890625 -0.265625 C 1.160156 -0.390625 1.296875 -0.742188 1.296875 -1.328125 L 1.296875 -6.875 C 1.296875 -7.113281 1.0625 -7.253906 0.59375 -7.296875 C 0.488281 -7.304688 0.414062 -7.3125 0.375 -7.3125 C 0.34375 -7.3125 0.328125 -7.328125 0.328125 -7.359375 L 0.328125 -7.484375 C 0.328125 -7.515625 0.335938 -7.53125 0.359375 -7.53125 L 2.3125 -7.53125 L 7.390625 -1.921875 C 7.398438 -1.910156 7.410156 -1.898438 7.421875 -1.890625 C 7.429688 -1.878906 7.441406 -1.875 7.453125 -1.875 C 7.472656 -1.875 7.484375 -1.890625 7.484375 -1.921875 L 7.484375 -5.609375 C 7.484375 -6.316406 7.421875 -6.773438 7.296875 -6.984375 C 7.179688 -7.203125 6.945312 -7.3125 6.59375 -7.3125 L 6.328125 -7.3125 C 6.296875 -7.3125 6.28125 -7.328125 6.28125 -7.359375 L 6.28125 -7.484375 C 6.28125 -7.515625 6.296875 -7.53125 6.328125 -7.53125 L 9.09375 -7.53125 C 9.125 -7.53125 9.140625 -7.515625 9.140625 -7.484375 L 9.140625 -7.359375 C 9.140625 -7.328125 9.085938 -7.3125 8.984375 -7.3125 C 8.878906 -7.3125 8.707031 -7.25 8.46875 -7.125 C 8.226562 -7.007812 8.109375 -6.863281 8.109375 -6.6875 L 8.109375 -0.15625 C 8.109375 -0.0703125 8.097656 -0.015625 8.078125 0.015625 C 8.054688 0.046875 8.003906 0.0625 7.921875 0.0625 C 7.835938 0.0625 7.773438 0.046875 7.734375 0.015625 C 7.703125 -0.015625 7.660156 -0.0625 7.609375 -0.125 L 2.09375 -6.234375 C 2.0625 -6.265625 2.03125 -6.28125 2 -6.28125 C 1.976562 -6.28125 1.96875 -6.265625 1.96875 -6.234375 L 1.96875 -0.890625 C 1.96875 -0.566406 2.226562 -0.351562 2.75 -0.25 C 2.882812 -0.226562 2.988281 -0.21875 3.0625 -0.21875 C 3.144531 -0.21875 3.1875 -0.203125 3.1875 -0.171875 L 3.1875 -0.046875 C 3.1875 -0.015625 3.171875 0 3.140625 0 Z M 0.359375 0 "/></g></g></g><g fill="#b8844f" fill-opacity="1"><g transform="translate(43.038211, 26.565089)"><g><path d="M 2.84375 -0.046875 C 2.84375 -0.015625 2.828125 0 2.796875 0 L 0.0625 0 C 0.0390625 0 0.03125 -0.015625 0.03125 -0.046875 L 0.03125 -0.171875 C 0.03125 -0.203125 0.0507812 -0.21875 0.09375 -0.21875 C 0.582031 -0.238281 0.910156 -0.5 1.078125 -1 L 3.265625 -7.296875 C 3.265625 -7.304688 3.265625 -7.316406 3.265625 -7.328125 L 3.203125 -7.5 C 3.203125 -7.519531 3.210938 -7.53125 3.234375 -7.53125 L 4.296875 -7.53125 C 4.304688 -7.53125 4.316406 -7.523438 4.328125 -7.515625 C 4.335938 -7.515625 4.347656 -7.503906 4.359375 -7.484375 L 6.609375 -1.140625 C 6.660156 -1.046875 6.703125 -0.957031 6.734375 -0.875 C 6.765625 -0.800781 6.800781 -0.734375 6.84375 -0.671875 C 6.925781 -0.523438 7.066406 -0.414062 7.265625 -0.34375 C 7.429688 -0.257812 7.582031 -0.21875 7.71875 -0.21875 C 7.738281 -0.21875 7.75 -0.203125 7.75 -0.171875 L 7.75 -0.046875 C 7.75 -0.015625 7.738281 0 7.71875 0 L 4.4375 0 C 4.414062 0 4.40625 -0.015625 4.40625 -0.046875 L 4.40625 -0.171875 C 4.40625 -0.203125 4.46875 -0.21875 4.59375 -0.21875 C 4.726562 -0.226562 4.835938 -0.238281 4.921875 -0.25 C 5.421875 -0.300781 5.671875 -0.46875 5.671875 -0.75 C 5.671875 -0.769531 5.664062 -0.796875 5.65625 -0.828125 L 4.84375 -3.09375 C 4.84375 -3.101562 4.835938 -3.117188 4.828125 -3.140625 C 4.785156 -3.265625 4.710938 -3.328125 4.609375 -3.328125 L 2.703125 -3.328125 C 2.597656 -3.328125 2.515625 -3.269531 2.453125 -3.15625 C 2.441406 -3.125 2.4375 -3.109375 2.4375 -3.109375 L 1.640625 -0.765625 L 1.640625 -0.71875 C 1.640625 -0.625 1.6875 -0.539062 1.78125 -0.46875 C 2 -0.300781 2.289062 -0.21875 2.65625 -0.21875 L 2.796875 -0.21875 C 2.828125 -0.21875 2.84375 -0.203125 2.84375 -0.171875 Z M 4.421875 -3.921875 C 4.484375 -3.921875 4.515625 -3.945312 4.515625 -4 C 4.515625 -4.03125 4.507812 -4.0625 4.5 -4.09375 L 3.703125 -6.28125 C 3.660156 -6.382812 3.632812 -6.4375 3.625 -6.4375 C 3.601562 -6.4375 3.570312 -6.382812 3.53125 -6.28125 L 2.78125 -4.09375 C 2.769531 -4.0625 2.765625 -4.023438 2.765625 -3.984375 C 2.765625 -3.941406 2.789062 -3.921875 2.84375 -3.921875 Z M 4.421875 -3.921875 "/></g></g></g><g fill="#b8844f" fill-opacity="1"><g transform="translate(50.822377, 26.565089)"><g><path d="M 1.34375 -6.671875 C 1.34375 -7.097656 1.097656 -7.3125 0.609375 -7.3125 C 0.523438 -7.3125 0.484375 -7.328125 0.484375 -7.359375 L 0.484375 -7.484375 C 0.484375 -7.515625 0.5 -7.53125 0.53125 -7.53125 L 3.203125 -7.53125 C 3.234375 -7.53125 3.25 -7.515625 3.25 -7.484375 L 3.25 -7.359375 C 3.25 -7.328125 3.171875 -7.3125 3.015625 -7.3125 C 2.859375 -7.3125 2.710938 -7.257812 2.578125 -7.15625 C 2.453125 -7.0625 2.390625 -6.859375 2.390625 -6.546875 L 2.390625 -0.859375 C 2.390625 -0.429688 2.632812 -0.21875 3.125 -0.21875 C 3.195312 -0.21875 3.234375 -0.203125 3.234375 -0.171875 L 3.234375 -0.046875 C 3.234375 -0.015625 3.222656 0 3.203125 0 L 0.515625 0 C 0.492188 0 0.484375 -0.015625 0.484375 -0.046875 L 0.484375 -0.171875 C 0.484375 -0.203125 0.5625 -0.21875 0.71875 -0.21875 C 0.875 -0.21875 1.015625 -0.265625 1.140625 -0.359375 C 1.273438 -0.460938 1.34375 -0.671875 1.34375 -0.984375 Z M 1.34375 -6.671875 "/></g></g></g><g fill="#b8844f" fill-opacity="1"><g transform="translate(19.207426, 32.174858)"><g><path d="M 0.203125 0.015625 C 0.179688 0.015625 0.164062 0.0078125 0.15625 0 C 0.144531 -0.0195312 0.140625 -0.0390625 0.140625 -0.0625 C 0.140625 -0.09375 0.144531 -0.113281 0.15625 -0.125 C 0.175781 -0.132812 0.195312 -0.140625 0.21875 -0.140625 C 0.289062 -0.140625 0.34375 -0.148438 0.375 -0.171875 C 0.40625 -0.191406 0.421875 -0.21875 0.421875 -0.25 C 0.429688 -0.289062 0.4375 -0.335938 0.4375 -0.390625 L 0.4375 -1.703125 C 0.4375 -1.765625 0.429688 -1.8125 0.421875 -1.84375 C 0.421875 -1.875 0.40625 -1.898438 0.375 -1.921875 C 0.34375 -1.953125 0.289062 -1.96875 0.21875 -1.96875 L 0.203125 -1.96875 C 0.179688 -1.96875 0.164062 -1.96875 0.15625 -1.96875 C 0.144531 -1.976562 0.140625 -2 0.140625 -2.03125 C 0.140625 -2.050781 0.144531 -2.066406 0.15625 -2.078125 C 0.164062 -2.097656 0.179688 -2.109375 0.203125 -2.109375 C 0.347656 -2.097656 0.476562 -2.09375 0.59375 -2.09375 L 1.171875 -2.09375 C 1.335938 -2.09375 1.476562 -2.066406 1.59375 -2.015625 C 1.707031 -1.960938 1.789062 -1.894531 1.84375 -1.8125 C 1.90625 -1.738281 1.9375 -1.65625 1.9375 -1.5625 C 1.9375 -1.4375 1.882812 -1.320312 1.78125 -1.21875 C 1.6875 -1.113281 1.554688 -1.039062 1.390625 -1 L 1.453125 -0.90625 C 1.546875 -0.757812 1.628906 -0.628906 1.703125 -0.515625 C 1.773438 -0.410156 1.859375 -0.3125 1.953125 -0.21875 C 2.015625 -0.164062 2.078125 -0.140625 2.140625 -0.140625 C 2.148438 -0.140625 2.160156 -0.132812 2.171875 -0.125 C 2.191406 -0.125 2.207031 -0.117188 2.21875 -0.109375 C 2.226562 -0.0976562 2.234375 -0.0820312 2.234375 -0.0625 C 2.234375 -0.0390625 2.226562 -0.0195312 2.21875 0 C 2.207031 0.0078125 2.191406 0.015625 2.171875 0.015625 L 2.078125 0 C 1.984375 0 1.914062 0 1.875 0 C 1.78125 -0.0195312 1.703125 -0.0507812 1.640625 -0.09375 C 1.578125 -0.132812 1.515625 -0.203125 1.453125 -0.296875 C 1.390625 -0.378906 1.300781 -0.515625 1.1875 -0.703125 L 1.125 -0.796875 C 1.09375 -0.847656 1.0625 -0.882812 1.03125 -0.90625 C 1 -0.925781 0.945312 -0.9375 0.875 -0.9375 L 0.765625 -0.9375 L 0.765625 -0.390625 C 0.773438 -0.335938 0.78125 -0.289062 0.78125 -0.25 C 0.789062 -0.21875 0.8125 -0.191406 0.84375 -0.171875 C 0.875 -0.148438 0.921875 -0.140625 0.984375 -0.140625 L 1.015625 -0.140625 C 1.023438 -0.140625 1.035156 -0.132812 1.046875 -0.125 C 1.054688 -0.113281 1.066406 -0.09375 1.078125 -0.0625 C 1.078125 -0.0390625 1.070312 -0.0195312 1.0625 0 C 1.050781 0.0078125 1.035156 0.015625 1.015625 0.015625 C 0.867188 0.00390625 0.726562 0 0.59375 0 C 0.476562 0 0.347656 0.00390625 0.203125 0.015625 Z M 1.0625 -1.0625 C 1.394531 -1.0625 1.5625 -1.21875 1.5625 -1.53125 C 1.5625 -1.65625 1.515625 -1.757812 1.421875 -1.84375 C 1.335938 -1.9375 1.195312 -1.984375 1 -1.984375 C 0.9375 -1.984375 0.890625 -1.972656 0.859375 -1.953125 C 0.828125 -1.941406 0.800781 -1.914062 0.78125 -1.875 C 0.769531 -1.832031 0.765625 -1.773438 0.765625 -1.703125 L 0.765625 -1.0625 Z M 1.0625 -1.0625 "/></g></g></g><g fill="#b8844f" fill-opacity="1"><g transform="translate(22.163388, 32.174858)"><g><path d="M 0.921875 0.046875 C 0.753906 0.046875 0.609375 0.0078125 0.484375 -0.0625 C 0.367188 -0.132812 0.28125 -0.234375 0.21875 -0.359375 C 0.164062 -0.484375 0.140625 -0.617188 0.140625 -0.765625 C 0.140625 -0.890625 0.164062 -1.015625 0.21875 -1.140625 C 0.28125 -1.265625 0.367188 -1.363281 0.484375 -1.4375 C 0.597656 -1.507812 0.726562 -1.546875 0.875 -1.546875 C 1.070312 -1.546875 1.222656 -1.492188 1.328125 -1.390625 C 1.441406 -1.296875 1.503906 -1.160156 1.515625 -0.984375 C 1.515625 -0.910156 1.492188 -0.859375 1.453125 -0.828125 C 1.410156 -0.804688 1.351562 -0.796875 1.28125 -0.796875 L 0.46875 -0.796875 C 0.46875 -0.585938 0.507812 -0.421875 0.59375 -0.296875 C 0.6875 -0.179688 0.820312 -0.125 1 -0.125 C 1.09375 -0.125 1.171875 -0.144531 1.234375 -0.1875 C 1.304688 -0.226562 1.375 -0.296875 1.4375 -0.390625 C 1.445312 -0.398438 1.457031 -0.40625 1.46875 -0.40625 C 1.476562 -0.40625 1.488281 -0.40625 1.5 -0.40625 C 1.53125 -0.382812 1.546875 -0.363281 1.546875 -0.34375 C 1.546875 -0.320312 1.539062 -0.3125 1.53125 -0.3125 C 1.46875 -0.195312 1.378906 -0.109375 1.265625 -0.046875 C 1.160156 0.015625 1.046875 0.046875 0.921875 0.046875 Z M 1.015625 -0.921875 C 1.128906 -0.921875 1.191406 -0.96875 1.203125 -1.0625 C 1.203125 -1.164062 1.171875 -1.253906 1.109375 -1.328125 C 1.054688 -1.398438 0.976562 -1.4375 0.875 -1.4375 C 0.757812 -1.4375 0.664062 -1.390625 0.59375 -1.296875 C 0.519531 -1.203125 0.476562 -1.078125 0.46875 -0.921875 Z M 1.015625 -0.921875 "/></g></g></g><g fill="#b8844f" fill-opacity="1"><g transform="translate(24.55691, 32.174858)"><g><path d="M 0.859375 0.046875 C 0.628906 0.046875 0.453125 -0.0234375 0.328125 -0.171875 C 0.203125 -0.316406 0.140625 -0.507812 0.140625 -0.75 C 0.140625 -0.90625 0.175781 -1.039062 0.25 -1.15625 C 0.320312 -1.28125 0.414062 -1.375 0.53125 -1.4375 C 0.644531 -1.507812 0.773438 -1.546875 0.921875 -1.546875 C 1.054688 -1.546875 1.175781 -1.519531 1.28125 -1.46875 C 1.382812 -1.414062 1.4375 -1.328125 1.4375 -1.203125 C 1.4375 -1.128906 1.414062 -1.066406 1.375 -1.015625 C 1.332031 -0.960938 1.28125 -0.9375 1.21875 -0.9375 C 1.175781 -0.9375 1.140625 -0.945312 1.109375 -0.96875 C 1.078125 -1 1.0625 -1.019531 1.0625 -1.03125 C 1.0625 -1.03125 1.070312 -1.039062 1.09375 -1.0625 C 1.113281 -1.082031 1.128906 -1.101562 1.140625 -1.125 C 1.160156 -1.15625 1.171875 -1.1875 1.171875 -1.21875 C 1.171875 -1.28125 1.144531 -1.328125 1.09375 -1.359375 C 1.039062 -1.398438 0.984375 -1.421875 0.921875 -1.421875 C 0.742188 -1.421875 0.625 -1.359375 0.5625 -1.234375 C 0.5 -1.109375 0.46875 -0.953125 0.46875 -0.765625 C 0.46875 -0.578125 0.507812 -0.421875 0.59375 -0.296875 C 0.6875 -0.179688 0.800781 -0.125 0.9375 -0.125 C 1.03125 -0.125 1.109375 -0.144531 1.171875 -0.1875 C 1.242188 -0.226562 1.3125 -0.289062 1.375 -0.375 C 1.375 -0.382812 1.382812 -0.390625 1.40625 -0.390625 C 1.414062 -0.390625 1.425781 -0.382812 1.4375 -0.375 C 1.445312 -0.375 1.453125 -0.367188 1.453125 -0.359375 C 1.460938 -0.347656 1.46875 -0.335938 1.46875 -0.328125 C 1.46875 -0.316406 1.46875 -0.304688 1.46875 -0.296875 C 1.394531 -0.191406 1.300781 -0.109375 1.1875 -0.046875 C 1.082031 0.015625 0.972656 0.046875 0.859375 0.046875 Z M 0.859375 0.046875 "/></g></g></g><g fill="#b8844f" fill-opacity="1"><g transform="translate(26.860576, 32.174858)"><g><path d="M 0.796875 0.046875 C 0.648438 0.046875 0.53125 0 0.4375 -0.09375 C 0.351562 -0.1875 0.3125 -0.304688 0.3125 -0.453125 L 0.3125 -1.078125 C 0.3125 -1.128906 0.304688 -1.164062 0.296875 -1.1875 C 0.296875 -1.21875 0.28125 -1.242188 0.25 -1.265625 C 0.226562 -1.285156 0.191406 -1.296875 0.140625 -1.296875 C 0.109375 -1.296875 0.0859375 -1.300781 0.078125 -1.3125 C 0.0664062 -1.320312 0.0625 -1.335938 0.0625 -1.359375 C 0.0625 -1.378906 0.0625 -1.394531 0.0625 -1.40625 C 0.0703125 -1.414062 0.0859375 -1.421875 0.109375 -1.421875 C 0.242188 -1.441406 0.363281 -1.472656 0.46875 -1.515625 C 0.5 -1.523438 0.523438 -1.53125 0.546875 -1.53125 L 0.5625 -1.53125 C 0.59375 -1.53125 0.609375 -1.507812 0.609375 -1.46875 L 0.609375 -0.453125 C 0.609375 -0.359375 0.640625 -0.28125 0.703125 -0.21875 C 0.765625 -0.164062 0.835938 -0.140625 0.921875 -0.140625 C 1.023438 -0.140625 1.113281 -0.164062 1.1875 -0.21875 C 1.257812 -0.269531 1.3125 -0.320312 1.34375 -0.375 L 1.34375 -1.078125 C 1.34375 -1.128906 1.335938 -1.164062 1.328125 -1.1875 C 1.328125 -1.21875 1.316406 -1.242188 1.296875 -1.265625 C 1.273438 -1.285156 1.234375 -1.296875 1.171875 -1.296875 C 1.140625 -1.296875 1.117188 -1.300781 1.109375 -1.3125 C 1.097656 -1.320312 1.09375 -1.335938 1.09375 -1.359375 C 1.09375 -1.378906 1.097656 -1.394531 1.109375 -1.40625 C 1.117188 -1.414062 1.128906 -1.421875 1.140625 -1.421875 C 1.285156 -1.441406 1.40625 -1.472656 1.5 -1.515625 C 1.53125 -1.523438 1.554688 -1.53125 1.578125 -1.53125 L 1.59375 -1.53125 C 1.625 -1.53125 1.640625 -1.507812 1.640625 -1.46875 L 1.640625 -0.3125 C 1.640625 -0.1875 1.726562 -0.125 1.90625 -0.125 C 1.945312 -0.125 1.96875 -0.101562 1.96875 -0.0625 C 1.96875 -0.03125 1.945312 -0.0078125 1.90625 0 L 1.375 0.03125 C 1.351562 0.03125 1.34375 0.0234375 1.34375 0.015625 C 1.34375 0.00390625 1.34375 -0.0078125 1.34375 -0.03125 L 1.34375 -0.21875 L 1.328125 -0.21875 C 1.265625 -0.15625 1.210938 -0.109375 1.171875 -0.078125 C 1.140625 -0.046875 1.085938 -0.0195312 1.015625 0 C 0.953125 0.03125 0.878906 0.046875 0.796875 0.046875 Z M 0.796875 0.046875 "/></g></g></g><g fill="#b8844f" fill-opacity="1"><g transform="translate(29.566936, 32.174858)"><g><path d="M 0.71875 0.046875 C 0.539062 0.046875 0.394531 0.015625 0.28125 -0.046875 C 0.175781 -0.109375 0.125 -0.195312 0.125 -0.3125 C 0.125 -0.375 0.144531 -0.425781 0.1875 -0.46875 C 0.226562 -0.507812 0.28125 -0.53125 0.34375 -0.53125 C 0.375 -0.53125 0.398438 -0.519531 0.421875 -0.5 C 0.453125 -0.476562 0.46875 -0.460938 0.46875 -0.453125 C 0.46875 -0.453125 0.453125 -0.4375 0.421875 -0.40625 C 0.398438 -0.382812 0.390625 -0.347656 0.390625 -0.296875 C 0.390625 -0.234375 0.421875 -0.179688 0.484375 -0.140625 C 0.546875 -0.0976562 0.632812 -0.078125 0.75 -0.078125 C 0.851562 -0.078125 0.929688 -0.0976562 0.984375 -0.140625 C 1.046875 -0.191406 1.078125 -0.257812 1.078125 -0.34375 C 1.078125 -0.394531 1.0625 -0.4375 1.03125 -0.46875 C 1 -0.507812 0.957031 -0.539062 0.90625 -0.5625 C 0.851562 -0.582031 0.785156 -0.601562 0.703125 -0.625 C 0.597656 -0.65625 0.507812 -0.6875 0.4375 -0.71875 C 0.363281 -0.75 0.300781 -0.796875 0.25 -0.859375 C 0.207031 -0.921875 0.1875 -1.003906 0.1875 -1.109375 C 0.1875 -1.203125 0.210938 -1.28125 0.265625 -1.34375 C 0.328125 -1.414062 0.40625 -1.46875 0.5 -1.5 C 0.59375 -1.53125 0.6875 -1.546875 0.78125 -1.546875 C 0.914062 -1.546875 1.03125 -1.515625 1.125 -1.453125 C 1.226562 -1.398438 1.28125 -1.328125 1.28125 -1.234375 C 1.28125 -1.171875 1.257812 -1.117188 1.21875 -1.078125 C 1.1875 -1.035156 1.140625 -1.015625 1.078125 -1.015625 C 1.035156 -1.015625 1 -1.023438 0.96875 -1.046875 C 0.945312 -1.066406 0.9375 -1.082031 0.9375 -1.09375 C 0.9375 -1.09375 0.941406 -1.097656 0.953125 -1.109375 C 0.972656 -1.128906 0.988281 -1.148438 1 -1.171875 C 1.019531 -1.191406 1.03125 -1.21875 1.03125 -1.25 C 1.03125 -1.3125 1 -1.359375 0.9375 -1.390625 C 0.882812 -1.421875 0.820312 -1.4375 0.75 -1.4375 C 0.664062 -1.4375 0.59375 -1.414062 0.53125 -1.375 C 0.46875 -1.34375 0.4375 -1.289062 0.4375 -1.21875 C 0.4375 -1.15625 0.445312 -1.101562 0.46875 -1.0625 C 0.5 -1.03125 0.539062 -1.003906 0.59375 -0.984375 C 0.644531 -0.960938 0.726562 -0.929688 0.84375 -0.890625 C 0.957031 -0.847656 1.046875 -0.8125 1.109375 -0.78125 C 1.179688 -0.75 1.238281 -0.707031 1.28125 -0.65625 C 1.320312 -0.601562 1.34375 -0.53125 1.34375 -0.4375 C 1.34375 -0.351562 1.3125 -0.269531 1.25 -0.1875 C 1.195312 -0.113281 1.125 -0.0546875 1.03125 -0.015625 C 0.945312 0.0234375 0.84375 0.046875 0.71875 0.046875 Z M 0.71875 0.046875 "/></g></g></g><g fill="#b8844f" fill-opacity="1"><g transform="translate(31.764104, 32.174858)"><g><path d="M 0.921875 0.046875 C 0.753906 0.046875 0.609375 0.0078125 0.484375 -0.0625 C 0.367188 -0.132812 0.28125 -0.234375 0.21875 -0.359375 C 0.164062 -0.484375 0.140625 -0.617188 0.140625 -0.765625 C 0.140625 -0.890625 0.164062 -1.015625 0.21875 -1.140625 C 0.28125 -1.265625 0.367188 -1.363281 0.484375 -1.4375 C 0.597656 -1.507812 0.726562 -1.546875 0.875 -1.546875 C 1.070312 -1.546875 1.222656 -1.492188 1.328125 -1.390625 C 1.441406 -1.296875 1.503906 -1.160156 1.515625 -0.984375 C 1.515625 -0.910156 1.492188 -0.859375 1.453125 -0.828125 C 1.410156 -0.804688 1.351562 -0.796875 1.28125 -0.796875 L 0.46875 -0.796875 C 0.46875 -0.585938 0.507812 -0.421875 0.59375 -0.296875 C 0.6875 -0.179688 0.820312 -0.125 1 -0.125 C 1.09375 -0.125 1.171875 -0.144531 1.234375 -0.1875 C 1.304688 -0.226562 1.375 -0.296875 1.4375 -0.390625 C 1.445312 -0.398438 1.457031 -0.40625 1.46875 -0.40625 C 1.476562 -0.40625 1.488281 -0.40625 1.5 -0.40625 C 1.53125 -0.382812 1.546875 -0.363281 1.546875 -0.34375 C 1.546875 -0.320312 1.539062 -0.3125 1.53125 -0.3125 C 1.46875 -0.195312 1.378906 -0.109375 1.265625 -0.046875 C 1.160156 0.015625 1.046875 0.046875 0.921875 0.046875 Z M 1.015625 -0.921875 C 1.128906 -0.921875 1.191406 -0.96875 1.203125 -1.0625 C 1.203125 -1.164062 1.171875 -1.253906 1.109375 -1.328125 C 1.054688 -1.398438 0.976562 -1.4375 0.875 -1.4375 C 0.757812 -1.4375 0.664062 -1.390625 0.59375 -1.296875 C 0.519531 -1.203125 0.476562 -1.078125 0.46875 -0.921875 Z M 1.015625 -0.921875 "/></g></g></g><g fill="#b8844f" fill-opacity="1"><g transform="translate(34.157626, 32.174858)"><g/></g></g><g fill="#b8844f" fill-opacity="1"><g transform="translate(35.622624, 32.174858)"><g><path d="M 0.15625 0.015625 C 0.144531 0.015625 0.132812 0.0078125 0.125 0 C 0.113281 -0.0195312 0.109375 -0.0390625 0.109375 -0.0625 C 0.109375 -0.0820312 0.113281 -0.09375 0.125 -0.09375 C 0.132812 -0.101562 0.15625 -0.109375 0.1875 -0.109375 C 0.25 -0.109375 0.289062 -0.117188 0.3125 -0.140625 C 0.332031 -0.160156 0.34375 -0.179688 0.34375 -0.203125 C 0.351562 -0.234375 0.359375 -0.28125 0.359375 -0.34375 L 0.359375 -1.109375 C 0.359375 -1.160156 0.351562 -1.195312 0.34375 -1.21875 C 0.34375 -1.25 0.332031 -1.273438 0.3125 -1.296875 C 0.289062 -1.316406 0.25 -1.328125 0.1875 -1.328125 C 0.164062 -1.328125 0.144531 -1.332031 0.125 -1.34375 C 0.113281 -1.351562 0.109375 -1.367188 0.109375 -1.390625 C 0.109375 -1.410156 0.113281 -1.425781 0.125 -1.4375 C 0.132812 -1.445312 0.144531 -1.453125 0.15625 -1.453125 C 0.300781 -1.472656 0.421875 -1.503906 0.515625 -1.546875 C 0.546875 -1.554688 0.570312 -1.5625 0.59375 -1.5625 L 0.609375 -1.5625 C 0.640625 -1.5625 0.65625 -1.539062 0.65625 -1.5 L 0.65625 -0.34375 C 0.65625 -0.28125 0.65625 -0.234375 0.65625 -0.203125 C 0.664062 -0.179688 0.679688 -0.160156 0.703125 -0.140625 C 0.734375 -0.117188 0.773438 -0.109375 0.828125 -0.109375 L 0.859375 -0.109375 C 0.867188 -0.109375 0.878906 -0.101562 0.890625 -0.09375 C 0.898438 -0.09375 0.90625 -0.0820312 0.90625 -0.0625 C 0.90625 -0.0390625 0.898438 -0.0195312 0.890625 0 C 0.890625 0.0078125 0.878906 0.015625 0.859375 0.015625 C 0.734375 0.00390625 0.617188 0 0.515625 0 C 0.410156 0 0.289062 0.00390625 0.15625 0.015625 Z M 0.484375 -1.9375 C 0.421875 -1.9375 0.367188 -1.953125 0.328125 -1.984375 C 0.285156 -2.023438 0.265625 -2.078125 0.265625 -2.140625 C 0.265625 -2.191406 0.289062 -2.234375 0.34375 -2.265625 C 0.394531 -2.304688 0.453125 -2.328125 0.515625 -2.328125 C 0.578125 -2.328125 0.625 -2.304688 0.65625 -2.265625 C 0.6875 -2.234375 0.703125 -2.1875 0.703125 -2.125 C 0.703125 -2.070312 0.679688 -2.023438 0.640625 -1.984375 C 0.597656 -1.953125 0.546875 -1.9375 0.484375 -1.9375 Z M 0.484375 -1.9375 "/></g></g></g><g fill="#b8844f" fill-opacity="1"><g transform="translate(37.330569, 32.174858)"><g><path d="M 0.171875 0.015625 C 0.148438 0.015625 0.132812 0.0078125 0.125 0 C 0.113281 -0.0195312 0.109375 -0.0390625 0.109375 -0.0625 C 0.109375 -0.0820312 0.113281 -0.09375 0.125 -0.09375 C 0.132812 -0.101562 0.15625 -0.109375 0.1875 -0.109375 C 0.25 -0.109375 0.289062 -0.117188 0.3125 -0.140625 C 0.332031 -0.160156 0.34375 -0.179688 0.34375 -0.203125 C 0.351562 -0.234375 0.359375 -0.28125 0.359375 -0.34375 L 0.359375 -1.109375 C 0.359375 -1.160156 0.359375 -1.195312 0.359375 -1.21875 C 0.359375 -1.25 0.34375 -1.273438 0.3125 -1.296875 C 0.289062 -1.316406 0.25 -1.328125 0.1875 -1.328125 C 0.164062 -1.328125 0.144531 -1.332031 0.125 -1.34375 C 0.113281 -1.351562 0.109375 -1.367188 0.109375 -1.390625 C 0.109375 -1.410156 0.113281 -1.425781 0.125 -1.4375 C 0.132812 -1.445312 0.148438 -1.453125 0.171875 -1.453125 C 0.304688 -1.472656 0.421875 -1.503906 0.515625 -1.546875 C 0.554688 -1.554688 0.582031 -1.5625 0.59375 -1.5625 L 0.609375 -1.5625 C 0.640625 -1.5625 0.65625 -1.539062 0.65625 -1.5 L 0.65625 -1.296875 L 0.671875 -1.296875 C 0.679688 -1.304688 0.710938 -1.335938 0.765625 -1.390625 C 0.828125 -1.441406 0.890625 -1.476562 0.953125 -1.5 C 1.023438 -1.53125 1.101562 -1.546875 1.1875 -1.546875 C 1.289062 -1.546875 1.378906 -1.519531 1.453125 -1.46875 C 1.535156 -1.425781 1.597656 -1.367188 1.640625 -1.296875 C 1.722656 -1.378906 1.800781 -1.441406 1.875 -1.484375 C 1.957031 -1.523438 2.0625 -1.546875 2.1875 -1.546875 C 2.34375 -1.546875 2.460938 -1.5 2.546875 -1.40625 C 2.640625 -1.320312 2.6875 -1.203125 2.6875 -1.046875 L 2.6875 -0.34375 C 2.6875 -0.28125 2.6875 -0.234375 2.6875 -0.203125 C 2.695312 -0.179688 2.710938 -0.160156 2.734375 -0.140625 C 2.753906 -0.117188 2.796875 -0.109375 2.859375 -0.109375 L 2.875 -0.109375 C 2.894531 -0.109375 2.910156 -0.101562 2.921875 -0.09375 C 2.929688 -0.09375 2.9375 -0.0820312 2.9375 -0.0625 C 2.9375 -0.0390625 2.929688 -0.0195312 2.921875 0 C 2.910156 0.0078125 2.894531 0.015625 2.875 0.015625 C 2.75 0.00390625 2.632812 0 2.53125 0 C 2.4375 0 2.320312 0.00390625 2.1875 0.015625 C 2.164062 0.015625 2.148438 0.0078125 2.140625 0 C 2.140625 -0.0195312 2.140625 -0.0390625 2.140625 -0.0625 C 2.140625 -0.0820312 2.144531 -0.09375 2.15625 -0.09375 C 2.164062 -0.101562 2.179688 -0.109375 2.203125 -0.109375 C 2.265625 -0.109375 2.304688 -0.117188 2.328125 -0.140625 C 2.359375 -0.160156 2.375 -0.179688 2.375 -0.203125 C 2.382812 -0.234375 2.390625 -0.28125 2.390625 -0.34375 L 2.390625 -1.046875 C 2.390625 -1.148438 2.351562 -1.226562 2.28125 -1.28125 C 2.21875 -1.332031 2.144531 -1.359375 2.0625 -1.359375 C 1.957031 -1.359375 1.875 -1.332031 1.8125 -1.28125 C 1.75 -1.238281 1.703125 -1.191406 1.671875 -1.140625 L 1.671875 -0.34375 C 1.671875 -0.332031 1.671875 -0.300781 1.671875 -0.25 C 1.671875 -0.207031 1.679688 -0.171875 1.703125 -0.140625 C 1.734375 -0.117188 1.78125 -0.109375 1.84375 -0.109375 L 1.859375 -0.109375 C 1.878906 -0.109375 1.890625 -0.101562 1.890625 -0.09375 C 1.898438 -0.09375 1.90625 -0.0820312 1.90625 -0.0625 C 1.90625 -0.0390625 1.898438 -0.0195312 1.890625 0 C 1.890625 0.0078125 1.878906 0.015625 1.859375 0.015625 C 1.722656 0.00390625 1.609375 0 1.515625 0 C 1.429688 0 1.320312 0.00390625 1.1875 0.015625 C 1.164062 0.015625 1.148438 0.0078125 1.140625 0 C 1.140625 -0.0195312 1.140625 -0.0390625 1.140625 -0.0625 C 1.140625 -0.0820312 1.144531 -0.09375 1.15625 -0.09375 C 1.164062 -0.101562 1.1875 -0.109375 1.21875 -0.109375 C 1.289062 -0.109375 1.332031 -0.125 1.34375 -0.15625 C 1.363281 -0.1875 1.375 -0.222656 1.375 -0.265625 C 1.375 -0.304688 1.375 -0.332031 1.375 -0.34375 L 1.375 -1.046875 C 1.375 -1.148438 1.34375 -1.226562 1.28125 -1.28125 C 1.21875 -1.332031 1.144531 -1.359375 1.0625 -1.359375 C 0.957031 -1.359375 0.867188 -1.332031 0.796875 -1.28125 C 0.734375 -1.238281 0.691406 -1.191406 0.671875 -1.140625 L 0.671875 -0.34375 C 0.671875 -0.28125 0.671875 -0.234375 0.671875 -0.203125 C 0.671875 -0.179688 0.679688 -0.160156 0.703125 -0.140625 C 0.734375 -0.117188 0.78125 -0.109375 0.84375 -0.109375 L 0.859375 -0.109375 C 0.878906 -0.109375 0.890625 -0.101562 0.890625 -0.09375 C 0.898438 -0.09375 0.910156 -0.0820312 0.921875 -0.0625 C 0.921875 -0.0390625 0.914062 -0.0195312 0.90625 0 C 0.894531 0.0078125 0.878906 0.015625 0.859375 0.015625 C 0.734375 0.00390625 0.617188 0 0.515625 0 C 0.410156 0 0.296875 0.00390625 0.171875 0.015625 Z M 0.171875 0.015625 "/></g></g></g><g fill="#b8844f" fill-opacity="1"><g transform="translate(41.035341, 32.174858)"><g><path d="M 0.15625 0.015625 C 0.144531 0.015625 0.132812 0.0078125 0.125 0 C 0.113281 -0.0195312 0.109375 -0.0390625 0.109375 -0.0625 C 0.109375 -0.0820312 0.113281 -0.09375 0.125 -0.09375 C 0.132812 -0.101562 0.15625 -0.109375 0.1875 -0.109375 C 0.25 -0.109375 0.289062 -0.117188 0.3125 -0.140625 C 0.332031 -0.160156 0.34375 -0.179688 0.34375 -0.203125 C 0.351562 -0.234375 0.359375 -0.28125 0.359375 -0.34375 L 0.359375 -1.109375 C 0.359375 -1.160156 0.351562 -1.195312 0.34375 -1.21875 C 0.34375 -1.25 0.332031 -1.273438 0.3125 -1.296875 C 0.289062 -1.316406 0.25 -1.328125 0.1875 -1.328125 C 0.164062 -1.328125 0.144531 -1.332031 0.125 -1.34375 C 0.113281 -1.351562 0.109375 -1.367188 0.109375 -1.390625 C 0.109375 -1.410156 0.113281 -1.425781 0.125 -1.4375 C 0.132812 -1.445312 0.144531 -1.453125 0.15625 -1.453125 C 0.300781 -1.472656 0.421875 -1.503906 0.515625 -1.546875 C 0.546875 -1.554688 0.570312 -1.5625 0.59375 -1.5625 L 0.609375 -1.5625 C 0.640625 -1.5625 0.65625 -1.539062 0.65625 -1.5 L 0.65625 -0.34375 C 0.65625 -0.28125 0.65625 -0.234375 0.65625 -0.203125 C 0.664062 -0.179688 0.679688 -0.160156 0.703125 -0.140625 C 0.734375 -0.117188 0.773438 -0.109375 0.828125 -0.109375 L 0.859375 -0.109375 C 0.867188 -0.109375 0.878906 -0.101562 0.890625 -0.09375 C 0.898438 -0.09375 0.90625 -0.0820312 0.90625 -0.0625 C 0.90625 -0.0390625 0.898438 -0.0195312 0.890625 0 C 0.890625 0.0078125 0.878906 0.015625 0.859375 0.015625 C 0.734375 0.00390625 0.617188 0 0.515625 0 C 0.410156 0 0.289062 0.00390625 0.15625 0.015625 Z M 0.484375 -1.9375 C 0.421875 -1.9375 0.367188 -1.953125 0.328125 -1.984375 C 0.285156 -2.023438 0.265625 -2.078125 0.265625 -2.140625 C 0.265625 -2.191406 0.289062 -2.234375 0.34375 -2.265625 C 0.394531 -2.304688 0.453125 -2.328125 0.515625 -2.328125 C 0.578125 -2.328125 0.625 -2.304688 0.65625 -2.265625 C 0.6875 -2.234375 0.703125 -2.1875 0.703125 -2.125 C 0.703125 -2.070312 0.679688 -2.023438 0.640625 -1.984375 C 0.597656 -1.953125 0.546875 -1.9375 0.484375 -1.9375 Z M 0.484375 -1.9375 "/></g></g></g><g fill="#b8844f" fill-opacity="1"><g transform="translate(42.743286, 32.174858)"><g><path d="M 0.71875 0.0625 C 0.613281 0.0625 0.519531 0.0195312 0.4375 -0.0625 C 0.363281 -0.144531 0.328125 -0.257812 0.328125 -0.40625 L 0.328125 -1.390625 L 0.125 -1.375 C 0.113281 -1.375 0.101562 -1.378906 0.09375 -1.390625 C 0.0820312 -1.410156 0.078125 -1.425781 0.078125 -1.4375 C 0.078125 -1.457031 0.0820312 -1.472656 0.09375 -1.484375 C 0.101562 -1.503906 0.113281 -1.515625 0.125 -1.515625 C 0.207031 -1.523438 0.269531 -1.546875 0.3125 -1.578125 C 0.351562 -1.617188 0.382812 -1.660156 0.40625 -1.703125 C 0.425781 -1.742188 0.453125 -1.804688 0.484375 -1.890625 C 0.492188 -1.921875 0.515625 -1.9375 0.546875 -1.9375 C 0.566406 -1.9375 0.582031 -1.929688 0.59375 -1.921875 C 0.613281 -1.910156 0.625 -1.898438 0.625 -1.890625 L 0.59375 -1.5 L 0.984375 -1.53125 L 1 -1.53125 C 1.019531 -1.53125 1.03125 -1.507812 1.03125 -1.46875 C 1.03125 -1.445312 1.023438 -1.425781 1.015625 -1.40625 C 1.015625 -1.382812 1.007812 -1.375 1 -1.375 L 0.625 -1.375 L 0.625 -0.359375 C 0.625 -0.285156 0.640625 -0.222656 0.671875 -0.171875 C 0.703125 -0.128906 0.75 -0.109375 0.8125 -0.109375 C 0.882812 -0.109375 0.945312 -0.117188 1 -0.140625 C 1.03125 -0.148438 1.050781 -0.15625 1.0625 -0.15625 C 1.070312 -0.15625 1.082031 -0.148438 1.09375 -0.140625 C 1.101562 -0.128906 1.113281 -0.113281 1.125 -0.09375 C 1.125 -0.09375 1.125 -0.0859375 1.125 -0.078125 C 1.125 -0.0664062 1.117188 -0.0546875 1.109375 -0.046875 C 1.035156 -0.00390625 0.96875 0.0195312 0.90625 0.03125 C 0.851562 0.0507812 0.789062 0.0625 0.71875 0.0625 Z M 0.71875 0.0625 "/></g></g></g><g fill="#b8844f" fill-opacity="1"><g transform="translate(44.727457, 32.174858)"><g><path d="M 0.5625 0.046875 C 0.425781 0.046875 0.316406 0.0078125 0.234375 -0.0625 C 0.148438 -0.144531 0.109375 -0.242188 0.109375 -0.359375 C 0.109375 -0.492188 0.15625 -0.597656 0.25 -0.671875 C 0.34375 -0.742188 0.453125 -0.789062 0.578125 -0.8125 C 0.710938 -0.832031 0.878906 -0.847656 1.078125 -0.859375 L 1.078125 -1.125 C 1.078125 -1.226562 1.050781 -1.304688 1 -1.359375 C 0.945312 -1.421875 0.859375 -1.453125 0.734375 -1.453125 C 0.671875 -1.453125 0.613281 -1.429688 0.5625 -1.390625 C 0.507812 -1.347656 0.484375 -1.289062 0.484375 -1.21875 C 0.484375 -1.1875 0.488281 -1.15625 0.5 -1.125 C 0.519531 -1.101562 0.539062 -1.082031 0.5625 -1.0625 C 0.582031 -1.050781 0.59375 -1.046875 0.59375 -1.046875 C 0.59375 -1.035156 0.578125 -1.019531 0.546875 -1 C 0.523438 -0.976562 0.492188 -0.96875 0.453125 -0.96875 C 0.378906 -0.96875 0.320312 -0.988281 0.28125 -1.03125 C 0.25 -1.082031 0.234375 -1.140625 0.234375 -1.203125 C 0.234375 -1.316406 0.285156 -1.398438 0.390625 -1.453125 C 0.492188 -1.515625 0.617188 -1.546875 0.765625 -1.546875 C 0.941406 -1.546875 1.085938 -1.507812 1.203125 -1.4375 C 1.316406 -1.375 1.375 -1.25 1.375 -1.0625 L 1.375 -0.28125 C 1.375 -0.238281 1.390625 -0.195312 1.421875 -0.15625 C 1.453125 -0.113281 1.492188 -0.09375 1.546875 -0.09375 C 1.566406 -0.09375 1.578125 -0.0859375 1.578125 -0.078125 C 1.585938 -0.0664062 1.59375 -0.0507812 1.59375 -0.03125 C 1.59375 -0.0078125 1.570312 0.00390625 1.53125 0.015625 C 1.5 0.0351562 1.460938 0.046875 1.421875 0.046875 C 1.335938 0.046875 1.257812 0.0195312 1.1875 -0.03125 C 1.125 -0.0820312 1.085938 -0.148438 1.078125 -0.234375 C 1.035156 -0.140625 0.960938 -0.0664062 0.859375 -0.015625 C 0.765625 0.0234375 0.664062 0.046875 0.5625 0.046875 Z M 0.671875 -0.140625 C 0.742188 -0.140625 0.8125 -0.15625 0.875 -0.1875 C 0.9375 -0.226562 0.984375 -0.28125 1.015625 -0.34375 C 1.054688 -0.414062 1.078125 -0.488281 1.078125 -0.5625 L 1.078125 -0.765625 C 0.847656 -0.742188 0.6875 -0.703125 0.59375 -0.640625 C 0.5 -0.585938 0.453125 -0.492188 0.453125 -0.359375 C 0.453125 -0.210938 0.523438 -0.140625 0.671875 -0.140625 Z M 0.671875 -0.140625 "/></g></g></g><g fill="#b8844f" fill-opacity="1"><g transform="translate(47.117653, 32.174858)"><g><path d="M 0.515625 0.6875 C 0.492188 0.6875 0.476562 0.675781 0.46875 0.65625 C 0.457031 0.644531 0.453125 0.628906 0.453125 0.609375 C 0.453125 0.578125 0.457031 0.554688 0.46875 0.546875 C 0.476562 0.546875 0.492188 0.546875 0.515625 0.546875 C 0.640625 0.546875 0.734375 0.535156 0.796875 0.515625 C 0.859375 0.503906 0.890625 0.472656 0.890625 0.421875 C 0.890625 0.390625 0.875 0.363281 0.84375 0.34375 C 0.8125 0.332031 0.765625 0.320312 0.703125 0.3125 C 0.679688 0.3125 0.664062 0.304688 0.65625 0.296875 C 0.644531 0.296875 0.640625 0.28125 0.640625 0.25 L 0.640625 0.015625 C 0.484375 -0.0234375 0.359375 -0.113281 0.265625 -0.25 C 0.179688 -0.382812 0.140625 -0.550781 0.140625 -0.75 C 0.140625 -0.90625 0.175781 -1.039062 0.25 -1.15625 C 0.320312 -1.28125 0.414062 -1.375 0.53125 -1.4375 C 0.644531 -1.507812 0.773438 -1.546875 0.921875 -1.546875 C 1.023438 -1.546875 1.128906 -1.523438 1.234375 -1.484375 C 1.335938 -1.453125 1.40625 -1.378906 1.4375 -1.265625 C 1.4375 -1.253906 1.4375 -1.234375 1.4375 -1.203125 C 1.4375 -1.128906 1.414062 -1.066406 1.375 -1.015625 C 1.332031 -0.960938 1.28125 -0.9375 1.21875 -0.9375 C 1.175781 -0.9375 1.140625 -0.945312 1.109375 -0.96875 C 1.078125 -1 1.0625 -1.019531 1.0625 -1.03125 C 1.0625 -1.03125 1.070312 -1.039062 1.09375 -1.0625 C 1.113281 -1.082031 1.128906 -1.101562 1.140625 -1.125 C 1.160156 -1.15625 1.171875 -1.1875 1.171875 -1.21875 C 1.171875 -1.28125 1.144531 -1.328125 1.09375 -1.359375 C 1.039062 -1.398438 0.984375 -1.421875 0.921875 -1.421875 C 0.742188 -1.421875 0.625 -1.359375 0.5625 -1.234375 C 0.5 -1.109375 0.46875 -0.953125 0.46875 -0.765625 C 0.46875 -0.578125 0.507812 -0.421875 0.59375 -0.296875 C 0.6875 -0.179688 0.800781 -0.125 0.9375 -0.125 C 1.03125 -0.125 1.109375 -0.144531 1.171875 -0.1875 C 1.242188 -0.226562 1.3125 -0.289062 1.375 -0.375 C 1.375 -0.382812 1.382812 -0.390625 1.40625 -0.390625 C 1.414062 -0.390625 1.425781 -0.382812 1.4375 -0.375 C 1.445312 -0.375 1.453125 -0.367188 1.453125 -0.359375 C 1.460938 -0.347656 1.46875 -0.335938 1.46875 -0.328125 C 1.46875 -0.316406 1.46875 -0.304688 1.46875 -0.296875 C 1.394531 -0.191406 1.300781 -0.109375 1.1875 -0.046875 C 1.082031 0.015625 0.972656 0.046875 0.859375 0.046875 C 0.835938 0.046875 0.820312 0.0390625 0.8125 0.03125 L 0.8125 0.140625 C 0.894531 0.140625 0.96875 0.15625 1.03125 0.1875 C 1.09375 0.226562 1.125 0.289062 1.125 0.375 C 1.125 0.476562 1.066406 0.554688 0.953125 0.609375 C 0.847656 0.660156 0.703125 0.6875 0.515625 0.6875 Z M 0.515625 0.6875 "/></g></g></g><g fill="#b8844f" fill-opacity="1"><g transform="translate(49.421319, 32.174858)"><g><path d="M 0.90625 0.046875 C 0.757812 0.046875 0.625 0.0078125 0.5 -0.0625 C 0.382812 -0.132812 0.296875 -0.226562 0.234375 -0.34375 C 0.171875 -0.46875 0.140625 -0.597656 0.140625 -0.734375 C 0.140625 -0.898438 0.175781 -1.039062 0.25 -1.15625 C 0.332031 -1.28125 0.429688 -1.375 0.546875 -1.4375 C 0.671875 -1.507812 0.789062 -1.546875 0.90625 -1.546875 C 1.0625 -1.546875 1.195312 -1.507812 1.3125 -1.4375 C 1.425781 -1.363281 1.515625 -1.265625 1.578125 -1.140625 C 1.648438 -1.023438 1.6875 -0.90625 1.6875 -0.78125 C 1.6875 -0.613281 1.644531 -0.46875 1.5625 -0.34375 C 1.488281 -0.21875 1.390625 -0.117188 1.265625 -0.046875 C 1.148438 0.015625 1.03125 0.046875 0.90625 0.046875 Z M 0.90625 -0.078125 C 1.0625 -0.078125 1.171875 -0.140625 1.234375 -0.265625 C 1.304688 -0.398438 1.34375 -0.570312 1.34375 -0.78125 C 1.34375 -0.96875 1.304688 -1.117188 1.234375 -1.234375 C 1.160156 -1.359375 1.050781 -1.421875 0.90625 -1.421875 C 0.757812 -1.421875 0.648438 -1.359375 0.578125 -1.234375 C 0.503906 -1.109375 0.46875 -0.941406 0.46875 -0.734375 C 0.46875 -0.546875 0.503906 -0.390625 0.578125 -0.265625 C 0.648438 -0.140625 0.757812 -0.078125 0.90625 -0.078125 Z M 1.0625 -1.859375 C 1.007812 -1.859375 0.96875 -1.867188 0.9375 -1.890625 C 0.90625 -1.910156 0.863281 -1.9375 0.8125 -1.96875 C 0.757812 -2.019531 0.710938 -2.046875 0.671875 -2.046875 C 0.648438 -2.046875 0.617188 -2.035156 0.578125 -2.015625 C 0.535156 -1.992188 0.492188 -1.957031 0.453125 -1.90625 C 0.441406 -1.894531 0.425781 -1.890625 0.40625 -1.890625 C 0.382812 -1.890625 0.367188 -1.894531 0.359375 -1.90625 C 0.347656 -1.914062 0.34375 -1.929688 0.34375 -1.953125 C 0.34375 -1.960938 0.34375 -1.96875 0.34375 -1.96875 C 0.375 -2.050781 0.421875 -2.125 0.484375 -2.1875 C 0.554688 -2.25 0.632812 -2.28125 0.71875 -2.28125 C 0.757812 -2.269531 0.796875 -2.253906 0.828125 -2.234375 C 0.867188 -2.222656 0.910156 -2.195312 0.953125 -2.15625 C 1.015625 -2.101562 1.0625 -2.078125 1.09375 -2.078125 C 1.125 -2.078125 1.160156 -2.085938 1.203125 -2.109375 C 1.242188 -2.140625 1.28125 -2.175781 1.3125 -2.21875 C 1.332031 -2.238281 1.351562 -2.25 1.375 -2.25 C 1.382812 -2.25 1.394531 -2.242188 1.40625 -2.234375 C 1.414062 -2.222656 1.421875 -2.207031 1.421875 -2.1875 C 1.421875 -2.175781 1.421875 -2.164062 1.421875 -2.15625 C 1.390625 -2.070312 1.34375 -2 1.28125 -1.9375 C 1.21875 -1.882812 1.144531 -1.859375 1.0625 -1.859375 Z M 1.0625 -1.859375 "/></g></g></g><g fill="#b8844f" fill-opacity="1"><g transform="translate(51.967933, 32.174858)"><g><path d="M 0.921875 0.046875 C 0.753906 0.046875 0.609375 0.0078125 0.484375 -0.0625 C 0.367188 -0.132812 0.28125 -0.234375 0.21875 -0.359375 C 0.164062 -0.484375 0.140625 -0.617188 0.140625 -0.765625 C 0.140625 -0.890625 0.164062 -1.015625 0.21875 -1.140625 C 0.28125 -1.265625 0.367188 -1.363281 0.484375 -1.4375 C 0.597656 -1.507812 0.726562 -1.546875 0.875 -1.546875 C 1.070312 -1.546875 1.222656 -1.492188 1.328125 -1.390625 C 1.441406 -1.296875 1.503906 -1.160156 1.515625 -0.984375 C 1.515625 -0.910156 1.492188 -0.859375 1.453125 -0.828125 C 1.410156 -0.804688 1.351562 -0.796875 1.28125 -0.796875 L 0.46875 -0.796875 C 0.46875 -0.585938 0.507812 -0.421875 0.59375 -0.296875 C 0.6875 -0.179688 0.820312 -0.125 1 -0.125 C 1.09375 -0.125 1.171875 -0.144531 1.234375 -0.1875 C 1.304688 -0.226562 1.375 -0.296875 1.4375 -0.390625 C 1.445312 -0.398438 1.457031 -0.40625 1.46875 -0.40625 C 1.476562 -0.40625 1.488281 -0.40625 1.5 -0.40625 C 1.53125 -0.382812 1.546875 -0.363281 1.546875 -0.34375 C 1.546875 -0.320312 1.539062 -0.3125 1.53125 -0.3125 C 1.46875 -0.195312 1.378906 -0.109375 1.265625 -0.046875 C 1.160156 0.015625 1.046875 0.046875 0.921875 0.046875 Z M 1.015625 -0.921875 C 1.128906 -0.921875 1.191406 -0.96875 1.203125 -1.0625 C 1.203125 -1.164062 1.171875 -1.253906 1.109375 -1.328125 C 1.054688 -1.398438 0.976562 -1.4375 0.875 -1.4375 C 0.757812 -1.4375 0.664062 -1.390625 0.59375 -1.296875 C 0.519531 -1.203125 0.476562 -1.078125 0.46875 -0.921875 Z M 1.015625 -0.921875 "/></g></g></g><g fill="#b8844f" fill-opacity="1"><g transform="translate(54.361455, 32.174858)"><g><path d="M 0.71875 0.046875 C 0.539062 0.046875 0.394531 0.015625 0.28125 -0.046875 C 0.175781 -0.109375 0.125 -0.195312 0.125 -0.3125 C 0.125 -0.375 0.144531 -0.425781 0.1875 -0.46875 C 0.226562 -0.507812 0.28125 -0.53125 0.34375 -0.53125 C 0.375 -0.53125 0.398438 -0.519531 0.421875 -0.5 C 0.453125 -0.476562 0.46875 -0.460938 0.46875 -0.453125 C 0.46875 -0.453125 0.453125 -0.4375 0.421875 -0.40625 C 0.398438 -0.382812 0.390625 -0.347656 0.390625 -0.296875 C 0.390625 -0.234375 0.421875 -0.179688 0.484375 -0.140625 C 0.546875 -0.0976562 0.632812 -0.078125 0.75 -0.078125 C 0.851562 -0.078125 0.929688 -0.0976562 0.984375 -0.140625 C 1.046875 -0.191406 1.078125 -0.257812 1.078125 -0.34375 C 1.078125 -0.394531 1.0625 -0.4375 1.03125 -0.46875 C 1 -0.507812 0.957031 -0.539062 0.90625 -0.5625 C 0.851562 -0.582031 0.785156 -0.601562 0.703125 -0.625 C 0.597656 -0.65625 0.507812 -0.6875 0.4375 -0.71875 C 0.363281 -0.75 0.300781 -0.796875 0.25 -0.859375 C 0.207031 -0.921875 0.1875 -1.003906 0.1875 -1.109375 C 0.1875 -1.203125 0.210938 -1.28125 0.265625 -1.34375 C 0.328125 -1.414062 0.40625 -1.46875 0.5 -1.5 C 0.59375 -1.53125 0.6875 -1.546875 0.78125 -1.546875 C 0.914062 -1.546875 1.03125 -1.515625 1.125 -1.453125 C 1.226562 -1.398438 1.28125 -1.328125 1.28125 -1.234375 C 1.28125 -1.171875 1.257812 -1.117188 1.21875 -1.078125 C 1.1875 -1.035156 1.140625 -1.015625 1.078125 -1.015625 C 1.035156 -1.015625 1 -1.023438 0.96875 -1.046875 C 0.945312 -1.066406 0.9375 -1.082031 0.9375 -1.09375 C 0.9375 -1.09375 0.941406 -1.097656 0.953125 -1.109375 C 0.972656 -1.128906 0.988281 -1.148438 1 -1.171875 C 1.019531 -1.191406 1.03125 -1.21875 1.03125 -1.25 C 1.03125 -1.3125 1 -1.359375 0.9375 -1.390625 C 0.882812 -1.421875 0.820312 -1.4375 0.75 -1.4375 C 0.664062 -1.4375 0.59375 -1.414062 0.53125 -1.375 C 0.46875 -1.34375 0.4375 -1.289062 0.4375 -1.21875 C 0.4375 -1.15625 0.445312 -1.101562 0.46875 -1.0625 C 0.5 -1.03125 0.539062 -1.003906 0.59375 -0.984375 C 0.644531 -0.960938 0.726562 -0.929688 0.84375 -0.890625 C 0.957031 -0.847656 1.046875 -0.8125 1.109375 -0.78125 C 1.179688 -0.75 1.238281 -0.707031 1.28125 -0.65625 C 1.320312 -0.601562 1.34375 -0.53125 1.34375 -0.4375 C 1.34375 -0.351562 1.3125 -0.269531 1.25 -0.1875 C 1.195312 -0.113281 1.125 -0.0546875 1.03125 -0.015625 C 0.945312 0.0234375 0.84375 0.046875 0.71875 0.046875 Z M 0.71875 0.046875 "/></g></g></g><g fill="#b8844f" fill-opacity="1"><g transform="translate(56.558622, 32.174858)"><g><path d="M 0.4375 -0.6875 C 0.414062 -0.6875 0.394531 -0.691406 0.375 -0.703125 C 0.363281 -0.710938 0.359375 -0.722656 0.359375 -0.734375 C 0.359375 -0.828125 0.34375 -0.992188 0.3125 -1.234375 C 0.300781 -1.347656 0.285156 -1.460938 0.265625 -1.578125 C 0.253906 -1.703125 0.25 -1.804688 0.25 -1.890625 C 0.25 -2.148438 0.3125 -2.28125 0.4375 -2.28125 C 0.550781 -2.28125 0.609375 -2.148438 0.609375 -1.890625 C 0.609375 -1.804688 0.601562 -1.703125 0.59375 -1.578125 C 0.582031 -1.460938 0.570312 -1.347656 0.5625 -1.234375 C 0.53125 -0.992188 0.515625 -0.828125 0.515625 -0.734375 C 0.515625 -0.722656 0.503906 -0.710938 0.484375 -0.703125 C 0.472656 -0.691406 0.457031 -0.6875 0.4375 -0.6875 Z M 0.4375 0.046875 C 0.375 0.046875 0.320312 0.0234375 0.28125 -0.015625 C 0.238281 -0.0546875 0.21875 -0.109375 0.21875 -0.171875 C 0.21875 -0.234375 0.238281 -0.28125 0.28125 -0.3125 C 0.320312 -0.351562 0.375 -0.375 0.4375 -0.375 C 0.5 -0.375 0.550781 -0.351562 0.59375 -0.3125 C 0.632812 -0.28125 0.65625 -0.234375 0.65625 -0.171875 C 0.65625 -0.109375 0.632812 -0.0546875 0.59375 -0.015625 C 0.550781 0.0234375 0.5 0.046875 0.4375 0.046875 Z M 0.4375 0.046875 "/></g></g></g><g clip-path="url(#845c960937)"><path fill="#b8844f" d="M 19.207031 5.71875 C 17.925781 5.957031 17.734375 6.148438 17.5 7.425781 C 17.265625 6.148438 17.074219 5.957031 15.796875 5.71875 C 17.074219 5.484375 17.265625 5.292969 17.5 4.015625 C 17.734375 5.292969 17.925781 5.484375 19.207031 5.71875 Z M 19.207031 5.71875 " fill-opacity="1" fill-rule="nonzero"/></g><g clip-path="url(#f2834c8460)"><path fill="#b8844f" d="M 14.941406 2.695312 C 13.957031 2.878906 13.808594 3.023438 13.628906 4.007812 C 13.449219 3.023438 13.300781 2.878906 12.316406 2.695312 C 13.300781 2.515625 13.449219 2.367188 13.628906 1.382812 C 13.808594 2.367188 13.957031 2.515625 14.941406 2.695312 Z M 14.941406 2.695312 " fill-opacity="1" fill-rule="nonzero"/></g></svg>